<svg xmlns:svg="http://www.w3.org/2000/svg" xmlns="http://www.w3.org/2000/svg" width="1290" height="240" viewBox="0 0 1290 240" id="svg2" version="1.1"><style>.s0{-inkscape-font-specification:'Segoe UI Light, Light';font-family:'Segoe UI Light';font-size:170;font-weight:300;line-height:125;text-align:start;text-anchor:start;writing-mode:lr-tb;}.s1{-inkscape-font-specification:'Segoe UI';fill:#808080;font-family:'Segoe UI';}</style><defs id="defs4"/><metadata id="metadata7"/><g id="layer1" transform="translate(0,-812.36218)"><ellipse id="path2985" cx="120" cy="932.4" rx="120" ry="120" fill="#09c"/><path id="path6764" d="m175.8 884c-1.7-8.1-7-11.3-15-14.5-8-3.2-26.8-7.1-40.7-7.1-14 0-32.8 3.8-40.8 7.1-8 3.2-13.3 6.4-15 14.5l-6 44.7 0 61.5 10.4 0 0 9.6c0 11.7 17.8 11.7 17.8 0l0-9.6 67.2 0 0 9.6c0 11.7 17.8 11.7 17.8 0l0-9.6 10.4 0 0-61.5-6-44.7zm-83.7-11.7 55.9 0c5.5 0 5.5 10.1 0 10.1l-55.9 0c-5.5 0-5.5-10.1 0-10.1m-14.6 99.4c-5.2 0-9.4-4-9.4-9.1 0-5 4.2-9.1 9.4-9.1 5.2 0 9.4 4.1 9.4 9.1 0 5-4.2 9.1-9.4 9.1m85 0c-5.2 0-9.4-4-9.4-9.1 0-5 4.2-9.1 9.4-9.1 5.2 0 9.4 4.1 9.4 9.1 0 5-4.2 9.1-9.4 9.1m3.7-38.3-92.3 0c-2.7 0-4.9-2.2-4.9-4.8 0-0.4 0.1-0.9 0.2-1.2l4.9-35.2c0.4-2.2 2.4-3.9 4.8-3.9l82.3 0c2.4 0 4.4 1.7 4.8 3.9l4.9 35.2c0.1 0.4 0.2 0.8 0.2 1.2 0 2.6-2.2 4.8-4.9 4.8" fill="#fff"/><g id="text3833" style="fill:#444;font-family:Sans;font-size:198.2;letter-spacing:0;line-height:125;word-spacing:0"><path d="m283.4 942.3-0.3 0 0 15.1-7.6 0 0-125.8 7.6 0 0 58.4 0.3 0q4.6-9.4 13-14.4 8.5-5.1 18.8-5.1 16.2 0 25.2 11.2 9.1 11.1 9.1 30.3 0 21.3-10.5 34.5-10.5 13.1-27.4 13.1-19.1 0-28.2-17.2zm-0.3-31.6 0 10.7q0 12.8 8.1 22 8.1 9.1 21.2 9.1 13 0 21.2-11.1 8.1-11.2 8.1-29.4 0-15.9-7.5-25.3-7.5-9.4-19.9-9.4-14.9 0-23 10-8.1 10-8.1 23.4zM426.8 957.4l0-15.4-0.3 0q-8.9 17.5-27.4 17.5-30.1 0-30.1-37.9l0-49.1 7.7 0 0 47.2q0 17.3 5.6 25.1 5.7 7.8 17.9 7.8 11.9 0 19.2-8.7 7.4-8.7 7.4-23.2l0-48.1 7.6 0 0 85-7.6 0zM457.3 953.7l0-9.2q4.3 3.7 10.5 5.9 6.1 2.2 10.6 2.2 20 0 20-16.4 0-5.6-4.4-9.6-4.4-4-14.3-8.2-12.2-5.3-17.2-11-4.9-5.7-4.9-13.9 0-10.4 7.9-16.8 8-6.4 19.6-6.4 11 0 18.8 4.5l0 8.6q-9.5-6.1-19.6-6.1-8.4 0-13.5 4.4-5.1 4.3-5.1 11.3 0 6.1 3.2 9.9 3.2 3.7 14.3 8.6 13.3 6 18.3 11.1 5 5.1 5 13.5 0 10.1-7.6 16.8-7.6 6.6-20.9 6.6-12.3 0-20.5-5.8zM527.7 957.4l0-125.8 7.6 0 0 125.8-7.6 0zM566.3 851q-2.5 0-4.4-1.8-1.9-1.8-1.9-4.6 0-2.7 1.9-4.4 2-1.7 4.4-1.7 2.6 0 4.5 1.7 2 1.7 2 4.5 0 2.7-1.9 4.6-1.9 1.9-4.6 1.9zm-3.7 106.4 0-85 7.6 0 0 85-7.6 0zM655.2 957.4l0-49.5q0-30.6-22.1-30.6-12.3 0-20.2 9-7.9 9-7.9 22.2l0 48.8-7.6 0 0-85 7.6 0 0 15.4 0.3 0q9.3-17.5 29.1-17.5 13.8 0 21.1 9.2 7.3 9.1 7.3 26.1l0 51.7-7.6 0zM692.2 851q-2.5 0-4.4-1.8-1.9-1.8-1.9-4.6 0-2.7 1.9-4.4 2-1.7 4.4-1.7 2.6 0 4.5 1.7 2 1.7 2 4.5 0 2.7-1.9 4.6-1.9 1.9-4.6 1.9zm-3.7 106.4 0-85 7.6 0 0 85-7.6 0zM725.1 915.2q0 17.5 8.1 27.4 8.1 9.9 22.2 9.9 14.3 0 27.9-10.5l0 8.1q-13.2 9.4-29.5 9.4-16.4 0-26.6-11.8-10.1-11.8-10.1-33.3 0-18.6 10.5-31.3 10.6-12.8 27.6-12.8 15.9 0 24.3 11.1 8.5 11.1 8.5 30.4l0 3.4-62.9 0zm55-7q-0.5-14.7-7.1-22.8-6.6-8.1-18.1-8.1-12 0-19.8 8.1-7.8 8-9.6 22.9l54.6 0zM867.1 957.4l0-49.5q0-30.6-22.1-30.6-12.3 0-20.2 9-7.9 9-7.9 22.2l0 48.8-7.6 0 0-85 7.6 0 0 15.4 0.3 0q9.3-17.5 29.1-17.5 13.8 0 21.1 9.2 7.3 9.1 7.3 26.1l0 51.7-7.6 0zM895.9 953.7l0-9.2q4.3 3.7 10.5 5.9 6.1 2.2 10.6 2.2 20 0 20-16.4 0-5.6-4.4-9.6-4.4-4-14.3-8.2-12.2-5.3-17.2-11-4.9-5.7-4.9-13.9 0-10.4 7.9-16.8 8-6.4 19.6-6.4 11 0 18.8 4.5l0 8.6q-9.5-6.1-19.6-6.1-8.4 0-13.5 4.4-5.1 4.3-5.1 11.3 0 6.1 3.2 9.9 3.2 3.7 14.3 8.6 13.3 6 18.3 11.1 5 5.1 5 13.5 0 10.1-7.6 16.8-7.6 6.6-20.9 6.6-12.3 0-20.5-5.8zM1022.5 957.4l0-15.4-0.3 0q-8.9 17.5-27.4 17.5-30.1 0-30.1-37.9l0-49.1 7.7 0 0 47.2q0 17.3 5.6 25.1 5.7 7.8 17.9 7.8 11.9 0 19.2-8.7 7.4-8.7 7.4-23.2l0-48.1 7.6 0 0 85-7.6 0zM1112.4 953.7q-9.5 5.8-22.6 5.8-17.3 0-28-11.9-10.6-12-10.6-31.2 0-20.3 12-33.1 12-12.9 30.7-12.9 9.7 0 18.8 4l0 8.6q-9.1-5.6-20-5.6-14.9 0-24.2 10.8-9.3 10.7-9.3 27.8 0 16.5 8.5 26.6 8.5 10 22.5 10 12.8 0 22.2-6.8l0 8zM1190.5 957.4l0-51q0-15.1-5.5-22.1-5.5-7.1-17.1-7.1-11 0-19.3 8.5-8.3 8.5-8.3 24.5l0 47.1-7.6 0 0-125.8 7.6 0 0 56.1 0.3 0q10-17.3 29.2-17.3 13.8 0 21 8.9 7.2 8.9 7.2 25.5l0 52.7-7.6 0zM1225.5 915.2q0 17.5 8.1 27.4 8.1 9.9 22.2 9.9 14.3 0 27.9-10.5l0 8.1q-13.2 9.4-29.5 9.4-16.4 0-26.6-11.8-10.1-11.8-10.1-33.3 0-18.6 10.5-31.3 10.6-12.8 27.6-12.8 15.9 0 24.3 11.1 8.5 11.1 8.5 30.4l0 3.4-62.9 0zm55-7q-0.5-14.7-7.1-22.8-6.6-8.1-18.1-8.1-12 0-19.8 8.1-7.8 8-9.6 22.9l54.6 0z" id="path3895" class="s0"/></g><g id="text3839" style="fill:#808080;font-family:Sans;font-size:66;letter-spacing:0;line-height:125;word-spacing:0"><path d="m308.4 1035.2-6 0-4.9-13-19.6 0-4.6 13-6 0 17.7-46.2 5.6 0 17.8 46.2zm-12.7-17.8-7.3-19.7q-0.4-1-0.7-3.1l-0.1 0q-0.3 2-0.7 3.1l-7.2 19.7 16 0zM319.8 1035.2l-5.3 0 0-48.9 5.3 0 0 48.9zM335.8 1035.2l-5.3 0 0-48.9 5.3 0 0 48.9zM373 1020l-23.3 0q0.1 5.5 3 8.5 2.8 3 7.8 3 5.6 0 10.2-3.7l0 5q-4.4 3.2-11.5 3.2-7 0-11-4.5-4-4.5-4-12.7 0-7.7 4.4-12.5 4.4-4.9 10.9-4.9 6.5 0 10 4.2 3.5 4.2 3.5 11.6l0 2.8zm-5.4-4.5q0-4.6-2.2-7.1-2.2-2.5-6-2.5-3.7 0-6.3 2.7-2.6 2.7-3.2 7l17.8 0zM423.2 993.9l-18 0 0 16 16.7 0 0 4.9-16.7 0 0 20.5-5.4 0 0-46.2 23.5 0 0 4.9zM457.8 1020l-23.3 0q0.1 5.5 3 8.5 2.8 3 7.8 3 5.6 0 10.2-3.7l0 5q-4.4 3.2-11.5 3.2-7 0-11-4.5-4-4.5-4-12.7 0-7.7 4.4-12.5 4.4-4.9 10.9-4.9 6.5 0 10 4.2 3.5 4.2 3.5 11.6l0 2.8zm-5.4-4.5q0-4.6-2.2-7.1-2.2-2.5-6-2.5-3.7 0-6.3 2.7-2.6 2.7-3.2 7l17.8 0zM483.1 1007.5q-1.4-1.1-4-1.1-3.4 0-5.7 3.2-2.3 3.2-2.3 8.7l0 16.8-5.3 0 0-33 5.3 0 0 6.8 0.1 0q1.1-3.5 3.4-5.4 2.3-2 5.2-2 2.1 0 3.2 0.5l0 5.5zM516.2 1035.2l-5.3 0 0-18.8q0-10.5-7.7-10.5-4 0-6.6 3-2.6 3-2.6 7.5l0 18.8-5.3 0 0-33 5.3 0 0 5.5 0.1 0q3.7-6.3 10.8-6.3 5.4 0 8.3 3.5 2.9 3.5 2.9 10.1l0 20.2zM531.6 1030.4l-0.1 0 0 4.8-5.3 0 0-48.9 5.3 0 0 21.7 0.1 0q3.9-6.6 11.4-6.6 6.3 0 9.9 4.4 3.6 4.4 3.6 11.9 0 8.3-4 13.3-4 5-11 5-6.5 0-9.9-5.5zm-0.1-13.3 0 4.6q0 4.1 2.6 7 2.7 2.8 6.8 2.8 4.8 0 7.5-3.7 2.7-3.7 2.7-10.2 0-5.5-2.5-8.6-2.5-3.1-6.9-3.1-4.6 0-7.4 3.2-2.8 3.2-2.8 8zM591.7 1035.2l-5.3 0 0-5.2-0.1 0q-3.3 6-10.2 6-11.8 0-11.8-14.1l0-19.7 5.3 0 0 18.9q0 10.4 8 10.4 3.9 0 6.3-2.8 2.5-2.9 2.5-7.5l0-19 5.3 0 0 33zM600.4 1034l0-5.7q4.3 3.2 9.5 3.2 7 0 7-4.6 0-1.3-0.6-2.2-0.6-0.9-1.6-1.6-1-0.7-2.4-1.3-1.4-0.6-2.9-1.2-2.2-0.9-3.9-1.7-1.6-0.9-2.8-2-1.1-1.1-1.7-2.5-0.5-1.4-0.5-3.3 0-2.3 1.1-4.1 1.1-1.8 2.8-3 1.8-1.2 4-1.8 2.3-0.6 4.7-0.6 4.3 0 7.7 1.5l0 5.4q-3.6-2.4-8.4-2.4-1.5 0-2.7 0.4-1.2 0.3-2.1 0.9-0.8 0.6-1.3 1.5-0.5 0.8-0.5 1.9 0 1.3 0.5 2.2 0.5 0.9 1.4 1.5 0.9 0.7 2.2 1.2 1.3 0.5 2.9 1.2 2.2 0.8 3.9 1.7 1.7 0.9 3 2 1.2 1.1 1.9 2.5 0.7 1.5 0.7 3.4 0 2.4-1.1 4.3-1.1 1.8-2.9 3-1.8 1.2-4.2 1.8-2.4 0.6-4.9 0.6-5.1 0-8.8-2zM628.3 1034l0-5.7q4.3 3.2 9.5 3.2 7 0 7-4.6 0-1.3-0.6-2.2-0.6-0.9-1.6-1.6-1-0.7-2.4-1.3-1.4-0.6-2.9-1.2-2.2-0.9-3.9-1.7-1.6-0.9-2.8-2-1.1-1.1-1.7-2.5-0.5-1.4-0.5-3.3 0-2.3 1.1-4.1 1.1-1.8 2.8-3 1.8-1.2 4-1.8 2.3-0.6 4.7-0.6 4.3 0 7.7 1.5l0 5.4q-3.6-2.4-8.4-2.4-1.5 0-2.7 0.4-1.2 0.3-2.1 0.9-0.8 0.6-1.3 1.5-0.5 0.8-0.5 1.9 0 1.3 0.5 2.2 0.5 0.9 1.4 1.5 0.9 0.7 2.2 1.2 1.3 0.5 2.9 1.2 2.2 0.8 3.9 1.7 1.7 0.9 3 2 1.2 1.1 1.9 2.5 0.7 1.5 0.7 3.4 0 2.4-1.1 4.3-1.1 1.8-2.9 3-1.8 1.2-4.2 1.8-2.4 0.6-4.9 0.6-5.1 0-8.8-2zM684.8 1020l-23.3 0q0.1 5.5 3 8.5 2.8 3 7.8 3 5.6 0 10.2-3.7l0 5q-4.4 3.2-11.5 3.2-7 0-11-4.5-4-4.5-4-12.7 0-7.7 4.4-12.5 4.4-4.9 10.9-4.9 6.5 0 10 4.2 3.5 4.2 3.5 11.6l0 2.8zm-5.4-4.5q0-4.6-2.2-7.1-2.2-2.5-6-2.5-3.7 0-6.3 2.7-2.6 2.7-3.2 7l17.8 0zM734.5 1035.2l-5.3 0 0-5.2-0.1 0q-3.4 5.9-10.2 5.9-4.9 0-7.7-2.6-2.8-2.6-2.8-6.9 0-9.2 10.9-10.8l9.9-1.4q0-8.4-6.8-8.4-6 0-10.8 4.1l0-5.4q4.9-3.1 11.2-3.1 11.6 0 11.6 12.3l0 21.5zm-5.3-16.7-8 1.1q-3.7 0.5-5.5 1.8-1.9 1.3-1.9 4.6 0 2.4 1.7 4 1.7 1.5 4.6 1.5 3.9 0 6.5-2.7 2.6-2.8 2.6-7l0-3.3zM771.3 1035.2l-5.3 0 0-5.2-0.1 0q-3.3 6-10.2 6-11.8 0-11.8-14.1l0-19.7 5.3 0 0 18.9q0 10.4 8 10.4 3.9 0 6.3-2.8 2.5-2.9 2.5-7.5l0-19 5.3 0 0 33zM798.3 991q-1.5-0.9-3.5-0.9-5.5 0-5.5 7l0 5.1 7.7 0 0 4.5-7.7 0 0 28.5-5.3 0 0-28.5-5.6 0 0-4.5 5.6 0 0-5.4q0-5.2 3-8.2 3-3 7.5-3 2.4 0 3.8 0.6l0 4.8zM847.2 1020l-23.3 0q0.1 5.5 3 8.5 2.8 3 7.8 3 5.6 0 10.2-3.7l0 5q-4.4 3.2-11.5 3.2-7 0-11-4.5-4-4.5-4-12.7 0-7.7 4.4-12.5 4.4-4.9 10.9-4.9 6.5 0 10 4.2 3.5 4.2 3.5 11.6l0 2.8zm-5.4-4.5q0-4.6-2.2-7.1-2.2-2.5-6-2.5-3.7 0-6.3 2.7-2.6 2.7-3.2 7l17.8 0zM857.9 993.8q-1.4 0-2.4-1-1-1-1-2.4 0-1.5 1-2.4 1-1 2.4-1 1.5 0 2.4 1 1 1 1 2.4 0 1.4-1 2.4-1 1-2.4 1zm2.6 41.4-5.3 0 0-33 5.3 0 0 33zM898.6 1035.2l-5.3 0 0-18.8q0-10.5-7.7-10.5-4 0-6.6 3-2.6 3-2.6 7.5l0 18.8-5.3 0 0-33 5.3 0 0 5.5 0.1 0q3.7-6.3 10.8-6.3 5.4 0 8.3 3.5 2.9 3.5 2.9 10.1l0 20.2zM935.1 1020l-23.3 0q0.1 5.5 3 8.5 2.8 3 7.8 3 5.6 0 10.2-3.7l0 5q-4.4 3.2-11.5 3.2-7 0-11-4.5-4-4.5-4-12.7 0-7.7 4.4-12.5 4.4-4.9 10.9-4.9 6.5 0 10 4.2 3.5 4.2 3.5 11.6l0 2.8zm-5.4-4.5q0-4.6-2.2-7.1-2.2-2.5-6-2.5-3.7 0-6.3 2.7-2.6 2.7-3.2 7l17.8 0zM970.5 1035.2l-5.3 0 0-18.8q0-10.5-7.7-10.5-4 0-6.6 3-2.6 3-2.6 7.5l0 18.8-5.3 0 0-33 5.3 0 0 5.5 0.1 0q3.7-6.3 10.8-6.3 5.4 0 8.3 3.5 2.9 3.5 2.9 10.1l0 20.2zM999.2 1035.2l0-46.2 13.1 0q6 0 9.5 2.9 3.5 2.9 3.5 7.6 0 3.9-2.1 6.8-2.1 2.9-5.9 4.1l0 0.1q4.7 0.5 7.5 3.5 2.8 3 2.8 7.7 0 5.9-4.3 9.6-4.3 3.7-10.7 3.7l-13.5 0zm5.4-41.3 0 14.9 5.5 0q4.4 0 7-2.1 2.5-2.2 2.5-6.1 0-6.7-8.9-6.7l-6.2 0zm0 19.8 0 16.6 7.3 0q4.8 0 7.4-2.3 2.6-2.3 2.6-6.2 0-8.2-11.2-8.2l-6.2 0zM1041.7 1035.2l-5.3 0 0-48.9 5.3 0 0 48.9zM1055.1 993.8q-1.4 0-2.4-1-1-1-1-2.4 0-1.5 1-2.4 1-1 2.4-1 1.5 0 2.4 1 1 1 1 2.4 0 1.4-1 2.4-1 1-2.4 1zm2.6 41.4-5.3 0 0-33 5.3 0 0 33zM1090.9 1033.7q-3.8 2.3-9 2.3-7.1 0-11.4-4.6-4.3-4.6-4.3-11.9 0-8.2 4.7-13.1 4.7-5 12.5-5 4.4 0 7.7 1.6l0 5.4q-3.7-2.6-7.9-2.6-5.1 0-8.3 3.6-3.2 3.6-3.2 9.5 0 5.8 3 9.2 3.1 3.4 8.2 3.4 4.3 0 8.1-2.9l0 5zM1126.4 1035.2l-7.4 0-14.6-15.9-0.1 0 0 15.9-5.3 0 0-48.9 5.3 0 0 31 0.1 0 13.9-15.1 6.9 0-15.3 15.9 16.5 17.1z" id="path3924" class="s1"/></g></g></svg>