<?xml version="1.0" encoding="utf-8"?>
<!-- Generator: Adobe Illustrator 16.0.0, SVG Export Plug-In . SVG Version: 6.00 Build 0)  -->
<!DOCTYPE svg PUBLIC "-//W3C//DTD SVG 1.1//EN" "http://www.w3.org/Graphics/SVG/1.1/DTD/svg11.dtd">
<svg version="1.1" id="Layer_1" xmlns="http://www.w3.org/2000/svg" xmlns:xlink="http://www.w3.org/1999/xlink" x="0px" y="0px"
	 width="354px" height="314px" viewBox="0 0 354 314" enable-background="new 0 0 354 314" xml:space="preserve">
<polygon fill="#FFFFFF" points="39,236 79,236 79,275 275,275 275,236 314,236 314,79 275,79 275,39 196.507,39 78.603,39 
	39,78.603 "/>
<rect x="157" y="112" width="40" height="45"/>
<rect x="314" y="142" width="40" height="65"/>
<rect x="157" y="29" width="40" height="60"/>
<rect x="157" y="79" width="40" height="39"/>
<rect x="197" width="39" height="39"/>
<rect x="142" width="66" height="39"/>
<rect x="216" y="157" width="59" height="40"/>
<rect x="157" y="145" width="40" height="52"/>
<rect y="79" width="39" height="50"/>
<rect x="118" width="39" height="39"/>
<rect x="79" width="44" height="39"/>
<rect y="118" width="39" height="47"/>
<rect x="314" y="112" width="40" height="45"/>
<rect x="314" y="79" width="40" height="39"/>
<rect x="275" y="39" width="39" height="40"/>
<rect x="236" y="275" width="39" height="39"/>
<rect x="197" y="275" width="48" height="39"/>
<rect x="157" y="275" width="51" height="39"/>
<rect x="118" y="275" width="54" height="39"/>
<rect x="79" y="275" width="49" height="39"/>
<rect x="39" y="236" width="40" height="39"/>
<rect y="197" width="39" height="39"/>
<rect x="225" width="50" height="39"/>
<rect y="157" width="39" height="50"/>
<rect x="187" y="157" width="49" height="40"/>
<rect x="275" y="236" width="39" height="39"/>
<rect x="314" y="193" width="40" height="43"/>
<polygon fill="#CE2020" points="39.301,79 79,79 79,39.302 "/>
<rect x="39" y="39" width="40" height="40"/>
</svg>
