<?xml version="1.0" encoding="utf-8"?>
<!-- Generator: Adobe Illustrator 16.0.0, SVG Export Plug-In . SVG Version: 6.00 Build 0)  -->
<!DOCTYPE svg PUBLIC "-//W3C//DTD SVG 1.1//EN" "http://www.w3.org/Graphics/SVG/1.1/DTD/svg11.dtd">
<svg version="1.1" id="Layer_1" xmlns="http://www.w3.org/2000/svg" xmlns:xlink="http://www.w3.org/1999/xlink" x="0px" y="0px"
	 width="1925.615px" height="1211.758px" viewBox="0 0 1925.615 1211.758" enable-background="new 0 0 1925.615 1211.758"
	 xml:space="preserve">
<rect x="783.939" y="116.018" stroke="#000000" stroke-miterlimit="10" width="42" height="36"/>
<rect x="810.939" y="116.018" stroke="#000000" stroke-miterlimit="10" width="52" height="36"/>
<rect x="899.939" y="152.018" stroke="#000000" stroke-miterlimit="10" width="37" height="37"/>
<rect x="555.939" y="42.018" stroke="#000000" stroke-miterlimit="10" width="50" height="38"/>
<rect x="532.939" y="42.018" stroke="#000000" stroke-miterlimit="10" width="36" height="38"/>
<rect x="384.939" y="947.018" stroke="#000000" stroke-miterlimit="10" width="37" height="37"/>
<rect x="384.939" y="984.018" stroke="#000000" stroke-miterlimit="10" width="37" height="37"/>
<rect x="752.939" y="116.018" stroke="#000000" stroke-miterlimit="10" width="37" height="36"/>
<rect x="457.939" y="80.018" stroke="#000000" stroke-miterlimit="10" width="36" height="36"/>
<rect x="420.939" y="116.018" stroke="#000000" stroke-miterlimit="10" width="37" height="36"/>
<rect x="484.939" y="80.018" stroke="#000000" stroke-miterlimit="10" width="48" height="36"/>
<rect x="371.939" y="152.018" stroke="#000000" stroke-miterlimit="10" width="49" height="37"/>
<rect x="347.939" y="152.018" stroke="#000000" stroke-miterlimit="10" width="37" height="37"/>
<rect x="311.939" y="874.018" stroke="#000000" stroke-miterlimit="10" width="37" height="36"/>
<rect x="862.939" y="152.018" stroke="#000000" stroke-miterlimit="10" width="46" height="37"/>
<rect x="605.939" y="80.018" stroke="#000000" stroke-miterlimit="10" width="36" height="36"/>
<rect x="310.939" y="189.018" stroke="#000000" stroke-miterlimit="10" width="37" height="36"/>
<rect x="273.939" y="225.018" stroke="#000000" stroke-miterlimit="10" width="37" height="36"/>
<rect x="237.939" y="261.018" stroke="#000000" stroke-miterlimit="10" width="36" height="38"/>
<rect x="311.939" y="837.018" stroke="#000000" stroke-miterlimit="10" width="37" height="37"/>
<rect x="917.939" y="152.018" stroke="#000000" stroke-miterlimit="10" width="55" height="37"/>
<rect x="1009.939" y="189.018" stroke="#000000" stroke-miterlimit="10" width="36" height="36"/>
<rect x="960.939" y="152.018" stroke="#000000" stroke-miterlimit="10" width="49" height="37"/>
<rect x="1082.939" y="262.018" stroke="#000000" stroke-miterlimit="10" width="37" height="37"/>
<rect x="1045.939" y="225.018" stroke="#000000" stroke-miterlimit="10" width="37" height="37"/>
<rect x="1107.939" y="262.018" stroke="#000000" stroke-miterlimit="10" width="50" height="37"/>
<rect x="348.939" y="910.018" stroke="#000000" stroke-miterlimit="10" width="36" height="37"/>
<rect x="863.939" y="1055.018" stroke="#000000" stroke-miterlimit="10" width="37" height="36"/>
<rect x="826.939" y="1091.018" stroke="#000000" stroke-miterlimit="10" width="37" height="36"/>
<rect x="789.939" y="1091.018" stroke="#000000" stroke-miterlimit="10" width="37" height="36"/>
<rect x="752.939" y="1127.018" stroke="#000000" stroke-miterlimit="10" width="37" height="36"/>
<rect x="715.939" y="1127.018" stroke="#000000" stroke-miterlimit="10" width="37" height="36"/>
<rect x="679.939" y="1127.018" stroke="#000000" stroke-miterlimit="10" width="37" height="36"/>
<rect x="643.939" y="1127.018" stroke="#000000" stroke-miterlimit="10" width="37" height="36"/>
<rect x="606.939" y="1093.018" stroke="#000000" stroke-miterlimit="10" width="37" height="36"/>
<rect x="569.939" y="1093.018" stroke="#000000" stroke-miterlimit="10" width="37" height="36"/>
<rect x="532.939" y="1093.018" stroke="#000000" stroke-miterlimit="10" width="37" height="36"/>
<rect x="495.939" y="1093.018" stroke="#000000" stroke-miterlimit="10" width="37" height="36"/>
<rect x="458.939" y="1057.018" stroke="#000000" stroke-miterlimit="10" width="37" height="36"/>
<rect x="421.939" y="1021.018" stroke="#000000" stroke-miterlimit="10" width="37" height="36"/>
<rect x="1377.939" y="947.018" stroke="#000000" stroke-miterlimit="10" width="37" height="36"/>
<rect x="1340.939" y="911.018" stroke="#000000" stroke-miterlimit="10" width="37" height="36"/>
<rect x="1303.939" y="911.018" stroke="#000000" stroke-miterlimit="10" width="37" height="36"/>
<rect x="1674.939" y="443.018" stroke="#000000" stroke-miterlimit="10" width="37" height="36"/>
<rect x="1637.939" y="407.018" stroke="#000000" stroke-miterlimit="10" width="37" height="36"/>
<rect x="1600.939" y="407.018" stroke="#000000" stroke-miterlimit="10" width="37" height="36"/>
<rect x="1563.939" y="407.018" stroke="#000000" stroke-miterlimit="10" width="37" height="36"/>
<rect x="1527.939" y="407.018" stroke="#000000" stroke-miterlimit="10" width="37" height="36"/>
<rect x="1490.939" y="371.018" stroke="#000000" stroke-miterlimit="10" width="37" height="36"/>
<rect x="1490.939" y="335.018" stroke="#000000" stroke-miterlimit="10" width="37" height="36"/>
<rect x="1416.939" y="299.018" stroke="#000000" stroke-miterlimit="10" width="37" height="36"/>
<rect x="1379.939" y="299.018" stroke="#000000" stroke-miterlimit="10" width="37" height="36"/>
<rect x="1342.939" y="263.018" stroke="#000000" stroke-miterlimit="10" width="37" height="36"/>
<rect x="1305.939" y="227.018" stroke="#000000" stroke-miterlimit="10" width="37" height="36"/>
<rect x="1268.939" y="191.018" stroke="#000000" stroke-miterlimit="10" width="37" height="36"/>
<rect x="1231.939" y="191.018" stroke="#000000" stroke-miterlimit="10" width="37" height="36"/>
<rect x="1194.939" y="191.018" stroke="#000000" stroke-miterlimit="10" width="37" height="36"/>
<rect x="1157.939" y="227.018" stroke="#000000" stroke-miterlimit="10" width="37" height="36"/>
<rect x="200.939" y="299.018" stroke="#000000" stroke-miterlimit="10" width="37" height="36"/>
<rect x="899.939" y="1055.018" stroke="#000000" stroke-miterlimit="10" width="37" height="36"/>
<rect x="970.939" y="1055.018" stroke="#000000" stroke-miterlimit="10" width="37" height="36"/>
<rect x="715.939" y="80.018" stroke="#000000" stroke-miterlimit="10" width="37" height="36"/>
<rect x="678.939" y="116.018" stroke="#000000" stroke-miterlimit="10" width="37" height="36"/>
<rect x="641.939" y="116.018" stroke="#000000" stroke-miterlimit="10" width="37" height="36"/>
<rect x="1266.939" y="911.018" stroke="#000000" stroke-miterlimit="10" width="37" height="36"/>
<rect x="1229.939" y="947.018" stroke="#000000" stroke-miterlimit="10" width="37" height="36"/>
<rect x="1192.939" y="983.018" stroke="#000000" stroke-miterlimit="10" width="37" height="36"/>
<rect x="1155.939" y="983.018" stroke="#000000" stroke-miterlimit="10" width="37" height="36"/>
<rect x="1118.939" y="1019.018" stroke="#000000" stroke-miterlimit="10" width="37" height="36"/>
<rect x="1081.939" y="1019.018" stroke="#000000" stroke-miterlimit="10" width="37" height="36"/>
<rect x="1044.939" y="1019.018" stroke="#000000" stroke-miterlimit="10" width="37" height="36"/>
<rect x="1007.939" y="1019.018" stroke="#000000" stroke-miterlimit="10" width="37" height="36"/>
<rect x="933.939" y="1055.018" stroke="#000000" stroke-miterlimit="10" width="37" height="36"/>
<rect x="89.939" y="659.018" stroke="#000000" stroke-miterlimit="10" width="37" height="36"/>
<rect x="89.939" y="623.018" stroke="#000000" stroke-miterlimit="10" width="37" height="36"/>
<rect x="126.939" y="587.018" stroke="#000000" stroke-miterlimit="10" width="37" height="36"/>
<rect x="163.939" y="551.018" stroke="#000000" stroke-miterlimit="10" width="37" height="36"/>
<rect x="163.939" y="515.018" stroke="#000000" stroke-miterlimit="10" width="37" height="36"/>
<rect x="126.939" y="479.018" stroke="#000000" stroke-miterlimit="10" width="37" height="36"/>
<rect x="126.939" y="443.018" stroke="#000000" stroke-miterlimit="10" width="37" height="36"/>
<rect x="126.939" y="407.018" stroke="#000000" stroke-miterlimit="10" width="37" height="36"/>
<rect x="163.939" y="371.018" stroke="#000000" stroke-miterlimit="10" width="37" height="36"/>
<rect x="200.939" y="335.018" stroke="#000000" stroke-miterlimit="10" width="37" height="36"/>
<rect x="126.939" y="729.018" stroke="#000000" stroke-miterlimit="10" width="37" height="36"/>
<rect x="163.939" y="765.018" stroke="#000000" stroke-miterlimit="10" width="37" height="36"/>
<rect x="200.939" y="801.018" stroke="#000000" stroke-miterlimit="10" width="37" height="36"/>
<rect x="237.939" y="801.018" stroke="#000000" stroke-miterlimit="10" width="37" height="36"/>
<rect x="274.939" y="801.018" stroke="#000000" stroke-miterlimit="10" width="37" height="36"/>
<rect x="89.939" y="693.018" stroke="#000000" stroke-miterlimit="10" width="37" height="36"/>
<rect x="1858.939" y="623.018" stroke="#000000" stroke-miterlimit="10" width="37" height="36"/>
<rect x="1822.939" y="587.018" stroke="#000000" stroke-miterlimit="10" width="37" height="36"/>
<rect x="1785.939" y="551.018" stroke="#000000" stroke-miterlimit="10" width="37" height="36"/>
<rect x="1785.939" y="515.018" stroke="#000000" stroke-miterlimit="10" width="37" height="36"/>
<rect x="1748.939" y="479.018" stroke="#000000" stroke-miterlimit="10" width="37" height="36"/>
<rect x="1711.939" y="479.018" stroke="#000000" stroke-miterlimit="10" width="37" height="36"/>
<rect x="1784.939" y="731.018" stroke="#000000" stroke-miterlimit="10" width="37" height="36"/>
<rect x="1747.939" y="767.018" stroke="#000000" stroke-miterlimit="10" width="37" height="36"/>
<rect x="1710.939" y="767.018" stroke="#000000" stroke-miterlimit="10" width="37" height="36"/>
<rect x="1673.939" y="803.018" stroke="#000000" stroke-miterlimit="10" width="37" height="36"/>
<rect x="1636.939" y="839.018" stroke="#000000" stroke-miterlimit="10" width="37" height="36"/>
<rect x="1599.939" y="839.018" stroke="#000000" stroke-miterlimit="10" width="37" height="36"/>
<rect x="1562.939" y="875.018" stroke="#000000" stroke-miterlimit="10" width="37" height="36"/>
<rect x="1525.939" y="911.018" stroke="#000000" stroke-miterlimit="10" width="37" height="36"/>
<rect x="1488.939" y="911.018" stroke="#000000" stroke-miterlimit="10" width="37" height="36"/>
<rect x="1451.939" y="911.018" stroke="#000000" stroke-miterlimit="10" width="37" height="36"/>
<rect x="1414.939" y="947.018" stroke="#000000" stroke-miterlimit="10" width="37" height="36"/>
<rect x="1858.939" y="659.018" stroke="#000000" stroke-miterlimit="10" width="37" height="36"/>
<rect x="1821.939" y="695.018" stroke="#000000" stroke-miterlimit="10" width="37" height="36"/>
<rect x="1027.939" y="353.018" fill="#00AFE5" stroke="#00AFE5" stroke-miterlimit="10" width="47" height="36"/>
<rect x="347.939" y="731.018" fill="#00AFE5" stroke="#00AFE5" stroke-miterlimit="10" width="36" height="36"/>
<rect x="1139.939" y="876.018" fill="#00AFE5" stroke="#00AFE5" stroke-miterlimit="10" width="36" height="36"/>
<rect x="1103.939" y="876.018" fill="#00AFE5" stroke="#00AFE5" stroke-miterlimit="10" width="36" height="36"/>
<rect x="1067.939" y="912.018" fill="#00AFE5" stroke="#00AFE5" stroke-miterlimit="10" width="36" height="36"/>
<rect x="995.939" y="912.018" fill="#00AFE5" stroke="#00AFE5" stroke-miterlimit="10" width="36" height="36"/>
<rect x="1244.939" y="317.018" fill="#00AFE5" stroke="#00AFE5" stroke-miterlimit="10" width="36" height="36"/>
<rect x="1208.939" y="317.018" fill="#00AFE5" stroke="#00AFE5" stroke-miterlimit="10" width="36" height="36"/>
<rect x="1100.939" y="353.018" fill="#00AFE5" stroke="#00AFE5" stroke-miterlimit="10" width="36" height="36"/>
<rect x="526.939" y="912.018" fill="#00AFE5" stroke="#00AFE5" stroke-miterlimit="10" width="36" height="36"/>
<rect x="1172.939" y="353.018" fill="#00AFE5" stroke="#00AFE5" stroke-miterlimit="10" width="36" height="36"/>
<rect x="490.939" y="875.018" fill="#00AFE5" stroke="#00AFE5" stroke-miterlimit="10" width="36" height="36"/>
<rect x="845.939" y="244.018" fill="#00AFE5" stroke="#00AFE5" stroke-miterlimit="10" width="36" height="36"/>
<rect x="881.939" y="244.018" fill="#00AFE5" stroke="#00AFE5" stroke-miterlimit="10" width="36" height="36"/>
<rect x="1136.939" y="353.018" fill="#00AFE5" stroke="#00AFE5" stroke-miterlimit="10" width="36" height="36"/>
<rect x="1027.939" y="317.018" fill="#00AFE5" stroke="#00AFE5" stroke-miterlimit="10" width="36" height="36"/>
<rect x="991.939" y="317.018" fill="#00AFE5" stroke="#00AFE5" stroke-miterlimit="10" width="36" height="36"/>
<rect x="954.939" y="281.018" fill="#00AFE5" stroke="#00AFE5" stroke-miterlimit="10" width="36" height="36"/>
<rect x="918.939" y="281.018" fill="#00AFE5" stroke="#00AFE5" stroke-miterlimit="10" width="36" height="36"/>
<rect x="562.939" y="912.018" fill="#00AFE5" stroke="#00AFE5" stroke-miterlimit="10" width="36" height="36"/>
<rect x="1064.939" y="353.018" fill="#00AFE5" stroke="#00AFE5" stroke-miterlimit="10" width="36" height="36"/>
<rect x="417.939" y="767.018" fill="#00AFE5" stroke="#00AFE5" stroke-miterlimit="10" width="36" height="36"/>
<rect x="453.939" y="803.018" fill="#00AFE5" stroke="#00AFE5" stroke-miterlimit="10" width="36" height="36"/>
<rect x="453.939" y="839.018" fill="#00AFE5" stroke="#00AFE5" stroke-miterlimit="10" width="36" height="36"/>
<rect x="670.939" y="948.018" fill="#00AFE5" stroke="#00AFE5" stroke-miterlimit="10" width="36" height="36"/>
<rect x="634.939" y="948.018" fill="#00AFE5" stroke="#00AFE5" stroke-miterlimit="10" width="36" height="36"/>
<rect x="598.939" y="948.018" fill="#00AFE5" stroke="#00AFE5" stroke-miterlimit="10" width="36" height="36"/>
<rect x="562.939" y="948.018" fill="#00AFE5" stroke="#00AFE5" stroke-miterlimit="10" width="36" height="36"/>
<rect x="526.939" y="875.018" fill="#00AFE5" stroke="#00AFE5" stroke-miterlimit="10" width="36" height="36"/>
<rect x="814.939" y="912.018" fill="#00AFE5" stroke="#00AFE5" stroke-miterlimit="10" width="36" height="36"/>
<rect x="778.939" y="912.018" fill="#00AFE5" stroke="#00AFE5" stroke-miterlimit="10" width="36" height="36"/>
<rect x="742.939" y="912.018" fill="#00AFE5" stroke="#00AFE5" stroke-miterlimit="10" width="36" height="36"/>
<rect x="706.939" y="912.018" fill="#00AFE5" stroke="#00AFE5" stroke-miterlimit="10" width="36" height="36"/>
<rect x="670.939" y="912.018" fill="#00AFE5" stroke="#00AFE5" stroke-miterlimit="10" width="36" height="36"/>
<rect x="634.939" y="912.018" fill="#00AFE5" stroke="#00AFE5" stroke-miterlimit="10" width="36" height="36"/>
<rect x="598.939" y="912.018" fill="#00AFE5" stroke="#00AFE5" stroke-miterlimit="10" width="36" height="36"/>
<rect x="959.939" y="875.018" fill="#00AFE5" stroke="#00AFE5" stroke-miterlimit="10" width="36" height="36"/>
<rect x="923.939" y="839.018" fill="#00AFE5" stroke="#00AFE5" stroke-miterlimit="10" width="36" height="36"/>
<rect x="887.939" y="875.018" fill="#00AFE5" stroke="#00AFE5" stroke-miterlimit="10" width="36" height="36"/>
<rect x="381.939" y="731.018" fill="#00AFE5" stroke="#00AFE5" stroke-miterlimit="10" width="36" height="36"/>
<rect x="476.939" y="839.018" fill="#00AFE5" stroke="#00AFE5" stroke-miterlimit="10" width="50" height="36"/>
<rect x="562.939" y="875.018" fill="#00AFE5" stroke="#00AFE5" stroke-miterlimit="10" width="36" height="36"/>
<rect x="851.939" y="875.018" fill="#00AFE5" stroke="#00AFE5" stroke-miterlimit="10" width="36" height="36"/>
<rect x="1031.939" y="912.018" fill="#00AFE5" stroke="#00AFE5" stroke-miterlimit="10" width="36" height="36"/>
<rect x="1139.939" y="389.018" fill="#00AFE5" stroke="#00AFE5" stroke-miterlimit="10" width="36" height="36"/>
<rect x="1103.939" y="389.018" fill="#00AFE5" stroke="#00AFE5" stroke-miterlimit="10" width="36" height="36"/>
<rect x="1067.939" y="389.018" fill="#00AFE5" stroke="#00AFE5" stroke-miterlimit="10" width="36" height="36"/>
<rect x="1453.939" y="299.018" stroke="#000000" stroke-miterlimit="10" width="37" height="36"/>
</svg>
