<?xml version="1.0" encoding="utf-8"?>
<!-- Generator: Adobe Illustrator 16.0.0, SVG Export Plug-In . SVG Version: 6.00 Build 0)  -->
<!DOCTYPE svg PUBLIC "-//W3C//DTD SVG 1.1//EN" "http://www.w3.org/Graphics/SVG/1.1/DTD/svg11.dtd">
<svg version="1.1" id="Layer_1" xmlns="http://www.w3.org/2000/svg" xmlns:xlink="http://www.w3.org/1999/xlink" x="0px" y="0px"
	 width="1615.418px" height="1079.945px" viewBox="0 0 1615.418 1079.945" enable-background="new 0 0 1615.418 1079.945"
	 xml:space="preserve">
<rect x="711.867" y="84.39" stroke="#000000" stroke-miterlimit="10" width="42" height="36"/>
<rect x="738.867" y="84.39" stroke="#000000" stroke-miterlimit="10" width="52" height="36"/>
<rect x="827.867" y="120.39" stroke="#000000" stroke-miterlimit="10" width="37" height="37"/>
<rect x="483.867" y="10.39" stroke="#000000" stroke-miterlimit="10" width="50" height="38"/>
<rect x="460.867" y="10.39" stroke="#000000" stroke-miterlimit="10" width="36" height="38"/>
<rect x="312.867" y="915.39" stroke="#000000" stroke-miterlimit="10" width="37" height="37"/>
<rect x="680.867" y="84.39" stroke="#000000" stroke-miterlimit="10" width="37" height="36"/>
<rect x="385.867" y="48.39" stroke="#000000" stroke-miterlimit="10" width="36" height="36"/>
<rect x="348.867" y="84.39" stroke="#000000" stroke-miterlimit="10" width="37" height="36"/>
<rect x="412.867" y="48.39" stroke="#000000" stroke-miterlimit="10" width="48" height="36"/>
<rect x="299.867" y="120.39" stroke="#000000" stroke-miterlimit="10" width="49" height="37"/>
<rect x="275.867" y="120.39" stroke="#000000" stroke-miterlimit="10" width="37" height="37"/>
<rect x="239.867" y="842.39" stroke="#000000" stroke-miterlimit="10" width="37" height="36"/>
<rect x="790.867" y="120.39" stroke="#000000" stroke-miterlimit="10" width="46" height="37"/>
<rect x="533.867" y="48.39" stroke="#000000" stroke-miterlimit="10" width="36" height="36"/>
<rect x="238.867" y="157.39" stroke="#000000" stroke-miterlimit="10" width="37" height="36"/>
<rect x="201.867" y="193.39" stroke="#000000" stroke-miterlimit="10" width="37" height="36"/>
<rect x="165.867" y="229.39" stroke="#000000" stroke-miterlimit="10" width="36" height="38"/>
<rect x="239.867" y="805.39" stroke="#000000" stroke-miterlimit="10" width="37" height="37"/>
<rect x="845.867" y="120.39" stroke="#000000" stroke-miterlimit="10" width="55" height="37"/>
<rect x="937.867" y="157.39" stroke="#000000" stroke-miterlimit="10" width="36" height="36"/>
<rect x="888.867" y="120.39" stroke="#000000" stroke-miterlimit="10" width="49" height="37"/>
<rect x="1010.867" y="230.39" stroke="#000000" stroke-miterlimit="10" width="37" height="37"/>
<rect x="973.867" y="193.39" stroke="#000000" stroke-miterlimit="10" width="37" height="37"/>
<rect x="1035.867" y="230.39" stroke="#000000" stroke-miterlimit="10" width="50" height="37"/>
<rect x="276.867" y="878.39" stroke="#000000" stroke-miterlimit="10" width="36" height="37"/>
<rect x="755.867" y="953.39" stroke="#000000" stroke-miterlimit="10" width="37" height="36"/>
<rect x="717.867" y="988.39" stroke="#000000" stroke-miterlimit="10" width="37" height="36"/>
<rect x="680.867" y="988.39" stroke="#000000" stroke-miterlimit="10" width="37" height="36"/>
<rect x="643.867" y="1024.39" stroke="#000000" stroke-miterlimit="10" width="37" height="36"/>
<rect x="606.867" y="1024.39" stroke="#000000" stroke-miterlimit="10" width="37" height="36"/>
<rect x="570.867" y="1024.39" stroke="#000000" stroke-miterlimit="10" width="37" height="36"/>
<rect x="534.867" y="1024.39" stroke="#000000" stroke-miterlimit="10" width="37" height="36"/>
<rect x="497.867" y="988.39" stroke="#000000" stroke-miterlimit="10" width="37" height="36"/>
<rect x="460.867" y="988.39" stroke="#000000" stroke-miterlimit="10" width="37" height="36"/>
<rect x="423.867" y="988.39" stroke="#000000" stroke-miterlimit="10" width="37" height="36"/>
<rect x="386.867" y="988.39" stroke="#000000" stroke-miterlimit="10" width="37" height="36"/>
<rect x="349.867" y="952.39" stroke="#000000" stroke-miterlimit="10" width="37" height="36"/>
<rect x="1231.867" y="879.39" stroke="#000000" stroke-miterlimit="10" width="37" height="36"/>
<rect x="1382.867" y="303.39" stroke="#000000" stroke-miterlimit="10" width="37" height="36"/>
<rect x="1344.867" y="267.39" stroke="#000000" stroke-miterlimit="10" width="37" height="36"/>
<rect x="1307.867" y="267.39" stroke="#000000" stroke-miterlimit="10" width="37" height="36"/>
<rect x="1270.867" y="231.39" stroke="#000000" stroke-miterlimit="10" width="37" height="36"/>
<rect x="1233.867" y="195.39" stroke="#000000" stroke-miterlimit="10" width="37" height="36"/>
<rect x="1196.867" y="159.39" stroke="#000000" stroke-miterlimit="10" width="37" height="36"/>
<rect x="1159.867" y="159.39" stroke="#000000" stroke-miterlimit="10" width="37" height="36"/>
<rect x="1122.867" y="159.39" stroke="#000000" stroke-miterlimit="10" width="37" height="36"/>
<rect x="1085.867" y="195.39" stroke="#000000" stroke-miterlimit="10" width="37" height="36"/>
<rect x="128.867" y="267.39" stroke="#000000" stroke-miterlimit="10" width="37" height="36"/>
<rect x="791.867" y="953.39" stroke="#000000" stroke-miterlimit="10" width="37" height="36"/>
<rect x="862.867" y="953.39" stroke="#000000" stroke-miterlimit="10" width="37" height="36"/>
<rect x="643.867" y="48.39" stroke="#000000" stroke-miterlimit="10" width="37" height="36"/>
<rect x="606.867" y="84.39" stroke="#000000" stroke-miterlimit="10" width="37" height="36"/>
<rect x="569.867" y="84.39" stroke="#000000" stroke-miterlimit="10" width="37" height="36"/>
<rect x="1194.867" y="879.39" stroke="#000000" stroke-miterlimit="10" width="37" height="36"/>
<rect x="1157.867" y="915.39" stroke="#000000" stroke-miterlimit="10" width="37" height="36"/>
<rect x="1120.867" y="951.39" stroke="#000000" stroke-miterlimit="10" width="37" height="36"/>
<rect x="1083.867" y="951.39" stroke="#000000" stroke-miterlimit="10" width="37" height="36"/>
<rect x="1011.867" y="916.39" stroke="#000000" stroke-miterlimit="10" width="37" height="36"/>
<rect x="974.867" y="916.39" stroke="#000000" stroke-miterlimit="10" width="37" height="36"/>
<rect x="937.867" y="916.39" stroke="#000000" stroke-miterlimit="10" width="37" height="36"/>
<rect x="900.867" y="916.39" stroke="#000000" stroke-miterlimit="10" width="37" height="36"/>
<rect x="825.867" y="953.39" stroke="#000000" stroke-miterlimit="10" width="37" height="36"/>
<rect x="17.867" y="627.39" stroke="#000000" stroke-miterlimit="10" width="37" height="36"/>
<rect x="17.867" y="591.39" stroke="#000000" stroke-miterlimit="10" width="37" height="36"/>
<rect x="54.867" y="555.39" stroke="#000000" stroke-miterlimit="10" width="37" height="36"/>
<rect x="91.867" y="519.39" stroke="#000000" stroke-miterlimit="10" width="37" height="36"/>
<rect x="91.867" y="483.39" stroke="#000000" stroke-miterlimit="10" width="37" height="36"/>
<rect x="54.867" y="447.39" stroke="#000000" stroke-miterlimit="10" width="37" height="36"/>
<rect x="54.867" y="411.39" stroke="#000000" stroke-miterlimit="10" width="37" height="36"/>
<rect x="54.867" y="375.39" stroke="#000000" stroke-miterlimit="10" width="37" height="36"/>
<rect x="91.867" y="339.39" stroke="#000000" stroke-miterlimit="10" width="37" height="36"/>
<rect x="128.867" y="303.39" stroke="#000000" stroke-miterlimit="10" width="37" height="36"/>
<rect x="54.867" y="697.39" stroke="#000000" stroke-miterlimit="10" width="37" height="36"/>
<rect x="91.867" y="733.39" stroke="#000000" stroke-miterlimit="10" width="37" height="36"/>
<rect x="128.867" y="769.39" stroke="#000000" stroke-miterlimit="10" width="37" height="36"/>
<rect x="165.867" y="769.39" stroke="#000000" stroke-miterlimit="10" width="37" height="36"/>
<rect x="202.867" y="769.39" stroke="#000000" stroke-miterlimit="10" width="37" height="36"/>
<rect x="17.867" y="661.39" stroke="#000000" stroke-miterlimit="10" width="37" height="36"/>
<rect x="1566.867" y="483.39" stroke="#000000" stroke-miterlimit="10" width="37" height="36"/>
<rect x="1530.867" y="447.39" stroke="#000000" stroke-miterlimit="10" width="37" height="36"/>
<rect x="1493.867" y="411.39" stroke="#000000" stroke-miterlimit="10" width="37" height="36"/>
<rect x="1493.867" y="375.39" stroke="#000000" stroke-miterlimit="10" width="37" height="36"/>
<rect x="1456.867" y="339.39" stroke="#000000" stroke-miterlimit="10" width="37" height="36"/>
<rect x="1419.867" y="339.39" stroke="#000000" stroke-miterlimit="10" width="37" height="36"/>
<rect x="1492.867" y="591.39" stroke="#000000" stroke-miterlimit="10" width="37" height="36"/>
<rect x="1455.867" y="627.39" stroke="#000000" stroke-miterlimit="10" width="37" height="36"/>
<rect x="1418.867" y="627.39" stroke="#000000" stroke-miterlimit="10" width="37" height="36"/>
<rect x="1381.867" y="663.39" stroke="#000000" stroke-miterlimit="10" width="37" height="36"/>
<rect x="1566.867" y="519.39" stroke="#000000" stroke-miterlimit="10" width="37" height="36"/>
<rect x="1529.867" y="555.39" stroke="#000000" stroke-miterlimit="10" width="37" height="36"/>
<rect x="955.867" y="321.39" fill="#00AFE5" stroke="#00AFE5" stroke-miterlimit="10" width="45" height="36"/>
<rect x="275.867" y="699.39" fill="#00AFE5" stroke="#00AFE5" stroke-miterlimit="10" width="36" height="36"/>
<rect x="1136.867" y="393.39" fill="#00AFE5" stroke="#00AFE5" stroke-miterlimit="10" width="36" height="36"/>
<rect x="1100.867" y="393.39" fill="#00AFE5" stroke="#00AFE5" stroke-miterlimit="10" width="49" height="36"/>
<rect x="1028.867" y="321.39" fill="#00AFE5" stroke="#00AFE5" stroke-miterlimit="10" width="44" height="41"/>
<rect x="454.867" y="880.39" fill="#00AFE5" stroke="#00AFE5" stroke-miterlimit="10" width="36" height="36"/>
<rect x="1173.867" y="357.39" fill="#00AFE5" stroke="#00AFE5" stroke-miterlimit="10" width="36" height="36"/>
<rect x="418.867" y="843.39" fill="#00AFE5" stroke="#00AFE5" stroke-miterlimit="10" width="79" height="36"/>
<rect x="773.867" y="212.39" fill="#00AFE5" stroke="#00AFE5" stroke-miterlimit="10" width="36" height="36"/>
<rect x="809.867" y="212.39" fill="#00AFE5" stroke="#00AFE5" stroke-miterlimit="10" width="36" height="36"/>
<rect x="1064.867" y="321.39" fill="#00AFE5" stroke="#00AFE5" stroke-miterlimit="10" width="36" height="41"/>
<rect x="955.867" y="285.39" fill="#00AFE5" stroke="#00AFE5" stroke-miterlimit="10" width="36" height="46"/>
<rect x="919.867" y="285.39" fill="#00AFE5" stroke="#00AFE5" stroke-miterlimit="10" width="47" height="36"/>
<rect x="882.867" y="249.39" fill="#00AFE5" stroke="#00AFE5" stroke-miterlimit="10" width="36" height="36"/>
<rect x="846.867" y="249.39" fill="#00AFE5" stroke="#00AFE5" stroke-miterlimit="10" width="46" height="36"/>
<rect x="490.867" y="880.39" fill="#00AFE5" stroke="#00AFE5" stroke-miterlimit="10" width="36" height="36"/>
<rect x="992.867" y="321.39" fill="#00AFE5" stroke="#00AFE5" stroke-miterlimit="10" width="43" height="41"/>
<rect x="345.867" y="735.39" fill="#00AFE5" stroke="#00AFE5" stroke-miterlimit="10" width="36" height="36"/>
<rect x="381.867" y="771.39" fill="#00AFE5" stroke="#00AFE5" stroke-miterlimit="10" width="36" height="45"/>
<rect x="381.867" y="807.39" fill="#00AFE5" stroke="#00AFE5" stroke-miterlimit="10" width="42" height="36"/>
<rect x="598.867" y="843.39" fill="#00AFE5" stroke="#00AFE5" stroke-miterlimit="10" width="36" height="54"/>
<rect x="562.867" y="909.39" fill="#00AFE5" stroke="#00AFE5" stroke-miterlimit="10" width="36" height="43"/>
<rect x="526.867" y="916.39" fill="#00AFE5" stroke="#00AFE5" stroke-miterlimit="10" width="36" height="36"/>
<rect x="490.867" y="911.39" fill="#00AFE5" stroke="#00AFE5" stroke-miterlimit="10" width="90" height="41"/>
<rect x="454.867" y="843.39" fill="#00AFE5" stroke="#00AFE5" stroke-miterlimit="10" width="36" height="41"/>
<rect x="620.867" y="843.39" fill="#00AFE5" stroke="#00AFE5" stroke-miterlimit="10" width="159" height="36"/>
<rect x="707.867" y="843.39" fill="#00AFE5" stroke="#00AFE5" stroke-miterlimit="10" width="36" height="36"/>
<rect x="671.867" y="843.39" fill="#00AFE5" stroke="#00AFE5" stroke-miterlimit="10" width="36" height="36"/>
<rect x="635.867" y="843.39" fill="#00AFE5" stroke="#00AFE5" stroke-miterlimit="10" width="36" height="36"/>
<rect x="472.867" y="880.39" fill="#00AFE5" stroke="#00AFE5" stroke-miterlimit="10" width="162" height="36"/>
<rect x="562.867" y="880.39" fill="#00AFE5" stroke="#00AFE5" stroke-miterlimit="10" width="36" height="36"/>
<rect x="526.867" y="880.39" fill="#00AFE5" stroke="#00AFE5" stroke-miterlimit="10" width="36" height="36"/>
<rect x="809.867" y="806.39" fill="#00AFE5" stroke="#00AFE5" stroke-miterlimit="10" width="43" height="36"/>
<rect x="297.867" y="699.39" fill="#00AFE5" stroke="#00AFE5" stroke-miterlimit="10" width="48" height="36"/>
<rect x="418.867" y="807.39" fill="#00AFE5" stroke="#00AFE5" stroke-miterlimit="10" width="36" height="48"/>
<rect x="490.867" y="843.39" fill="#00AFE5" stroke="#00AFE5" stroke-miterlimit="10" width="36" height="41"/>
<rect x="780.867" y="806.39" fill="#00AFE5" stroke="#00AFE5" stroke-miterlimit="10" width="36" height="36"/>
<rect x="1028.867" y="357.39" fill="#00AFE5" stroke="#00AFE5" stroke-miterlimit="10" width="44" height="36"/>
<rect x="992.867" y="357.39" fill="#00AFE5" stroke="#00AFE5" stroke-miterlimit="10" width="43" height="36"/>
<rect x="1269.867" y="843.39" stroke="#000000" stroke-miterlimit="10" width="37" height="36"/>
<rect x="1307.867" y="807.39" stroke="#000000" stroke-miterlimit="10" width="37" height="36"/>
<rect x="1344.867" y="770.39" stroke="#000000" stroke-miterlimit="10" width="37" height="36"/>
<rect x="1344.867" y="734.39" stroke="#000000" stroke-miterlimit="10" width="37" height="36"/>
<rect x="1381.867" y="699.39" stroke="#000000" stroke-miterlimit="10" width="37" height="36"/>
<rect x="1064.867" y="357.39" fill="#00AFE5" stroke="#00AFE5" stroke-miterlimit="10" width="36" height="36"/>
<rect x="1046.867" y="916.39" stroke="#000000" stroke-miterlimit="10" width="37" height="36"/>
</svg>
