<?xml version="1.0" encoding="utf-8"?>
<!-- Generator: Adobe Illustrator 16.0.0, SVG Export Plug-In . SVG Version: 6.00 Build 0)  -->
<!DOCTYPE svg PUBLIC "-//W3C//DTD SVG 1.1//EN" "http://www.w3.org/Graphics/SVG/1.1/DTD/svg11.dtd">
<svg version="1.1" id="Layer_1" xmlns="http://www.w3.org/2000/svg" xmlns:xlink="http://www.w3.org/1999/xlink" x="0px" y="0px"
	 width="1880px" height="1152px" viewBox="0 0 1880 1152" enable-background="new 0 0 1880 1152" xml:space="preserve">
<rect x="913.5" y="121.5" stroke="#000000" stroke-miterlimit="10" width="42" height="36"/>
<rect x="940.5" y="121.5" stroke="#000000" stroke-miterlimit="10" width="52" height="36"/>
<rect x="1029.5" y="157.5" stroke="#000000" stroke-miterlimit="10" width="37" height="37"/>
<rect x="662.5" y="194.5" stroke="#000000" stroke-miterlimit="10" width="36" height="36"/>
<rect x="403.5" y="882.5" stroke="#000000" stroke-miterlimit="10" width="37" height="37"/>
<rect x="882.5" y="121.5" stroke="#000000" stroke-miterlimit="10" width="37" height="36"/>
<rect x="587.5" y="157.5" stroke="#000000" stroke-miterlimit="10" width="36" height="36"/>
<rect x="550.5" y="121.5" stroke="#000000" stroke-miterlimit="10" width="37" height="36"/>
<rect x="614.5" y="157.5" stroke="#000000" stroke-miterlimit="10" width="48" height="36"/>
<rect x="391.5" y="84.5" stroke="#000000" stroke-miterlimit="10" width="49" height="36"/>
<rect x="367.5" y="84.5" stroke="#000000" stroke-miterlimit="10" width="37" height="36"/>
<rect x="329.5" y="772.5" stroke="#000000" stroke-miterlimit="10" width="37" height="36"/>
<rect x="992.5" y="157.5" stroke="#000000" stroke-miterlimit="10" width="46" height="37"/>
<rect x="698.5" y="194.5" stroke="#000000" stroke-miterlimit="10" width="36" height="36"/>
<rect x="330.5" y="120.5" stroke="#000000" stroke-miterlimit="10" width="37" height="36"/>
<rect x="292.5" y="120.5" stroke="#000000" stroke-miterlimit="10" width="37" height="36"/>
<rect x="256.5" y="156.5" stroke="#000000" stroke-miterlimit="10" width="36" height="38"/>
<rect x="329.5" y="735.5" stroke="#000000" stroke-miterlimit="10" width="37" height="37"/>
<rect x="1047.5" y="157.5" stroke="#000000" stroke-miterlimit="10" width="55" height="37"/>
<rect x="1139.5" y="194.5" stroke="#000000" stroke-miterlimit="10" width="36" height="36"/>
<rect x="1090.5" y="157.5" stroke="#000000" stroke-miterlimit="10" width="49" height="37"/>
<rect x="1212.5" y="267.5" stroke="#000000" stroke-miterlimit="10" width="37" height="37"/>
<rect x="1175.5" y="230.5" stroke="#000000" stroke-miterlimit="10" width="37" height="37"/>
<rect x="1237.5" y="267.5" stroke="#000000" stroke-miterlimit="10" width="50" height="37"/>
<rect x="367.5" y="845.5" stroke="#000000" stroke-miterlimit="10" width="36" height="37"/>
<rect x="957.5" y="990.5" stroke="#000000" stroke-miterlimit="10" width="37" height="36"/>
<rect x="882.5" y="954.5" stroke="#000000" stroke-miterlimit="10" width="37" height="36"/>
<rect x="845.5" y="990.5" stroke="#000000" stroke-miterlimit="10" width="37" height="36"/>
<rect x="808.5" y="990.5" stroke="#000000" stroke-miterlimit="10" width="37" height="36"/>
<rect x="697.5" y="1062.5" stroke="#000000" stroke-miterlimit="10" width="37" height="36"/>
<rect x="661.5" y="1062.5" stroke="#000000" stroke-miterlimit="10" width="37" height="36"/>
<rect x="625.5" y="1062.5" stroke="#000000" stroke-miterlimit="10" width="37" height="36"/>
<rect x="588.5" y="1026.5" stroke="#000000" stroke-miterlimit="10" width="37" height="36"/>
<rect x="551.5" y="1026.5" stroke="#000000" stroke-miterlimit="10" width="37" height="36"/>
<rect x="514.5" y="1026.5" stroke="#000000" stroke-miterlimit="10" width="37" height="36"/>
<rect x="477.5" y="1026.5" stroke="#000000" stroke-miterlimit="10" width="37" height="36"/>
<rect x="440.5" y="990.5" stroke="#000000" stroke-miterlimit="10" width="37" height="36"/>
<rect x="1433.5" y="916.5" stroke="#000000" stroke-miterlimit="10" width="37" height="36"/>
<rect x="1584.5" y="340.5" stroke="#000000" stroke-miterlimit="10" width="37" height="36"/>
<rect x="1546.5" y="304.5" stroke="#000000" stroke-miterlimit="10" width="37" height="36"/>
<rect x="1509.5" y="304.5" stroke="#000000" stroke-miterlimit="10" width="37" height="36"/>
<rect x="1472.5" y="268.5" stroke="#000000" stroke-miterlimit="10" width="37" height="36"/>
<rect x="1435.5" y="232.5" stroke="#000000" stroke-miterlimit="10" width="37" height="36"/>
<rect x="1398.5" y="196.5" stroke="#000000" stroke-miterlimit="10" width="37" height="36"/>
<rect x="1361.5" y="196.5" stroke="#000000" stroke-miterlimit="10" width="37" height="36"/>
<rect x="1324.5" y="196.5" stroke="#000000" stroke-miterlimit="10" width="37" height="36"/>
<rect x="1287.5" y="232.5" stroke="#000000" stroke-miterlimit="10" width="37" height="36"/>
<rect x="219.5" y="194.5" stroke="#000000" stroke-miterlimit="10" width="37" height="36"/>
<rect x="993.5" y="990.5" stroke="#000000" stroke-miterlimit="10" width="37" height="36"/>
<rect x="1064.5" y="990.5" stroke="#000000" stroke-miterlimit="10" width="37" height="36"/>
<rect x="845.5" y="121.5" stroke="#000000" stroke-miterlimit="10" width="37" height="36"/>
<rect x="808.5" y="121.5" stroke="#000000" stroke-miterlimit="10" width="37" height="36"/>
<rect x="771.5" y="121.5" stroke="#000000" stroke-miterlimit="10" width="37" height="36"/>
<rect x="1396.5" y="916.5" stroke="#000000" stroke-miterlimit="10" width="37" height="36"/>
<rect x="1359.5" y="952.5" stroke="#000000" stroke-miterlimit="10" width="37" height="36"/>
<rect x="1322.5" y="988.5" stroke="#000000" stroke-miterlimit="10" width="37" height="36"/>
<rect x="1285.5" y="988.5" stroke="#000000" stroke-miterlimit="10" width="37" height="36"/>
<rect x="1213.5" y="953.5" stroke="#000000" stroke-miterlimit="10" width="37" height="36"/>
<rect x="1176.5" y="953.5" stroke="#000000" stroke-miterlimit="10" width="37" height="36"/>
<rect x="1139.5" y="953.5" stroke="#000000" stroke-miterlimit="10" width="37" height="36"/>
<rect x="1102.5" y="953.5" stroke="#000000" stroke-miterlimit="10" width="37" height="36"/>
<rect x="1027.5" y="990.5" stroke="#000000" stroke-miterlimit="10" width="37" height="36"/>
<rect x="182.5" y="410.5" stroke="#000000" stroke-miterlimit="10" width="37" height="36"/>
<rect x="145.5" y="374.5" stroke="#000000" stroke-miterlimit="10" width="37" height="36"/>
<rect x="145.5" y="338.5" stroke="#000000" stroke-miterlimit="10" width="37" height="36"/>
<rect x="145.5" y="302.5" stroke="#000000" stroke-miterlimit="10" width="37" height="36"/>
<rect x="182.5" y="266.5" stroke="#000000" stroke-miterlimit="10" width="37" height="36"/>
<rect x="219.5" y="230.5" stroke="#000000" stroke-miterlimit="10" width="37" height="36"/>
<rect x="255.5" y="626.5" stroke="#000000" stroke-miterlimit="10" width="37" height="36"/>
<rect x="255.5" y="662.5" stroke="#000000" stroke-miterlimit="10" width="37" height="36"/>
<rect x="292.5" y="698.5" stroke="#000000" stroke-miterlimit="10" width="37" height="36"/>
<rect x="734.5" y="1025.5" stroke="#000000" stroke-miterlimit="10" width="37" height="36"/>
<rect x="771.5" y="1025.5" stroke="#000000" stroke-miterlimit="10" width="37" height="36"/>
<rect x="1768.5" y="520.5" stroke="#000000" stroke-miterlimit="10" width="37" height="36"/>
<rect x="1732.5" y="484.5" stroke="#000000" stroke-miterlimit="10" width="37" height="36"/>
<rect x="1695.5" y="448.5" stroke="#000000" stroke-miterlimit="10" width="37" height="36"/>
<rect x="1695.5" y="412.5" stroke="#000000" stroke-miterlimit="10" width="37" height="36"/>
<rect x="1658.5" y="376.5" stroke="#000000" stroke-miterlimit="10" width="37" height="36"/>
<rect x="1621.5" y="376.5" stroke="#000000" stroke-miterlimit="10" width="37" height="36"/>
<rect x="1694.5" y="628.5" stroke="#000000" stroke-miterlimit="10" width="37" height="36"/>
<rect x="1657.5" y="664.5" stroke="#000000" stroke-miterlimit="10" width="37" height="36"/>
<rect x="1620.5" y="664.5" stroke="#000000" stroke-miterlimit="10" width="37" height="36"/>
<rect x="1583.5" y="700.5" stroke="#000000" stroke-miterlimit="10" width="37" height="36"/>
<rect x="1768.5" y="556.5" stroke="#000000" stroke-miterlimit="10" width="37" height="36"/>
<rect x="1731.5" y="592.5" stroke="#000000" stroke-miterlimit="10" width="37" height="36"/>
<rect x="1157.5" y="358.5" fill="#00AFE5" stroke="#00AFE5" stroke-miterlimit="10" width="36" height="36"/>
<rect x="1338.5" y="394.5" fill="#00AFE5" stroke="#00AFE5" stroke-miterlimit="10" width="36" height="36"/>
<rect x="1411.5" y="358.5" fill="#00AFE5" stroke="#00AFE5" stroke-miterlimit="10" width="36" height="36"/>
<rect x="1230.5" y="358.5" fill="#00AFE5" stroke="#00AFE5" stroke-miterlimit="10" width="36" height="36"/>
<rect x="546.5" y="881.5" fill="#00AFE5" stroke="#00AFE5" stroke-miterlimit="10" width="36" height="36"/>
<rect x="1375.5" y="394.5" fill="#00AFE5" stroke="#00AFE5" stroke-miterlimit="10" width="36" height="36"/>
<rect x="510.5" y="844.5" fill="#00AFE5" stroke="#00AFE5" stroke-miterlimit="10" width="36" height="36"/>
<rect x="974.5" y="286.5" fill="#00AFE5" stroke="#00AFE5" stroke-miterlimit="10" width="36" height="36"/>
<rect x="1011.5" y="286.5" fill="#00AFE5" stroke="#00AFE5" stroke-miterlimit="10" width="36" height="36"/>
<rect x="1302.5" y="394.5" fill="#00AFE5" stroke="#00AFE5" stroke-miterlimit="10" width="36" height="36"/>
<rect x="1157.5" y="322.5" fill="#00AFE5" stroke="#00AFE5" stroke-miterlimit="10" width="36" height="36"/>
<rect x="1121.5" y="322.5" fill="#00AFE5" stroke="#00AFE5" stroke-miterlimit="10" width="36" height="36"/>
<rect x="1084.5" y="286.5" fill="#00AFE5" stroke="#00AFE5" stroke-miterlimit="10" width="36" height="36"/>
<rect x="1048.5" y="286.5" fill="#00AFE5" stroke="#00AFE5" stroke-miterlimit="10" width="36" height="36"/>
<rect x="582.5" y="881.5" fill="#00AFE5" stroke="#00AFE5" stroke-miterlimit="10" width="36" height="36"/>
<rect x="1194.5" y="358.5" fill="#00AFE5" stroke="#00AFE5" stroke-miterlimit="10" width="36" height="36"/>
<rect x="473.5" y="735.5" fill="#00AFE5" stroke="#00AFE5" stroke-miterlimit="10" width="36" height="36"/>
<rect x="510.5" y="771.5" fill="#00AFE5" stroke="#00AFE5" stroke-miterlimit="10" width="36" height="36"/>
<rect x="690.5" y="844.5" fill="#00AFE5" stroke="#00AFE5" stroke-miterlimit="10" width="36" height="36"/>
<rect x="654.5" y="917.5" fill="#00AFE5" stroke="#00AFE5" stroke-miterlimit="10" width="36" height="36"/>
<rect x="618.5" y="917.5" fill="#00AFE5" stroke="#00AFE5" stroke-miterlimit="10" width="36" height="36"/>
<rect x="582.5" y="917.5" fill="#00AFE5" stroke="#00AFE5" stroke-miterlimit="10" width="36" height="36"/>
<rect x="546.5" y="844.5" fill="#00AFE5" stroke="#00AFE5" stroke-miterlimit="10" width="36" height="36"/>
<rect x="833.5" y="881.5" fill="#00AFE5" stroke="#00AFE5" stroke-miterlimit="10" width="36" height="36"/>
<rect x="797.5" y="881.5" fill="#00AFE5" stroke="#00AFE5" stroke-miterlimit="10" width="36" height="36"/>
<rect x="761.5" y="881.5" fill="#00AFE5" stroke="#00AFE5" stroke-miterlimit="10" width="36" height="36"/>
<rect x="726.5" y="844.5" fill="#00AFE5" stroke="#00AFE5" stroke-miterlimit="10" width="36" height="36"/>
<rect x="690.5" y="881.5" fill="#00AFE5" stroke="#00AFE5" stroke-miterlimit="10" width="36" height="36"/>
<rect x="654.5" y="881.5" fill="#00AFE5" stroke="#00AFE5" stroke-miterlimit="10" width="36" height="36"/>
<rect x="618.5" y="881.5" fill="#00AFE5" stroke="#00AFE5" stroke-miterlimit="10" width="36" height="36"/>
<rect x="906.5" y="844.5" fill="#00AFE5" stroke="#00AFE5" stroke-miterlimit="10" width="36" height="36"/>
<rect x="510.5" y="808.5" fill="#00AFE5" stroke="#00AFE5" stroke-miterlimit="10" width="36" height="36"/>
<rect x="582.5" y="844.5" fill="#00AFE5" stroke="#00AFE5" stroke-miterlimit="10" width="36" height="36"/>
<rect x="870.5" y="844.5" fill="#00AFE5" stroke="#00AFE5" stroke-miterlimit="10" width="36" height="36"/>
<rect x="1230.5" y="394.5" fill="#00AFE5" stroke="#00AFE5" stroke-miterlimit="10" width="36" height="36"/>
<rect x="1194.5" y="394.5" fill="#00AFE5" stroke="#00AFE5" stroke-miterlimit="10" width="36" height="36"/>
<rect x="1471.5" y="880.5" stroke="#000000" stroke-miterlimit="10" width="37" height="36"/>
<rect x="1509.5" y="844.5" stroke="#000000" stroke-miterlimit="10" width="37" height="36"/>
<rect x="1546.5" y="807.5" stroke="#000000" stroke-miterlimit="10" width="37" height="36"/>
<rect x="1546.5" y="771.5" stroke="#000000" stroke-miterlimit="10" width="37" height="36"/>
<rect x="1583.5" y="736.5" stroke="#000000" stroke-miterlimit="10" width="37" height="36"/>
<rect x="1266.5" y="394.5" fill="#00AFE5" stroke="#00AFE5" stroke-miterlimit="10" width="36" height="36"/>
<rect x="1248.5" y="953.5" stroke="#000000" stroke-miterlimit="10" width="37" height="36"/>
<rect x="219.5" y="446.5" stroke="#000000" stroke-miterlimit="10" width="37" height="36"/>
<rect x="292.5" y="590.5" stroke="#000000" stroke-miterlimit="10" width="37" height="36"/>
<rect x="292.5" y="554.5" stroke="#000000" stroke-miterlimit="10" width="37" height="36"/>
<rect x="255.5" y="518.5" stroke="#000000" stroke-miterlimit="10" width="37" height="36"/>
<rect x="255.5" y="482.5" stroke="#000000" stroke-miterlimit="10" width="37" height="36"/>
<rect x="513.5" y="84.5" stroke="#000000" stroke-miterlimit="10" width="37" height="36"/>
<rect x="476.5" y="84.5" stroke="#000000" stroke-miterlimit="10" width="37" height="36"/>
<rect x="439.5" y="84.5" stroke="#000000" stroke-miterlimit="10" width="37" height="36"/>
<rect x="329.5" y="809.5" stroke="#000000" stroke-miterlimit="10" width="37" height="36"/>
<rect x="919.5" y="954.5" stroke="#000000" stroke-miterlimit="10" width="37" height="36"/>
<rect x="403.5" y="954.5" stroke="#000000" stroke-miterlimit="10" width="37" height="36"/>
<rect x="403.5" y="917.5" stroke="#000000" stroke-miterlimit="10" width="37" height="37"/>
<rect x="735.5" y="157.5" stroke="#000000" stroke-miterlimit="10" width="36" height="36"/>
<rect x="1375.5" y="358.5" fill="#00AFE5" stroke="#00AFE5" stroke-miterlimit="10" width="36" height="36"/>
<rect x="1266.5" y="430.5" fill="#00AFE5" stroke="#00AFE5" stroke-miterlimit="10" width="36" height="36"/>
</svg>
