<?xml version="1.0" encoding="UTF-8" standalone="no"?>
<!-- Generator: Adobe Illustrator 16.0.0, SVG Export Plug-In . SVG Version: 6.00 Build 0)  -->

<svg
   xmlns:dc="http://purl.org/dc/elements/1.1/"
   xmlns:cc="http://creativecommons.org/ns#"
   xmlns:rdf="http://www.w3.org/1999/02/22-rdf-syntax-ns#"
   xmlns:svg="http://www.w3.org/2000/svg"
   xmlns="http://www.w3.org/2000/svg"
   xmlns:sodipodi="http://sodipodi.sourceforge.net/DTD/sodipodi-0.dtd"
   xmlns:inkscape="http://www.inkscape.org/namespaces/inkscape"
   version="1.1"
   id="Layer_1"
   x="0px"
   y="0px"
   width="1925.615px"
   height="1211.758px"
   viewBox="0 0 1925.615 1211.758"
   enable-background="new 0 0 1925.615 1211.758"
   xml:space="preserve"
   inkscape:version="0.48.4 r9939"
   sodipodi:docname="cloud2.svg"><metadata
     id="metadata319"><rdf:RDF><cc:Work
         rdf:about=""><dc:format>image/svg+xml</dc:format><dc:type
           rdf:resource="http://purl.org/dc/dcmitype/StillImage" /></cc:Work></rdf:RDF></metadata><defs
     id="defs317" /><sodipodi:namedview
     pagecolor="#ffffff"
     bordercolor="#666666"
     borderopacity="1"
     objecttolerance="10"
     gridtolerance="10"
     guidetolerance="10"
     inkscape:pageopacity="0"
     inkscape:pageshadow="2"
     inkscape:window-width="1535"
     inkscape:window-height="876"
     id="namedview315"
     showgrid="false"
     inkscape:zoom="0.15163987"
     inkscape:cx="962.8075"
     inkscape:cy="605.87903"
     inkscape:window-x="65"
     inkscape:window-y="24"
     inkscape:window-maximized="1"
     inkscape:current-layer="Layer_1" /><rect
     x="783.939"
     y="116.018"
     stroke="#000000"
     stroke-miterlimit="10"
     width="42"
     height="36"
     id="rect3" /><rect
     x="810.939"
     y="116.018"
     stroke="#000000"
     stroke-miterlimit="10"
     width="52"
     height="36"
     id="rect5" /><rect
     x="899.939"
     y="152.018"
     stroke="#000000"
     stroke-miterlimit="10"
     width="37"
     height="37"
     id="rect7" /><rect
     x="555.939"
     y="42.018"
     stroke="#000000"
     stroke-miterlimit="10"
     width="50"
     height="38"
     id="rect9" /><rect
     x="532.939"
     y="42.018"
     stroke="#000000"
     stroke-miterlimit="10"
     width="36"
     height="38"
     id="rect11" /><rect
     x="384.939"
     y="947.018"
     stroke="#000000"
     stroke-miterlimit="10"
     width="37"
     height="37"
     id="rect13" /><rect
     x="384.939"
     y="984.018"
     stroke="#000000"
     stroke-miterlimit="10"
     width="37"
     height="37"
     id="rect15" /><rect
     x="752.939"
     y="116.018"
     stroke="#000000"
     stroke-miterlimit="10"
     width="37"
     height="36"
     id="rect17" /><rect
     x="457.939"
     y="80.018"
     stroke="#000000"
     stroke-miterlimit="10"
     width="36"
     height="36"
     id="rect19" /><rect
     x="420.939"
     y="116.018"
     stroke="#000000"
     stroke-miterlimit="10"
     width="37"
     height="36"
     id="rect21" /><rect
     x="484.939"
     y="80.018"
     stroke="#000000"
     stroke-miterlimit="10"
     width="48"
     height="36"
     id="rect23" /><rect
     x="371.939"
     y="152.018"
     stroke="#000000"
     stroke-miterlimit="10"
     width="49"
     height="37"
     id="rect25" /><rect
     x="347.939"
     y="152.018"
     stroke="#000000"
     stroke-miterlimit="10"
     width="37"
     height="37"
     id="rect27" /><rect
     x="311.939"
     y="874.018"
     stroke="#000000"
     stroke-miterlimit="10"
     width="37"
     height="36"
     id="rect29" /><rect
     x="862.939"
     y="152.018"
     stroke="#000000"
     stroke-miterlimit="10"
     width="46"
     height="37"
     id="rect31" /><rect
     x="605.939"
     y="80.018"
     stroke="#000000"
     stroke-miterlimit="10"
     width="36"
     height="36"
     id="rect33" /><rect
     x="310.939"
     y="189.018"
     stroke="#000000"
     stroke-miterlimit="10"
     width="37"
     height="36"
     id="rect35" /><rect
     x="273.939"
     y="225.018"
     stroke="#000000"
     stroke-miterlimit="10"
     width="37"
     height="36"
     id="rect37" /><rect
     x="237.939"
     y="261.018"
     stroke="#000000"
     stroke-miterlimit="10"
     width="36"
     height="38"
     id="rect39" /><rect
     x="311.939"
     y="837.018"
     stroke="#000000"
     stroke-miterlimit="10"
     width="37"
     height="37"
     id="rect41" /><rect
     x="917.939"
     y="152.018"
     stroke="#000000"
     stroke-miterlimit="10"
     width="55"
     height="37"
     id="rect43" /><rect
     x="1009.939"
     y="189.018"
     stroke="#000000"
     stroke-miterlimit="10"
     width="36"
     height="36"
     id="rect45" /><rect
     x="960.939"
     y="152.018"
     stroke="#000000"
     stroke-miterlimit="10"
     width="49"
     height="37"
     id="rect47" /><rect
     x="1082.939"
     y="262.018"
     stroke="#000000"
     stroke-miterlimit="10"
     width="37"
     height="37"
     id="rect49" /><rect
     x="1045.939"
     y="225.018"
     stroke="#000000"
     stroke-miterlimit="10"
     width="37"
     height="37"
     id="rect51" /><rect
     x="1107.939"
     y="262.018"
     stroke="#000000"
     stroke-miterlimit="10"
     width="50"
     height="37"
     id="rect53" /><rect
     x="348.939"
     y="910.018"
     stroke="#000000"
     stroke-miterlimit="10"
     width="36"
     height="37"
     id="rect55" /><rect
     x="863.939"
     y="1055.018"
     stroke="#000000"
     stroke-miterlimit="10"
     width="37"
     height="36"
     id="rect57" /><rect
     x="826.939"
     y="1091.018"
     stroke="#000000"
     stroke-miterlimit="10"
     width="37"
     height="36"
     id="rect59" /><rect
     x="789.939"
     y="1091.018"
     stroke="#000000"
     stroke-miterlimit="10"
     width="37"
     height="36"
     id="rect61" /><rect
     x="752.939"
     y="1127.018"
     stroke="#000000"
     stroke-miterlimit="10"
     width="37"
     height="36"
     id="rect63" /><rect
     x="715.939"
     y="1127.018"
     stroke="#000000"
     stroke-miterlimit="10"
     width="37"
     height="36"
     id="rect65" /><rect
     x="679.939"
     y="1127.018"
     stroke="#000000"
     stroke-miterlimit="10"
     width="37"
     height="36"
     id="rect67" /><rect
     x="643.939"
     y="1127.018"
     stroke="#000000"
     stroke-miterlimit="10"
     width="37"
     height="36"
     id="rect69" /><rect
     x="606.939"
     y="1093.018"
     stroke="#000000"
     stroke-miterlimit="10"
     width="37"
     height="36"
     id="rect71" /><rect
     x="569.939"
     y="1093.018"
     stroke="#000000"
     stroke-miterlimit="10"
     width="37"
     height="36"
     id="rect73" /><rect
     x="532.939"
     y="1093.018"
     stroke="#000000"
     stroke-miterlimit="10"
     width="37"
     height="36"
     id="rect75" /><rect
     x="495.939"
     y="1093.018"
     stroke="#000000"
     stroke-miterlimit="10"
     width="37"
     height="36"
     id="rect77" /><rect
     x="458.939"
     y="1057.018"
     stroke="#000000"
     stroke-miterlimit="10"
     width="37"
     height="36"
     id="rect79" /><rect
     x="421.939"
     y="1021.018"
     stroke="#000000"
     stroke-miterlimit="10"
     width="37"
     height="36"
     id="rect81" /><rect
     x="1377.939"
     y="947.018"
     stroke="#000000"
     stroke-miterlimit="10"
     width="37"
     height="36"
     id="rect83" /><rect
     x="1340.939"
     y="911.018"
     stroke="#000000"
     stroke-miterlimit="10"
     width="37"
     height="36"
     id="rect85" /><rect
     x="1303.939"
     y="911.018"
     stroke="#000000"
     stroke-miterlimit="10"
     width="37"
     height="36"
     id="rect87" /><rect
     x="1674.939"
     y="443.018"
     stroke="#000000"
     stroke-miterlimit="10"
     width="37"
     height="36"
     id="rect89" /><rect
     x="1637.939"
     y="407.018"
     stroke="#000000"
     stroke-miterlimit="10"
     width="37"
     height="36"
     id="rect91" /><rect
     x="1600.939"
     y="407.018"
     stroke="#000000"
     stroke-miterlimit="10"
     width="37"
     height="36"
     id="rect93" /><rect
     x="1563.939"
     y="407.018"
     stroke="#000000"
     stroke-miterlimit="10"
     width="37"
     height="36"
     id="rect95" /><rect
     x="1527.939"
     y="407.018"
     stroke="#000000"
     stroke-miterlimit="10"
     width="37"
     height="36"
     id="rect97" /><rect
     x="1490.939"
     y="371.018"
     stroke="#000000"
     stroke-miterlimit="10"
     width="37"
     height="36"
     id="rect99" /><rect
     x="1490.939"
     y="335.018"
     stroke="#000000"
     stroke-miterlimit="10"
     width="37"
     height="36"
     id="rect101" /><rect
     x="1416.939"
     y="299.018"
     stroke="#000000"
     stroke-miterlimit="10"
     width="37"
     height="36"
     id="rect103" /><rect
     x="1379.939"
     y="299.018"
     stroke="#000000"
     stroke-miterlimit="10"
     width="37"
     height="36"
     id="rect105" /><rect
     x="1342.939"
     y="263.018"
     stroke="#000000"
     stroke-miterlimit="10"
     width="37"
     height="36"
     id="rect107" /><rect
     x="1305.939"
     y="227.018"
     stroke="#000000"
     stroke-miterlimit="10"
     width="37"
     height="36"
     id="rect109" /><rect
     x="1268.939"
     y="191.018"
     stroke="#000000"
     stroke-miterlimit="10"
     width="37"
     height="36"
     id="rect111" /><rect
     x="1231.939"
     y="191.018"
     stroke="#000000"
     stroke-miterlimit="10"
     width="37"
     height="36"
     id="rect113" /><rect
     x="1194.939"
     y="191.018"
     stroke="#000000"
     stroke-miterlimit="10"
     width="37"
     height="36"
     id="rect115" /><rect
     x="1157.939"
     y="227.018"
     stroke="#000000"
     stroke-miterlimit="10"
     width="37"
     height="36"
     id="rect117" /><rect
     x="200.939"
     y="299.018"
     stroke="#000000"
     stroke-miterlimit="10"
     width="37"
     height="36"
     id="rect119" /><rect
     x="899.939"
     y="1055.018"
     stroke="#000000"
     stroke-miterlimit="10"
     width="37"
     height="36"
     id="rect121" /><rect
     x="970.939"
     y="1055.018"
     stroke="#000000"
     stroke-miterlimit="10"
     width="37"
     height="36"
     id="rect123" /><rect
     x="715.939"
     y="80.018"
     stroke="#000000"
     stroke-miterlimit="10"
     width="37"
     height="36"
     id="rect125" /><rect
     x="678.939"
     y="116.018"
     stroke="#000000"
     stroke-miterlimit="10"
     width="37"
     height="36"
     id="rect127" /><rect
     x="641.939"
     y="116.018"
     stroke="#000000"
     stroke-miterlimit="10"
     width="37"
     height="36"
     id="rect129" /><rect
     x="1266.939"
     y="911.018"
     stroke="#000000"
     stroke-miterlimit="10"
     width="37"
     height="36"
     id="rect131" /><rect
     x="1229.939"
     y="947.018"
     stroke="#000000"
     stroke-miterlimit="10"
     width="37"
     height="36"
     id="rect133" /><rect
     x="1192.939"
     y="983.018"
     stroke="#000000"
     stroke-miterlimit="10"
     width="37"
     height="36"
     id="rect135" /><rect
     x="1155.939"
     y="983.018"
     stroke="#000000"
     stroke-miterlimit="10"
     width="37"
     height="36"
     id="rect137" /><rect
     x="1118.939"
     y="1019.018"
     stroke="#000000"
     stroke-miterlimit="10"
     width="37"
     height="36"
     id="rect139" /><rect
     x="1081.939"
     y="1019.018"
     stroke="#000000"
     stroke-miterlimit="10"
     width="37"
     height="36"
     id="rect141" /><rect
     x="1044.939"
     y="1019.018"
     stroke="#000000"
     stroke-miterlimit="10"
     width="37"
     height="36"
     id="rect143" /><rect
     x="1007.939"
     y="1019.018"
     stroke="#000000"
     stroke-miterlimit="10"
     width="37"
     height="36"
     id="rect145" /><rect
     x="933.939"
     y="1055.018"
     stroke="#000000"
     stroke-miterlimit="10"
     width="37"
     height="36"
     id="rect147" /><rect
     x="89.939"
     y="659.018"
     stroke="#000000"
     stroke-miterlimit="10"
     width="37"
     height="36"
     id="rect149" /><rect
     x="89.939"
     y="623.018"
     stroke="#000000"
     stroke-miterlimit="10"
     width="37"
     height="36"
     id="rect151" /><rect
     x="126.939"
     y="587.018"
     stroke="#000000"
     stroke-miterlimit="10"
     width="37"
     height="36"
     id="rect153" /><rect
     x="163.939"
     y="551.018"
     stroke="#000000"
     stroke-miterlimit="10"
     width="37"
     height="36"
     id="rect155" /><rect
     x="163.939"
     y="515.018"
     stroke="#000000"
     stroke-miterlimit="10"
     width="37"
     height="36"
     id="rect157" /><rect
     x="126.939"
     y="479.018"
     stroke="#000000"
     stroke-miterlimit="10"
     width="37"
     height="36"
     id="rect159" /><rect
     x="126.939"
     y="443.018"
     stroke="#000000"
     stroke-miterlimit="10"
     width="37"
     height="36"
     id="rect161" /><rect
     x="126.939"
     y="407.018"
     stroke="#000000"
     stroke-miterlimit="10"
     width="37"
     height="36"
     id="rect163" /><rect
     x="163.939"
     y="371.018"
     stroke="#000000"
     stroke-miterlimit="10"
     width="37"
     height="36"
     id="rect165" /><rect
     x="200.939"
     y="335.018"
     stroke="#000000"
     stroke-miterlimit="10"
     width="37"
     height="36"
     id="rect167" /><rect
     x="126.939"
     y="729.018"
     stroke="#000000"
     stroke-miterlimit="10"
     width="37"
     height="36"
     id="rect169" /><rect
     x="163.939"
     y="765.018"
     stroke="#000000"
     stroke-miterlimit="10"
     width="37"
     height="36"
     id="rect171" /><rect
     x="200.939"
     y="801.018"
     stroke="#000000"
     stroke-miterlimit="10"
     width="37"
     height="36"
     id="rect173" /><rect
     x="237.939"
     y="801.018"
     stroke="#000000"
     stroke-miterlimit="10"
     width="37"
     height="36"
     id="rect175" /><rect
     x="274.939"
     y="801.018"
     stroke="#000000"
     stroke-miterlimit="10"
     width="37"
     height="36"
     id="rect177" /><rect
     x="89.939"
     y="693.018"
     stroke="#000000"
     stroke-miterlimit="10"
     width="37"
     height="36"
     id="rect179" /><rect
     x="1858.939"
     y="623.018"
     stroke="#000000"
     stroke-miterlimit="10"
     width="37"
     height="36"
     id="rect181" /><rect
     x="1822.939"
     y="587.018"
     stroke="#000000"
     stroke-miterlimit="10"
     width="37"
     height="36"
     id="rect183" /><rect
     x="1785.939"
     y="551.018"
     stroke="#000000"
     stroke-miterlimit="10"
     width="37"
     height="36"
     id="rect185" /><rect
     x="1785.939"
     y="515.018"
     stroke="#000000"
     stroke-miterlimit="10"
     width="37"
     height="36"
     id="rect187" /><rect
     x="1748.939"
     y="479.018"
     stroke="#000000"
     stroke-miterlimit="10"
     width="37"
     height="36"
     id="rect189" /><rect
     x="1711.939"
     y="479.018"
     stroke="#000000"
     stroke-miterlimit="10"
     width="37"
     height="36"
     id="rect191" /><rect
     x="1784.939"
     y="731.018"
     stroke="#000000"
     stroke-miterlimit="10"
     width="37"
     height="36"
     id="rect193" /><rect
     x="1747.939"
     y="767.018"
     stroke="#000000"
     stroke-miterlimit="10"
     width="37"
     height="36"
     id="rect195" /><rect
     x="1710.939"
     y="767.018"
     stroke="#000000"
     stroke-miterlimit="10"
     width="37"
     height="36"
     id="rect197" /><rect
     x="1673.939"
     y="803.018"
     stroke="#000000"
     stroke-miterlimit="10"
     width="37"
     height="36"
     id="rect199" /><rect
     x="1636.939"
     y="839.018"
     stroke="#000000"
     stroke-miterlimit="10"
     width="37"
     height="36"
     id="rect201" /><rect
     x="1599.939"
     y="839.018"
     stroke="#000000"
     stroke-miterlimit="10"
     width="37"
     height="36"
     id="rect203" /><rect
     x="1562.939"
     y="875.018"
     stroke="#000000"
     stroke-miterlimit="10"
     width="37"
     height="36"
     id="rect205" /><rect
     x="1525.939"
     y="911.018"
     stroke="#000000"
     stroke-miterlimit="10"
     width="37"
     height="36"
     id="rect207" /><rect
     x="1488.939"
     y="911.018"
     stroke="#000000"
     stroke-miterlimit="10"
     width="37"
     height="36"
     id="rect209" /><rect
     x="1451.939"
     y="911.018"
     stroke="#000000"
     stroke-miterlimit="10"
     width="37"
     height="36"
     id="rect211" /><rect
     x="1414.939"
     y="947.018"
     stroke="#000000"
     stroke-miterlimit="10"
     width="37"
     height="36"
     id="rect213" /><rect
     x="1858.939"
     y="659.018"
     stroke="#000000"
     stroke-miterlimit="10"
     width="37"
     height="36"
     id="rect215" /><rect
     x="1821.939"
     y="695.018"
     stroke="#000000"
     stroke-miterlimit="10"
     width="37"
     height="36"
     id="rect217" /><rect
     x="1027.939"
     y="353.018"
     fill="#00AFE5"
     stroke="#00AFE5"
     stroke-miterlimit="10"
     width="47"
     height="36"
     id="rect219" /><rect
     x="347.939"
     y="731.018"
     fill="#00AFE5"
     stroke="#00AFE5"
     stroke-miterlimit="10"
     width="36"
     height="36"
     id="rect221" /><rect
     x="1139.939"
     y="876.018"
     fill="#00AFE5"
     stroke="#00AFE5"
     stroke-miterlimit="10"
     width="36"
     height="36"
     id="rect223" /><rect
     x="1103.939"
     y="876.018"
     fill="#00AFE5"
     stroke="#00AFE5"
     stroke-miterlimit="10"
     width="36"
     height="36"
     id="rect225" /><rect
     x="1067.939"
     y="912.018"
     fill="#00AFE5"
     stroke="#00AFE5"
     stroke-miterlimit="10"
     width="36"
     height="36"
     id="rect227" /><rect
     x="995.939"
     y="912.018"
     fill="#00AFE5"
     stroke="#00AFE5"
     stroke-miterlimit="10"
     width="36"
     height="36"
     id="rect229" /><rect
     x="1244.939"
     y="317.018"
     fill="#00AFE5"
     stroke="#00AFE5"
     stroke-miterlimit="10"
     width="36"
     height="36"
     id="rect231" /><rect
     x="1208.939"
     y="317.018"
     fill="#00AFE5"
     stroke="#00AFE5"
     stroke-miterlimit="10"
     width="36"
     height="36"
     id="rect233" /><rect
     x="1100.939"
     y="353.018"
     fill="#00AFE5"
     stroke="#00AFE5"
     stroke-miterlimit="10"
     width="36"
     height="36"
     id="rect235" /><rect
     x="526.939"
     y="912.018"
     fill="#00AFE5"
     stroke="#00AFE5"
     stroke-miterlimit="10"
     width="36"
     height="36"
     id="rect237" /><rect
     x="1172.939"
     y="353.018"
     fill="#00AFE5"
     stroke="#00AFE5"
     stroke-miterlimit="10"
     width="36"
     height="36"
     id="rect239" /><rect
     x="490.939"
     y="875.018"
     fill="#00AFE5"
     stroke="#00AFE5"
     stroke-miterlimit="10"
     width="36"
     height="36"
     id="rect241" /><rect
     x="845.939"
     y="244.018"
     fill="#00AFE5"
     stroke="#00AFE5"
     stroke-miterlimit="10"
     width="36"
     height="36"
     id="rect243" /><rect
     x="881.939"
     y="244.018"
     fill="#00AFE5"
     stroke="#00AFE5"
     stroke-miterlimit="10"
     width="36"
     height="36"
     id="rect245" /><rect
     x="1136.939"
     y="353.018"
     fill="#00AFE5"
     stroke="#00AFE5"
     stroke-miterlimit="10"
     width="36"
     height="36"
     id="rect247" /><rect
     x="1027.939"
     y="317.018"
     fill="#00AFE5"
     stroke="#00AFE5"
     stroke-miterlimit="10"
     width="36"
     height="36"
     id="rect249" /><rect
     x="991.939"
     y="317.018"
     fill="#00AFE5"
     stroke="#00AFE5"
     stroke-miterlimit="10"
     width="36"
     height="36"
     id="rect251" /><rect
     x="954.939"
     y="281.018"
     fill="#00AFE5"
     stroke="#00AFE5"
     stroke-miterlimit="10"
     width="36"
     height="36"
     id="rect253" /><rect
     x="918.939"
     y="281.018"
     fill="#00AFE5"
     stroke="#00AFE5"
     stroke-miterlimit="10"
     width="36"
     height="36"
     id="rect255" /><rect
     x="562.939"
     y="912.018"
     fill="#00AFE5"
     stroke="#00AFE5"
     stroke-miterlimit="10"
     width="36"
     height="36"
     id="rect257" /><rect
     x="1064.939"
     y="353.018"
     fill="#00AFE5"
     stroke="#00AFE5"
     stroke-miterlimit="10"
     width="36"
     height="36"
     id="rect259" /><rect
     x="417.939"
     y="767.018"
     fill="#00AFE5"
     stroke="#00AFE5"
     stroke-miterlimit="10"
     width="36"
     height="36"
     id="rect261" /><rect
     x="453.939"
     y="803.018"
     fill="#00AFE5"
     stroke="#00AFE5"
     stroke-miterlimit="10"
     width="36"
     height="36"
     id="rect263" /><rect
     x="453.939"
     y="839.018"
     fill="#00AFE5"
     stroke="#00AFE5"
     stroke-miterlimit="10"
     width="36"
     height="36"
     id="rect265" /><rect
     x="670.939"
     y="948.018"
     fill="#00AFE5"
     stroke="#00AFE5"
     stroke-miterlimit="10"
     width="36"
     height="36"
     id="rect267" /><rect
     x="634.939"
     y="948.018"
     fill="#00AFE5"
     stroke="#00AFE5"
     stroke-miterlimit="10"
     width="36"
     height="36"
     id="rect269" /><rect
     x="598.939"
     y="948.018"
     fill="#00AFE5"
     stroke="#00AFE5"
     stroke-miterlimit="10"
     width="36"
     height="36"
     id="rect271" /><rect
     x="562.939"
     y="948.018"
     fill="#00AFE5"
     stroke="#00AFE5"
     stroke-miterlimit="10"
     width="36"
     height="36"
     id="rect273" /><rect
     x="526.939"
     y="875.018"
     fill="#00AFE5"
     stroke="#00AFE5"
     stroke-miterlimit="10"
     width="36"
     height="36"
     id="rect275" /><rect
     x="814.939"
     y="912.018"
     fill="#00AFE5"
     stroke="#00AFE5"
     stroke-miterlimit="10"
     width="36"
     height="36"
     id="rect277" /><rect
     x="778.939"
     y="912.018"
     fill="#00AFE5"
     stroke="#00AFE5"
     stroke-miterlimit="10"
     width="36"
     height="36"
     id="rect279" /><rect
     x="742.939"
     y="912.018"
     fill="#00AFE5"
     stroke="#00AFE5"
     stroke-miterlimit="10"
     width="36"
     height="36"
     id="rect281" /><rect
     x="706.939"
     y="912.018"
     fill="#00AFE5"
     stroke="#00AFE5"
     stroke-miterlimit="10"
     width="36"
     height="36"
     id="rect283" /><rect
     x="670.939"
     y="912.018"
     fill="#00AFE5"
     stroke="#00AFE5"
     stroke-miterlimit="10"
     width="36"
     height="36"
     id="rect285" /><rect
     x="634.939"
     y="912.018"
     fill="#00AFE5"
     stroke="#00AFE5"
     stroke-miterlimit="10"
     width="36"
     height="36"
     id="rect287" /><rect
     x="598.939"
     y="912.018"
     fill="#00AFE5"
     stroke="#00AFE5"
     stroke-miterlimit="10"
     width="36"
     height="36"
     id="rect289" /><rect
     x="959.939"
     y="875.018"
     fill="#00AFE5"
     stroke="#00AFE5"
     stroke-miterlimit="10"
     width="36"
     height="36"
     id="rect291" /><rect
     x="923.939"
     y="839.018"
     fill="#00AFE5"
     stroke="#00AFE5"
     stroke-miterlimit="10"
     width="36"
     height="36"
     id="rect293" /><rect
     x="887.939"
     y="875.018"
     fill="#00AFE5"
     stroke="#00AFE5"
     stroke-miterlimit="10"
     width="36"
     height="36"
     id="rect295" /><rect
     x="381.939"
     y="731.018"
     fill="#00AFE5"
     stroke="#00AFE5"
     stroke-miterlimit="10"
     width="36"
     height="36"
     id="rect297" /><rect
     x="476.939"
     y="839.018"
     fill="#00AFE5"
     stroke="#00AFE5"
     stroke-miterlimit="10"
     width="50"
     height="36"
     id="rect299" /><rect
     x="562.939"
     y="875.018"
     fill="#00AFE5"
     stroke="#00AFE5"
     stroke-miterlimit="10"
     width="36"
     height="36"
     id="rect301" /><rect
     x="851.939"
     y="875.018"
     fill="#00AFE5"
     stroke="#00AFE5"
     stroke-miterlimit="10"
     width="36"
     height="36"
     id="rect303" /><rect
     x="1031.939"
     y="912.018"
     fill="#00AFE5"
     stroke="#00AFE5"
     stroke-miterlimit="10"
     width="36"
     height="36"
     id="rect305" /><rect
     x="1139.939"
     y="389.018"
     fill="#00AFE5"
     stroke="#00AFE5"
     stroke-miterlimit="10"
     width="36"
     height="36"
     id="rect307" /><rect
     x="1103.939"
     y="389.018"
     fill="#00AFE5"
     stroke="#00AFE5"
     stroke-miterlimit="10"
     width="36"
     height="36"
     id="rect309" /><rect
     x="1067.939"
     y="389.018"
     fill="#00AFE5"
     stroke="#00AFE5"
     stroke-miterlimit="10"
     width="36"
     height="36"
     id="rect311" /><rect
     x="1453.939"
     y="299.018"
     stroke="#000000"
     stroke-miterlimit="10"
     width="37"
     height="36"
     id="rect313" /><path
     style="fill:#ffffff;stroke:#000000;stroke-width:32.97285843;stroke-linecap:butt;stroke-linejoin:round;stroke-miterlimit:4;stroke-opacity:0;stroke-dasharray:none"
     d="m 646.26804,1109.0449 0,-16.4865 -72.54029,0 -72.54029,0 0,-19.7837 c 0,-17.5855 -2.19819,-19.7837 -19.78371,-19.7837 -16.70625,0 -19.78372,-2.5646 -19.78372,-16.4864 0,-13.1892 -3.29728,-16.4865 -16.48643,-16.4865 -15.7537,0 -16.48643,-1.7585 -16.48643,-39.56739 0,-39.56743 0,-39.56743 -19.78371,-39.56743 -16.70625,0 -19.78372,-2.56456 -19.78372,-16.48643 0,-13.92187 -3.07747,-16.48643 -19.78371,-16.48643 -19.58388,0 -19.78372,-0.36666 -19.78372,-36.27014 0,-34.29178 -0.89926,-36.27015 -16.48643,-36.27015 -13.92187,0 -16.48643,-3.07749 -16.48643,-19.78372 l 0,-19.78371 -56.05386,0 c -55.3944,0 -56.05386,-0.19395 -56.05386,-16.48643 0,-13.92187 -3.07747,-16.48643 -19.78372,-16.48643 -17.58552,0 -19.78371,-2.19817 -19.78371,-19.78372 0,-16.70624 -2.56456,-19.78371 -16.48643,-19.78371 -16.12007,0 -16.48643,-1.0991 -16.48643,-49.45929 0,-48.36019 0.36636,-49.45929 16.48643,-49.45929 13.18914,0 16.48643,-3.29729 16.48643,-16.48643 0,-13.92187 3.07746,-16.48643 19.78371,-16.48643 19.78372,0 19.78372,0 19.78372,-39.56743 0,-39.56743 0,-39.56743 -19.78372,-39.56743 l -19.78371,0 0,-49.45929 0,-49.45929 19.78371,0 c 17.58553,0 19.78372,-2.19819 19.78372,-19.78372 0,-17.58552 2.19819,-19.78371 19.78371,-19.78371 19.58388,0 19.78372,-0.3664 19.78372,-36.27015 0,-34.29177 0.89926,-36.27014 16.48643,-36.27014 13.92187,0 16.48643,-3.07747 16.48643,-19.78372 0,-17.58553 2.19819,-19.78371 19.78371,-19.78371 16.70625,0 19.78372,-2.56456 19.78372,-16.48643 0,-13.18915 3.29729,-16.48643 16.48643,-16.48643 13.18914,0 16.48643,-3.29729 16.48643,-16.48643 0,-15.58717 1.97837,-16.48643 36.27015,-16.48643 35.90377,0 36.27014,-0.19982 36.27014,-19.78372 0,-17.58553 2.19819,-19.78371 19.78372,-19.78371 17.58552,0 19.78371,-2.19819 19.78371,-19.78372 0,-19.58388 0.3664,-19.78372 36.27015,-19.78372 34.29177,0 36.27014,-0.89926 36.27014,-16.48643 0,-15.387329 2.19819,-16.486425 32.97286,-16.486425 30.77467,0 32.97286,1.099096 32.97286,16.486425 0,13.92188 3.07747,16.48643 19.78372,16.48643 17.58552,0 19.78371,2.19819 19.78371,19.78372 0,19.78372 0,19.78372 39.56743,19.78372 39.56744,0 39.56744,0 39.56744,-19.78372 0,-16.70625 2.56455,-19.78372 16.48643,-19.78372 13.92187,0 16.48642,3.07747 16.48642,19.78372 l 0,19.78372 52.75658,0 52.75657,0 0,19.78371 0,19.78372 75.83758,0 75.83758,0 0,16.48643 c 0,13.18914 3.2973,16.48643 16.4864,16.48643 13.9219,0 16.4865,3.07747 16.4865,19.78371 0,17.58553 2.1981,19.78372 19.7837,19.78372 16.7062,0 19.7837,2.56455 19.7837,16.48643 0,15.7537 1.7586,16.48643 39.5674,16.48643 37.8089,0 39.5675,-0.73273 39.5675,-16.48643 0,-13.92188 3.0774,-16.48643 19.7837,-16.48643 17.5855,0 19.7837,-2.19819 19.7837,-19.78372 l 0,-19.78371 49.4593,0 49.4593,0 0,19.78371 c 0,17.58553 2.1981,19.78372 19.7837,19.78372 16.7062,0 19.7837,2.56455 19.7837,16.48643 0,13.92187 3.0775,16.48643 19.7837,16.48643 17.5856,0 19.7837,2.19819 19.7837,19.78371 l 0,19.78372 56.0539,0 56.0538,0 0,36.27014 c 0,34.29178 0.8993,36.27015 16.4865,36.27015 13.1891,0 16.4864,3.29729 16.4864,16.48643 l 0,16.48643 72.1023,0 72.1023,0 2.0866,18.13507 c 1.639,14.24407 5.9777,18.58279 20.2217,20.22174 14.2441,1.63896 18.1351,5.52997 18.1351,18.13507 0,15.05624 2.2424,16.04841 36.2702,16.04841 l 36.2701,0 0,36.27014 c 0,35.90378 0.1998,36.27015 19.7837,36.27015 16.7063,0 19.7837,2.56456 19.7837,16.48643 0,13.18914 3.2973,16.48643 16.4865,16.48643 15.3873,0 16.4864,2.19819 16.4864,32.97286 0,30.77467 -1.0991,32.97286 -16.4864,32.97286 -13.9219,0 -16.4865,3.07747 -16.4865,19.78371 0,17.58553 -2.1981,19.78372 -19.7837,19.78372 -16.7062,0 -19.7837,2.56456 -19.7837,16.48643 0,15.58719 -1.9784,16.48643 -36.2701,16.48643 -35.9038,0 -36.2702,0.19981 -36.2702,19.78371 0,17.58555 -2.1982,19.78372 -19.7837,19.78372 -16.7062,0 -19.7837,2.56456 -19.7837,16.48643 0,15.58719 -1.9784,16.48643 -36.2702,16.48643 -34.0278,0 -36.2701,0.99215 -36.2701,16.04842 0,12.60506 -3.891,16.49612 -18.1351,18.13507 -14.2441,1.63895 -18.5828,5.97765 -20.2217,20.22173 -2.0809,18.08449 -2.2327,18.13507 -54.4052,18.13507 -51.4101,0 -52.3186,0.28621 -52.3186,16.48643 0,15.38731 -2.1982,16.48643 -32.9728,16.48643 -30.7747,0 -32.9729,-1.09912 -32.9729,-16.48643 0,-16.3643 -0.4399,-16.48643 -59.3512,-16.48643 -58.9114,0 -59.3511,0.122 -59.3511,16.48643 0,13.92187 -3.0775,16.48643 -19.7837,16.48643 -17.5856,0 -19.7837,2.19817 -19.7837,19.78372 0,19.5839 -0.3667,19.78371 -36.2702,19.78371 -34.2917,0 -36.2701,0.89924 -36.2701,16.48643 l 0,16.48646 -75.8376,0 -75.8376,0 0,19.7837 0,19.7837 -72.54026,0 -72.5403,0 0,16.4864 c 0,15.5872 -1.97837,16.4865 -36.27014,16.4865 -35.90375,0 -36.27015,0.1998 -36.27015,19.7837 l 0,19.7837 -69.243,0 -69.24301,0 0,-16.4864 z m 65.94572,-138.48605 0,-16.48643 72.54029,0 72.54029,0 0,-19.78371 c 0,-19.5839 0.36666,-19.78372 36.27015,-19.78372 34.29177,0 36.27015,-0.89923 36.27015,-16.48643 0,-12.09002 3.51708,-16.48643 13.18914,-16.48643 9.67206,0 13.18914,4.39641 13.18914,16.48643 0,13.06913 3.3265,16.48643 16.04842,16.48643 12.60506,0 16.49613,3.891 18.13507,18.13508 2.07973,18.07466 2.27896,18.1414 59.78919,20.04044 l 57.7025,1.90543 0,-20.04051 c 0,-19.89509 0.2631,-20.04044 36.2701,-20.04044 35.9038,0 36.2702,-0.19981 36.2702,-19.78371 0,-19.78372 0,-19.78372 -39.5675,-19.78372 -37.8088,0 -39.5674,0.73272 -39.5674,16.48643 0,16.10698 -1.1283,16.48643 -49.0213,16.48643 -48.5755,0 -49.0402,-0.16486 -51.1079,-18.13507 -1.63895,-14.24408 -5.97765,-18.58278 -20.22173,-20.22173 -14.24408,-1.63895 -18.13507,-5.53001 -18.13507,-18.13507 0,-13.43519 -3.22145,-16.04842 -19.78372,-16.04842 -16.70623,0 -19.78372,2.56456 -19.78372,16.48643 0,15.58719 -1.97837,16.48643 -36.27014,16.48643 -35.90375,0 -36.27015,0.19981 -36.27015,19.78371 l 0,19.78372 -125.29686,0 -125.29687,0 0,-19.78372 c 0,-19.5839 -0.36639,-19.78371 -36.27014,-19.78371 -34.29178,0 -36.27015,-0.89924 -36.27015,-16.48643 0,-13.18914 -3.29729,-16.48643 -16.48643,-16.48643 -13.18914,0 -16.48643,-3.29729 -16.48643,-16.48643 0,-13.92187 -3.07747,-16.48643 -19.78371,-16.48643 -17.58553,0 -19.78372,-2.19817 -19.78372,-19.78372 0,-16.70622 -2.56456,-19.78371 -16.48643,-19.78371 -13.18914,0 -16.48643,-3.29729 -16.48643,-16.48643 0,-15.7537 -1.75855,-16.48643 -39.56743,-16.48643 -39.56743,0 -39.56743,0 -39.56743,19.78372 0,19.5839 0.36639,19.78371 36.27014,19.78371 35.90378,0 36.27015,0.19982 36.27015,19.78372 0,16.70622 2.56456,19.78371 16.48643,19.78371 15.58717,0 16.48643,1.97837 16.48643,36.27015 0,35.90375 0.19981,36.27014 19.78371,36.27014 16.70625,0 19.78372,2.56457 19.78372,16.48643 0,13.18915 3.29729,16.48643 16.48643,16.48643 13.92187,0 16.48643,3.07749 16.48643,19.78372 0,17.58555 2.19819,19.78371 19.78371,19.78371 16.70625,0 19.78372,2.56457 19.78372,16.48643 l 0,16.48643 75.83758,0 75.83757,0 0,-16.48643 z M 1180.4284,410.02024 c 0,-13.18914 3.2973,-16.48643 16.4864,-16.48643 13.9219,0 16.4864,-3.07747 16.4864,-19.78371 0,-19.58388 0.3667,-19.78372 36.2702,-19.78372 35.9037,0 36.2701,-0.19981 36.2701,-19.78371 0,-19.78372 0,-19.78372 -39.5674,-19.78372 -37.8089,0 -39.5674,0.73273 -39.5674,16.48643 l 0,16.48643 -69.243,0 -69.2431,0 0,-16.48643 c 0,-15.58717 -1.9783,-16.48643 -36.2701,-16.48643 -35.90375,0 -36.27015,-0.19981 -36.27015,-19.78371 0,-19.58388 -0.36665,-19.78372 -36.27014,-19.78372 -34.29177,0 -36.27015,-0.89926 -36.27015,-16.48643 0,-15.7537 -1.75857,-16.48643 -39.56743,-16.48643 -39.56743,0 -39.56743,0 -39.56743,19.78372 0,19.58388 0.36666,19.78371 36.27015,19.78371 35.90375,0 36.27014,0.19982 36.27014,19.78372 0,19.58388 0.36666,19.78371 36.27015,19.78371 34.29177,0 36.27014,0.89927 36.27014,16.48643 0,13.18915 3.29729,16.48643 16.48642,16.48643 13.9219,0 16.4864,3.07747 16.4864,19.78372 0,17.58553 2.1982,19.78371 19.7838,19.78371 16.7062,0 19.7837,2.56456 19.7837,16.48643 0,16.36431 0.4398,16.48643 59.3511,16.48643 58.9115,0 59.3512,-0.12213 59.3512,-16.48643 z"
     id="path3296"
     inkscape:connector-curvature="0"
     transform="translate(0,-3.1392987e-5)" /></svg>