<?xml version="1.0" encoding="utf-8"?>
<!-- Generator: Adobe Illustrator 16.0.0, SVG Export Plug-In . SVG Version: 6.00 Build 0)  -->
<!DOCTYPE svg PUBLIC "-//W3C//DTD SVG 1.1//EN" "http://www.w3.org/Graphics/SVG/1.1/DTD/svg11.dtd">
<svg version="1.1" id="Layer_1" xmlns="http://www.w3.org/2000/svg" xmlns:xlink="http://www.w3.org/1999/xlink" x="0px" y="0px"
	 width="2392px" height="1388px" viewBox="0 0 2392 1388" enable-background="new 0 0 2392 1388" xml:space="preserve">
<rect x="819.5" y="245.5" stroke="#000000" stroke-miterlimit="10" width="42" height="36"/>
<rect x="846.5" y="245.5" stroke="#000000" stroke-miterlimit="10" width="52" height="36"/>
<rect x="568.5" y="318.5" stroke="#000000" stroke-miterlimit="10" width="36" height="36"/>
<rect x="309.5" y="1041.5" stroke="#000000" stroke-miterlimit="10" width="37" height="37"/>
<rect x="788.5" y="245.5" stroke="#000000" stroke-miterlimit="10" width="37" height="36"/>
<rect x="493.5" y="281.5" stroke="#000000" stroke-miterlimit="10" width="36" height="36"/>
<rect x="456.5" y="245.5" stroke="#000000" stroke-miterlimit="10" width="37" height="36"/>
<rect x="520.5" y="281.5" stroke="#000000" stroke-miterlimit="10" width="48" height="36"/>
<rect x="297.5" y="208.5" stroke="#000000" stroke-miterlimit="10" width="49" height="36"/>
<rect x="273.5" y="208.5" stroke="#000000" stroke-miterlimit="10" width="37" height="36"/>
<rect x="235.5" y="896.5" stroke="#000000" stroke-miterlimit="10" width="37" height="36"/>
<rect x="604.5" y="318.5" stroke="#000000" stroke-miterlimit="10" width="36" height="36"/>
<rect x="236.5" y="244.5" stroke="#000000" stroke-miterlimit="10" width="37" height="36"/>
<rect x="198.5" y="244.5" stroke="#000000" stroke-miterlimit="10" width="37" height="36"/>
<rect x="162.5" y="280.5" stroke="#000000" stroke-miterlimit="10" width="36" height="38"/>
<rect x="235.5" y="859.5" stroke="#000000" stroke-miterlimit="10" width="37" height="37"/>
<rect x="273.5" y="969.5" stroke="#000000" stroke-miterlimit="10" width="36" height="37"/>
<rect x="863.5" y="1114.5" stroke="#000000" stroke-miterlimit="10" width="37" height="36"/>
<rect x="788.5" y="1078.5" stroke="#000000" stroke-miterlimit="10" width="37" height="36"/>
<rect x="751.5" y="1114.5" stroke="#000000" stroke-miterlimit="10" width="37" height="36"/>
<rect x="714.5" y="1114.5" stroke="#000000" stroke-miterlimit="10" width="37" height="36"/>
<rect x="603.5" y="1186.5" stroke="#000000" stroke-miterlimit="10" width="37" height="36"/>
<rect x="567.5" y="1186.5" stroke="#000000" stroke-miterlimit="10" width="37" height="36"/>
<rect x="531.5" y="1186.5" stroke="#000000" stroke-miterlimit="10" width="37" height="36"/>
<rect x="494.5" y="1150.5" stroke="#000000" stroke-miterlimit="10" width="37" height="36"/>
<rect x="457.5" y="1150.5" stroke="#000000" stroke-miterlimit="10" width="37" height="36"/>
<rect x="420.5" y="1150.5" stroke="#000000" stroke-miterlimit="10" width="37" height="36"/>
<rect x="383.5" y="1150.5" stroke="#000000" stroke-miterlimit="10" width="37" height="36"/>
<rect x="346.5" y="1114.5" stroke="#000000" stroke-miterlimit="10" width="37" height="36"/>
<rect x="125.5" y="318.5" stroke="#000000" stroke-miterlimit="10" width="37" height="36"/>
<rect x="751.5" y="245.5" stroke="#000000" stroke-miterlimit="10" width="37" height="36"/>
<rect x="714.5" y="245.5" stroke="#000000" stroke-miterlimit="10" width="37" height="36"/>
<rect x="677.5" y="245.5" stroke="#000000" stroke-miterlimit="10" width="37" height="36"/>
<rect x="88.5" y="534.5" stroke="#000000" stroke-miterlimit="10" width="37" height="36"/>
<rect x="51.5" y="498.5" stroke="#000000" stroke-miterlimit="10" width="37" height="36"/>
<rect x="51.5" y="462.5" stroke="#000000" stroke-miterlimit="10" width="37" height="36"/>
<rect x="51.5" y="426.5" stroke="#000000" stroke-miterlimit="10" width="37" height="36"/>
<rect x="88.5" y="390.5" stroke="#000000" stroke-miterlimit="10" width="37" height="36"/>
<rect x="125.5" y="354.5" stroke="#000000" stroke-miterlimit="10" width="37" height="36"/>
<rect x="161.5" y="750.5" stroke="#000000" stroke-miterlimit="10" width="37" height="36"/>
<rect x="161.5" y="786.5" stroke="#000000" stroke-miterlimit="10" width="37" height="36"/>
<rect x="198.5" y="822.5" stroke="#000000" stroke-miterlimit="10" width="37" height="36"/>
<rect x="640.5" y="1149.5" stroke="#000000" stroke-miterlimit="10" width="37" height="36"/>
<rect x="677.5" y="1149.5" stroke="#000000" stroke-miterlimit="10" width="37" height="36"/>
<rect x="452.5" y="896.5" fill="#00AFE5" stroke="#00AFE5" stroke-miterlimit="10" width="79" height="36"/>
<rect x="416.5" y="859.5" fill="#00AFE5" stroke="#00AFE5" stroke-miterlimit="10" width="81" height="36"/>
<rect x="488.5" y="896.5" fill="#00AFE5" stroke="#00AFE5" stroke-miterlimit="10" width="36" height="36"/>
<rect x="379.5" y="750.5" fill="#00AFE5" stroke="#00AFE5" stroke-miterlimit="10" width="36" height="36"/>
<rect x="416.5" y="786.5" fill="#00AFE5" stroke="#00AFE5" stroke-miterlimit="10" width="36" height="36"/>
<rect x="1019.5" y="1006.5" fill="#00AFE5" stroke="#00AFE5" stroke-miterlimit="10" width="43" height="36"/>
<rect x="515.5" y="932.5" fill="#00AFE5" stroke="#00AFE5" stroke-miterlimit="10" width="81" height="36"/>
<rect x="524.5" y="932.5" fill="#00AFE5" stroke="#00AFE5" stroke-miterlimit="10" width="36" height="36"/>
<rect x="488.5" y="926.5" fill="#00AFE5" stroke="#00AFE5" stroke-miterlimit="10" width="36" height="42"/>
<rect x="452.5" y="859.5" fill="#00AFE5" stroke="#00AFE5" stroke-miterlimit="10" width="36" height="45"/>
<rect x="738.5" y="933.5" fill="#00AFE5" stroke="#00AFE5" stroke-miterlimit="10" width="36" height="36"/>
<rect x="702.5" y="933.5" fill="#00AFE5" stroke="#00AFE5" stroke-miterlimit="10" width="36" height="36"/>
<rect x="666.5" y="933.5" fill="#00AFE5" stroke="#00AFE5" stroke-miterlimit="10" width="36" height="36"/>
<rect x="631.5" y="933.5" fill="#00AFE5" stroke="#00AFE5" stroke-miterlimit="10" width="36" height="36"/>
<rect x="587.5" y="968.5" fill="#00AFE5" stroke="#00AFE5" stroke-miterlimit="10" width="45" height="36"/>
<rect x="560.5" y="952.5" fill="#00AFE5" stroke="#00AFE5" stroke-miterlimit="10" width="36" height="52"/>
<rect x="524.5" y="896.5" fill="#00AFE5" stroke="#00AFE5" stroke-miterlimit="10" width="36" height="48"/>
<rect x="639.5" y="933.5" fill="#00AFE5" stroke="#00AFE5" stroke-miterlimit="10" width="208" height="36"/>
<rect x="416.5" y="810.5" fill="#00AFE5" stroke="#00AFE5" stroke-miterlimit="10" width="36" height="60"/>
<rect x="488.5" y="859.5" fill="#00AFE5" stroke="#00AFE5" stroke-miterlimit="10" width="36" height="45"/>
<rect x="775.5" y="933.5" fill="#00AFE5" stroke="#00AFE5" stroke-miterlimit="10" width="36" height="36"/>
<rect x="125.5" y="570.5" stroke="#000000" stroke-miterlimit="10" width="37" height="36"/>
<rect x="198.5" y="714.5" stroke="#000000" stroke-miterlimit="10" width="37" height="36"/>
<rect x="198.5" y="678.5" stroke="#000000" stroke-miterlimit="10" width="37" height="36"/>
<rect x="161.5" y="642.5" stroke="#000000" stroke-miterlimit="10" width="37" height="36"/>
<rect x="161.5" y="606.5" stroke="#000000" stroke-miterlimit="10" width="37" height="36"/>
<rect x="419.5" y="208.5" stroke="#000000" stroke-miterlimit="10" width="37" height="36"/>
<rect x="382.5" y="208.5" stroke="#000000" stroke-miterlimit="10" width="37" height="36"/>
<rect x="345.5" y="208.5" stroke="#000000" stroke-miterlimit="10" width="37" height="36"/>
<rect x="235.5" y="933.5" stroke="#000000" stroke-miterlimit="10" width="37" height="36"/>
<rect x="825.5" y="1078.5" stroke="#000000" stroke-miterlimit="10" width="37" height="36"/>
<rect x="309.5" y="1078.5" stroke="#000000" stroke-miterlimit="10" width="37" height="36"/>
<rect x="309.5" y="1004.5" stroke="#000000" stroke-miterlimit="10" width="37" height="37"/>
<rect x="641.5" y="281.5" stroke="#000000" stroke-miterlimit="10" width="36" height="36"/>
<rect x="1820.5" y="1000.5" stroke="#000000" stroke-miterlimit="10" width="37" height="36"/>
<rect x="1783.5" y="964.5" stroke="#000000" stroke-miterlimit="10" width="37" height="36"/>
<rect x="1746.5" y="964.5" stroke="#000000" stroke-miterlimit="10" width="37" height="36"/>
<rect x="2117.5" y="496.5" stroke="#000000" stroke-miterlimit="10" width="37" height="36"/>
<rect x="2080.5" y="460.5" stroke="#000000" stroke-miterlimit="10" width="37" height="36"/>
<rect x="2043.5" y="460.5" stroke="#000000" stroke-miterlimit="10" width="37" height="36"/>
<rect x="2006.5" y="460.5" stroke="#000000" stroke-miterlimit="10" width="37" height="36"/>
<rect x="1970.5" y="460.5" stroke="#000000" stroke-miterlimit="10" width="37" height="36"/>
<rect x="1933.5" y="424.5" stroke="#000000" stroke-miterlimit="10" width="37" height="36"/>
<rect x="1933.5" y="388.5" stroke="#000000" stroke-miterlimit="10" width="37" height="36"/>
<rect x="1896.5" y="352.5" stroke="#000000" stroke-miterlimit="10" width="37" height="36"/>
<rect x="1709.5" y="964.5" stroke="#000000" stroke-miterlimit="10" width="37" height="36"/>
<rect x="1672.5" y="1000.5" stroke="#000000" stroke-miterlimit="10" width="37" height="36"/>
<rect x="1635.5" y="1036.5" stroke="#000000" stroke-miterlimit="10" width="37" height="36"/>
<rect x="1596.5" y="1036.5" stroke="#000000" stroke-miterlimit="10" width="39" height="36"/>
<rect x="2301.5" y="676.5" stroke="#000000" stroke-miterlimit="10" width="37" height="36"/>
<rect x="2265.5" y="640.5" stroke="#000000" stroke-miterlimit="10" width="37" height="36"/>
<rect x="2228.5" y="604.5" stroke="#000000" stroke-miterlimit="10" width="37" height="36"/>
<rect x="2228.5" y="568.5" stroke="#000000" stroke-miterlimit="10" width="37" height="36"/>
<rect x="2191.5" y="532.5" stroke="#000000" stroke-miterlimit="10" width="37" height="36"/>
<rect x="2154.5" y="532.5" stroke="#000000" stroke-miterlimit="10" width="37" height="36"/>
<rect x="2227.5" y="784.5" stroke="#000000" stroke-miterlimit="10" width="37" height="36"/>
<rect x="2190.5" y="820.5" stroke="#000000" stroke-miterlimit="10" width="37" height="36"/>
<rect x="2153.5" y="820.5" stroke="#000000" stroke-miterlimit="10" width="37" height="36"/>
<rect x="2116.5" y="856.5" stroke="#000000" stroke-miterlimit="10" width="37" height="36"/>
<rect x="2079.5" y="892.5" stroke="#000000" stroke-miterlimit="10" width="37" height="36"/>
<rect x="2042.5" y="892.5" stroke="#000000" stroke-miterlimit="10" width="37" height="36"/>
<rect x="2005.5" y="928.5" stroke="#000000" stroke-miterlimit="10" width="37" height="36"/>
<rect x="1968.5" y="964.5" stroke="#000000" stroke-miterlimit="10" width="37" height="36"/>
<rect x="1931.5" y="964.5" stroke="#000000" stroke-miterlimit="10" width="37" height="36"/>
<rect x="1894.5" y="964.5" stroke="#000000" stroke-miterlimit="10" width="37" height="36"/>
<rect x="1857.5" y="1000.5" stroke="#000000" stroke-miterlimit="10" width="37" height="36"/>
<rect x="2301.5" y="712.5" stroke="#000000" stroke-miterlimit="10" width="37" height="36"/>
<rect x="2264.5" y="748.5" stroke="#000000" stroke-miterlimit="10" width="37" height="36"/>
<rect x="1414.5" y="100.5" stroke="#000000" stroke-miterlimit="10" width="42" height="36"/>
<rect x="1441.5" y="100.5" stroke="#000000" stroke-miterlimit="10" width="52" height="36"/>
<rect x="1530.5" y="136.5" stroke="#000000" stroke-miterlimit="10" width="37" height="37"/>
<rect x="1180.5" y="26.5" stroke="#000000" stroke-miterlimit="10" width="50" height="38"/>
<rect x="1157.5" y="26.5" stroke="#000000" stroke-miterlimit="10" width="36" height="38"/>
<rect x="1377.5" y="64.5" stroke="#000000" stroke-miterlimit="10" width="37" height="36"/>
<rect x="1082.5" y="64.5" stroke="#000000" stroke-miterlimit="10" width="36" height="36"/>
<rect x="1045.5" y="100.5" stroke="#000000" stroke-miterlimit="10" width="37" height="36"/>
<rect x="1109.5" y="64.5" stroke="#000000" stroke-miterlimit="10" width="48" height="36"/>
<rect x="996.5" y="136.5" stroke="#000000" stroke-miterlimit="10" width="49" height="37"/>
<rect x="972.5" y="136.5" stroke="#000000" stroke-miterlimit="10" width="37" height="37"/>
<rect x="1493.5" y="136.5" stroke="#000000" stroke-miterlimit="10" width="46" height="37"/>
<rect x="1230.5" y="64.5" stroke="#000000" stroke-miterlimit="10" width="36" height="36"/>
<rect x="935.5" y="173.5" stroke="#000000" stroke-miterlimit="10" width="37" height="36"/>
<rect x="898.5" y="209.5" stroke="#000000" stroke-miterlimit="10" width="37" height="36"/>
<rect x="1548.5" y="136.5" stroke="#000000" stroke-miterlimit="10" width="55" height="37"/>
<rect x="1640.5" y="173.5" stroke="#000000" stroke-miterlimit="10" width="36" height="36"/>
<rect x="1591.5" y="136.5" stroke="#000000" stroke-miterlimit="10" width="49" height="37"/>
<rect x="1340.5" y="64.5" stroke="#000000" stroke-miterlimit="10" width="37" height="36"/>
<rect x="1303.5" y="100.5" stroke="#000000" stroke-miterlimit="10" width="37" height="36"/>
<rect x="1266.5" y="100.5" stroke="#000000" stroke-miterlimit="10" width="37" height="36"/>
<rect x="1522.5" y="371.5" fill="#00AFE5" stroke="#00AFE5" stroke-miterlimit="10" width="83" height="36"/>
<rect x="1595.5" y="371.5" fill="#00AFE5" stroke="#00AFE5" stroke-miterlimit="10" width="36" height="36"/>
<rect x="1340.5" y="262.5" fill="#00AFE5" stroke="#00AFE5" stroke-miterlimit="10" width="36" height="36"/>
<rect x="1376.5" y="262.5" fill="#00AFE5" stroke="#00AFE5" stroke-miterlimit="10" width="36" height="43"/>
<rect x="1522.5" y="335.5" fill="#00AFE5" stroke="#00AFE5" stroke-miterlimit="10" width="36" height="50"/>
<rect x="1486.5" y="335.5" fill="#00AFE5" stroke="#00AFE5" stroke-miterlimit="10" width="41" height="36"/>
<rect x="1449.5" y="299.5" fill="#00AFE5" stroke="#00AFE5" stroke-miterlimit="10" width="36" height="36"/>
<rect x="1413.5" y="299.5" fill="#00AFE5" stroke="#00AFE5" stroke-miterlimit="10" width="36" height="36"/>
<rect x="1559.5" y="371.5" fill="#00AFE5" stroke="#00AFE5" stroke-miterlimit="10" width="36" height="36"/>
<rect x="1713.5" y="281.5" stroke="#000000" stroke-miterlimit="10" width="37" height="36"/>
<rect x="1860.5" y="317.5" stroke="#000000" stroke-miterlimit="10" width="37" height="36"/>
<rect x="1823.5" y="317.5" stroke="#000000" stroke-miterlimit="10" width="37" height="36"/>
<rect x="1786.5" y="317.5" stroke="#000000" stroke-miterlimit="10" width="37" height="36"/>
<rect x="1750.5" y="317.5" stroke="#000000" stroke-miterlimit="10" width="37" height="36"/>
<rect x="1676.5" y="209.5" stroke="#000000" stroke-miterlimit="10" width="37" height="36"/>
<rect x="1713.5" y="245.5" stroke="#000000" stroke-miterlimit="10" width="37" height="36"/>
<rect x="936.5" y="1187.5" stroke="#000000" stroke-miterlimit="10" width="37" height="37"/>
<rect x="900.5" y="1150.5" stroke="#000000" stroke-miterlimit="10" width="36" height="37"/>
<rect x="1378.5" y="1224.5" stroke="#000000" stroke-miterlimit="10" width="37" height="36"/>
<rect x="1341.5" y="1260.5" stroke="#000000" stroke-miterlimit="10" width="37" height="36"/>
<rect x="1304.5" y="1260.5" stroke="#000000" stroke-miterlimit="10" width="37" height="36"/>
<rect x="1267.5" y="1296.5" stroke="#000000" stroke-miterlimit="10" width="37" height="36"/>
<rect x="1230.5" y="1296.5" stroke="#000000" stroke-miterlimit="10" width="37" height="36"/>
<rect x="1194.5" y="1296.5" stroke="#000000" stroke-miterlimit="10" width="37" height="36"/>
<rect x="1158.5" y="1296.5" stroke="#000000" stroke-miterlimit="10" width="37" height="36"/>
<rect x="1121.5" y="1260.5" stroke="#000000" stroke-miterlimit="10" width="37" height="36"/>
<rect x="1084.5" y="1260.5" stroke="#000000" stroke-miterlimit="10" width="37" height="36"/>
<rect x="1047.5" y="1260.5" stroke="#000000" stroke-miterlimit="10" width="37" height="36"/>
<rect x="1010.5" y="1260.5" stroke="#000000" stroke-miterlimit="10" width="37" height="36"/>
<rect x="973.5" y="1224.5" stroke="#000000" stroke-miterlimit="10" width="37" height="36"/>
<rect x="1522.5" y="1187.5" stroke="#000000" stroke-miterlimit="10" width="37" height="36"/>
<rect x="1414.5" y="1224.5" stroke="#000000" stroke-miterlimit="10" width="37" height="36"/>
<rect x="1485.5" y="1224.5" stroke="#000000" stroke-miterlimit="10" width="37" height="36"/>
<rect x="1559.5" y="1151.5" stroke="#000000" stroke-miterlimit="10" width="37" height="36"/>
<rect x="1559.5" y="1115.5" stroke="#000000" stroke-miterlimit="10" width="37" height="36"/>
<rect x="1559.5" y="1073.5" stroke="#000000" stroke-miterlimit="10" width="37" height="42"/>
<rect x="1448.5" y="1224.5" stroke="#000000" stroke-miterlimit="10" width="37" height="36"/>
<rect x="845.5" y="898.5" fill="#00AFE5" stroke="#00AFE5" stroke-miterlimit="10" width="36" height="36"/>
<rect x="870.5" y="898.5" fill="#00AFE5" stroke="#00AFE5" stroke-miterlimit="10" width="47" height="36"/>
<rect x="909.5" y="934.5" fill="#00AFE5" stroke="#00AFE5" stroke-miterlimit="10" width="80" height="36"/>
<rect x="917.5" y="934.5" fill="#00AFE5" stroke="#00AFE5" stroke-miterlimit="10" width="36" height="36"/>
<rect x="881.5" y="926.5" fill="#00AFE5" stroke="#00AFE5" stroke-miterlimit="10" width="36" height="44"/>
<rect x="953.5" y="962.5" fill="#00AFE5" stroke="#00AFE5" stroke-miterlimit="10" width="36" height="44"/>
<rect x="978.5" y="970.5" fill="#00AFE5" stroke="#00AFE5" stroke-miterlimit="10" width="47" height="36"/>
<rect x="989.5" y="996.5" fill="#00AFE5" stroke="#00AFE5" stroke-miterlimit="10" width="36" height="46"/>
<rect x="1230.5" y="227.5" fill="#00AFE5" stroke="#00AFE5" stroke-miterlimit="10" width="36" height="36"/>
<rect x="1486.5" y="299.5" fill="#00AFE5" stroke="#00AFE5" stroke-miterlimit="10" width="36" height="54"/>
<rect x="1303.5" y="262.5" fill="#00AFE5" stroke="#00AFE5" stroke-miterlimit="10" width="36" height="36"/>
<rect x="1267.5" y="262.5" fill="#00AFE5" stroke="#00AFE5" stroke-miterlimit="10" width="115" height="36"/>
<rect x="1361.5" y="299.5" fill="#00AFE5" stroke="#00AFE5" stroke-miterlimit="10" width="133" height="36"/>
<rect x="1341.5" y="293.5" fill="#00AFE5" stroke="#00AFE5" stroke-miterlimit="10" width="36" height="42"/>
</svg>
