<?xml version="1.0" encoding="UTF-8" standalone="no"?>
<!-- Generator: Adobe Illustrator 16.0.0, SVG Export Plug-In . SVG Version: 6.00 Build 0)  -->

<svg
   xmlns:dc="http://purl.org/dc/elements/1.1/"
   xmlns:cc="http://creativecommons.org/ns#"
   xmlns:rdf="http://www.w3.org/1999/02/22-rdf-syntax-ns#"
   xmlns:svg="http://www.w3.org/2000/svg"
   xmlns="http://www.w3.org/2000/svg"
   xmlns:sodipodi="http://sodipodi.sourceforge.net/DTD/sodipodi-0.dtd"
   xmlns:inkscape="http://www.inkscape.org/namespaces/inkscape"
   version="1.1"
   id="Layer_1"
   x="0px"
   y="0px"
   width="1880px"
   height="1152px"
   viewBox="0 0 1880 1152"
   enable-background="new 0 0 1880 1152"
   xml:space="preserve"
   inkscape:version="0.48.4 r9939"
   sodipodi:docname="cloud4.svg"><metadata
     id="metadata293"><rdf:RDF><cc:Work
         rdf:about=""><dc:format>image/svg+xml</dc:format><dc:type
           rdf:resource="http://purl.org/dc/dcmitype/StillImage" /></cc:Work></rdf:RDF></metadata><defs
     id="defs291" /><sodipodi:namedview
     pagecolor="#ffffff"
     bordercolor="#666666"
     borderopacity="1"
     objecttolerance="10"
     gridtolerance="10"
     guidetolerance="10"
     inkscape:pageopacity="0"
     inkscape:pageshadow="2"
     inkscape:window-width="1535"
     inkscape:window-height="876"
     id="namedview289"
     showgrid="false"
     inkscape:zoom="0.15531915"
     inkscape:cx="940"
     inkscape:cy="576"
     inkscape:window-x="65"
     inkscape:window-y="24"
     inkscape:window-maximized="1"
     inkscape:current-layer="Layer_1" /><rect
     x="913.5"
     y="121.5"
     stroke="#000000"
     stroke-miterlimit="10"
     width="42"
     height="36"
     id="rect3" /><rect
     x="940.5"
     y="121.5"
     stroke="#000000"
     stroke-miterlimit="10"
     width="52"
     height="36"
     id="rect5" /><rect
     x="1029.5"
     y="157.5"
     stroke="#000000"
     stroke-miterlimit="10"
     width="37"
     height="37"
     id="rect7" /><rect
     x="662.5"
     y="194.5"
     stroke="#000000"
     stroke-miterlimit="10"
     width="36"
     height="36"
     id="rect9" /><rect
     x="403.5"
     y="882.5"
     stroke="#000000"
     stroke-miterlimit="10"
     width="37"
     height="37"
     id="rect11" /><rect
     x="882.5"
     y="121.5"
     stroke="#000000"
     stroke-miterlimit="10"
     width="37"
     height="36"
     id="rect13" /><rect
     x="587.5"
     y="157.5"
     stroke="#000000"
     stroke-miterlimit="10"
     width="36"
     height="36"
     id="rect15" /><rect
     x="550.5"
     y="121.5"
     stroke="#000000"
     stroke-miterlimit="10"
     width="37"
     height="36"
     id="rect17" /><rect
     x="614.5"
     y="157.5"
     stroke="#000000"
     stroke-miterlimit="10"
     width="48"
     height="36"
     id="rect19" /><rect
     x="391.5"
     y="84.5"
     stroke="#000000"
     stroke-miterlimit="10"
     width="49"
     height="36"
     id="rect21" /><rect
     x="367.5"
     y="84.5"
     stroke="#000000"
     stroke-miterlimit="10"
     width="37"
     height="36"
     id="rect23" /><rect
     x="329.5"
     y="772.5"
     stroke="#000000"
     stroke-miterlimit="10"
     width="37"
     height="36"
     id="rect25" /><rect
     x="992.5"
     y="157.5"
     stroke="#000000"
     stroke-miterlimit="10"
     width="46"
     height="37"
     id="rect27" /><rect
     x="698.5"
     y="194.5"
     stroke="#000000"
     stroke-miterlimit="10"
     width="36"
     height="36"
     id="rect29" /><rect
     x="330.5"
     y="120.5"
     stroke="#000000"
     stroke-miterlimit="10"
     width="37"
     height="36"
     id="rect31" /><rect
     x="292.5"
     y="120.5"
     stroke="#000000"
     stroke-miterlimit="10"
     width="37"
     height="36"
     id="rect33" /><rect
     x="256.5"
     y="156.5"
     stroke="#000000"
     stroke-miterlimit="10"
     width="36"
     height="38"
     id="rect35" /><rect
     x="329.5"
     y="735.5"
     stroke="#000000"
     stroke-miterlimit="10"
     width="37"
     height="37"
     id="rect37" /><rect
     x="1047.5"
     y="157.5"
     stroke="#000000"
     stroke-miterlimit="10"
     width="55"
     height="37"
     id="rect39" /><rect
     x="1139.5"
     y="194.5"
     stroke="#000000"
     stroke-miterlimit="10"
     width="36"
     height="36"
     id="rect41" /><rect
     x="1090.5"
     y="157.5"
     stroke="#000000"
     stroke-miterlimit="10"
     width="49"
     height="37"
     id="rect43" /><rect
     x="1212.5"
     y="267.5"
     stroke="#000000"
     stroke-miterlimit="10"
     width="37"
     height="37"
     id="rect45" /><rect
     x="1175.5"
     y="230.5"
     stroke="#000000"
     stroke-miterlimit="10"
     width="37"
     height="37"
     id="rect47" /><rect
     x="1237.5"
     y="267.5"
     stroke="#000000"
     stroke-miterlimit="10"
     width="50"
     height="37"
     id="rect49" /><rect
     x="367.5"
     y="845.5"
     stroke="#000000"
     stroke-miterlimit="10"
     width="36"
     height="37"
     id="rect51" /><rect
     x="957.5"
     y="990.5"
     stroke="#000000"
     stroke-miterlimit="10"
     width="37"
     height="36"
     id="rect53" /><rect
     x="882.5"
     y="954.5"
     stroke="#000000"
     stroke-miterlimit="10"
     width="37"
     height="36"
     id="rect55" /><rect
     x="845.5"
     y="990.5"
     stroke="#000000"
     stroke-miterlimit="10"
     width="37"
     height="36"
     id="rect57" /><rect
     x="808.5"
     y="990.5"
     stroke="#000000"
     stroke-miterlimit="10"
     width="37"
     height="36"
     id="rect59" /><rect
     x="697.5"
     y="1062.5"
     stroke="#000000"
     stroke-miterlimit="10"
     width="37"
     height="36"
     id="rect61" /><rect
     x="661.5"
     y="1062.5"
     stroke="#000000"
     stroke-miterlimit="10"
     width="37"
     height="36"
     id="rect63" /><rect
     x="625.5"
     y="1062.5"
     stroke="#000000"
     stroke-miterlimit="10"
     width="37"
     height="36"
     id="rect65" /><rect
     x="588.5"
     y="1026.5"
     stroke="#000000"
     stroke-miterlimit="10"
     width="37"
     height="36"
     id="rect67" /><rect
     x="551.5"
     y="1026.5"
     stroke="#000000"
     stroke-miterlimit="10"
     width="37"
     height="36"
     id="rect69" /><rect
     x="514.5"
     y="1026.5"
     stroke="#000000"
     stroke-miterlimit="10"
     width="37"
     height="36"
     id="rect71" /><rect
     x="477.5"
     y="1026.5"
     stroke="#000000"
     stroke-miterlimit="10"
     width="37"
     height="36"
     id="rect73" /><rect
     x="440.5"
     y="990.5"
     stroke="#000000"
     stroke-miterlimit="10"
     width="37"
     height="36"
     id="rect75" /><rect
     x="1433.5"
     y="916.5"
     stroke="#000000"
     stroke-miterlimit="10"
     width="37"
     height="36"
     id="rect77" /><rect
     x="1584.5"
     y="340.5"
     stroke="#000000"
     stroke-miterlimit="10"
     width="37"
     height="36"
     id="rect79" /><rect
     x="1546.5"
     y="304.5"
     stroke="#000000"
     stroke-miterlimit="10"
     width="37"
     height="36"
     id="rect81" /><rect
     x="1509.5"
     y="304.5"
     stroke="#000000"
     stroke-miterlimit="10"
     width="37"
     height="36"
     id="rect83" /><rect
     x="1472.5"
     y="268.5"
     stroke="#000000"
     stroke-miterlimit="10"
     width="37"
     height="36"
     id="rect85" /><rect
     x="1435.5"
     y="232.5"
     stroke="#000000"
     stroke-miterlimit="10"
     width="37"
     height="36"
     id="rect87" /><rect
     x="1398.5"
     y="196.5"
     stroke="#000000"
     stroke-miterlimit="10"
     width="37"
     height="36"
     id="rect89" /><rect
     x="1361.5"
     y="196.5"
     stroke="#000000"
     stroke-miterlimit="10"
     width="37"
     height="36"
     id="rect91" /><rect
     x="1324.5"
     y="196.5"
     stroke="#000000"
     stroke-miterlimit="10"
     width="37"
     height="36"
     id="rect93" /><rect
     x="1287.5"
     y="232.5"
     stroke="#000000"
     stroke-miterlimit="10"
     width="37"
     height="36"
     id="rect95" /><rect
     x="219.5"
     y="194.5"
     stroke="#000000"
     stroke-miterlimit="10"
     width="37"
     height="36"
     id="rect97" /><rect
     x="993.5"
     y="990.5"
     stroke="#000000"
     stroke-miterlimit="10"
     width="37"
     height="36"
     id="rect99" /><rect
     x="1064.5"
     y="990.5"
     stroke="#000000"
     stroke-miterlimit="10"
     width="37"
     height="36"
     id="rect101" /><rect
     x="845.5"
     y="121.5"
     stroke="#000000"
     stroke-miterlimit="10"
     width="37"
     height="36"
     id="rect103" /><rect
     x="808.5"
     y="121.5"
     stroke="#000000"
     stroke-miterlimit="10"
     width="37"
     height="36"
     id="rect105" /><rect
     x="771.5"
     y="121.5"
     stroke="#000000"
     stroke-miterlimit="10"
     width="37"
     height="36"
     id="rect107" /><rect
     x="1396.5"
     y="916.5"
     stroke="#000000"
     stroke-miterlimit="10"
     width="37"
     height="36"
     id="rect109" /><rect
     x="1359.5"
     y="952.5"
     stroke="#000000"
     stroke-miterlimit="10"
     width="37"
     height="36"
     id="rect111" /><rect
     x="1322.5"
     y="988.5"
     stroke="#000000"
     stroke-miterlimit="10"
     width="37"
     height="36"
     id="rect113" /><rect
     x="1285.5"
     y="988.5"
     stroke="#000000"
     stroke-miterlimit="10"
     width="37"
     height="36"
     id="rect115" /><rect
     x="1213.5"
     y="953.5"
     stroke="#000000"
     stroke-miterlimit="10"
     width="37"
     height="36"
     id="rect117" /><rect
     x="1176.5"
     y="953.5"
     stroke="#000000"
     stroke-miterlimit="10"
     width="37"
     height="36"
     id="rect119" /><rect
     x="1139.5"
     y="953.5"
     stroke="#000000"
     stroke-miterlimit="10"
     width="37"
     height="36"
     id="rect121" /><rect
     x="1102.5"
     y="953.5"
     stroke="#000000"
     stroke-miterlimit="10"
     width="37"
     height="36"
     id="rect123" /><rect
     x="1027.5"
     y="990.5"
     stroke="#000000"
     stroke-miterlimit="10"
     width="37"
     height="36"
     id="rect125" /><rect
     x="182.5"
     y="410.5"
     stroke="#000000"
     stroke-miterlimit="10"
     width="37"
     height="36"
     id="rect127" /><rect
     x="145.5"
     y="374.5"
     stroke="#000000"
     stroke-miterlimit="10"
     width="37"
     height="36"
     id="rect129" /><rect
     x="145.5"
     y="338.5"
     stroke="#000000"
     stroke-miterlimit="10"
     width="37"
     height="36"
     id="rect131" /><rect
     x="145.5"
     y="302.5"
     stroke="#000000"
     stroke-miterlimit="10"
     width="37"
     height="36"
     id="rect133" /><rect
     x="182.5"
     y="266.5"
     stroke="#000000"
     stroke-miterlimit="10"
     width="37"
     height="36"
     id="rect135" /><rect
     x="219.5"
     y="230.5"
     stroke="#000000"
     stroke-miterlimit="10"
     width="37"
     height="36"
     id="rect137" /><rect
     x="255.5"
     y="626.5"
     stroke="#000000"
     stroke-miterlimit="10"
     width="37"
     height="36"
     id="rect139" /><rect
     x="255.5"
     y="662.5"
     stroke="#000000"
     stroke-miterlimit="10"
     width="37"
     height="36"
     id="rect141" /><rect
     x="292.5"
     y="698.5"
     stroke="#000000"
     stroke-miterlimit="10"
     width="37"
     height="36"
     id="rect143" /><rect
     x="734.5"
     y="1025.5"
     stroke="#000000"
     stroke-miterlimit="10"
     width="37"
     height="36"
     id="rect145" /><rect
     x="771.5"
     y="1025.5"
     stroke="#000000"
     stroke-miterlimit="10"
     width="37"
     height="36"
     id="rect147" /><rect
     x="1768.5"
     y="520.5"
     stroke="#000000"
     stroke-miterlimit="10"
     width="37"
     height="36"
     id="rect149" /><rect
     x="1732.5"
     y="484.5"
     stroke="#000000"
     stroke-miterlimit="10"
     width="37"
     height="36"
     id="rect151" /><rect
     x="1695.5"
     y="448.5"
     stroke="#000000"
     stroke-miterlimit="10"
     width="37"
     height="36"
     id="rect153" /><rect
     x="1695.5"
     y="412.5"
     stroke="#000000"
     stroke-miterlimit="10"
     width="37"
     height="36"
     id="rect155" /><rect
     x="1658.5"
     y="376.5"
     stroke="#000000"
     stroke-miterlimit="10"
     width="37"
     height="36"
     id="rect157" /><rect
     x="1621.5"
     y="376.5"
     stroke="#000000"
     stroke-miterlimit="10"
     width="37"
     height="36"
     id="rect159" /><rect
     x="1694.5"
     y="628.5"
     stroke="#000000"
     stroke-miterlimit="10"
     width="37"
     height="36"
     id="rect161" /><rect
     x="1657.5"
     y="664.5"
     stroke="#000000"
     stroke-miterlimit="10"
     width="37"
     height="36"
     id="rect163" /><rect
     x="1620.5"
     y="664.5"
     stroke="#000000"
     stroke-miterlimit="10"
     width="37"
     height="36"
     id="rect165" /><rect
     x="1583.5"
     y="700.5"
     stroke="#000000"
     stroke-miterlimit="10"
     width="37"
     height="36"
     id="rect167" /><rect
     x="1768.5"
     y="556.5"
     stroke="#000000"
     stroke-miterlimit="10"
     width="37"
     height="36"
     id="rect169" /><rect
     x="1731.5"
     y="592.5"
     stroke="#000000"
     stroke-miterlimit="10"
     width="37"
     height="36"
     id="rect171" /><rect
     x="1157.5"
     y="358.5"
     fill="#00AFE5"
     stroke="#00AFE5"
     stroke-miterlimit="10"
     width="36"
     height="36"
     id="rect173" /><rect
     x="1338.5"
     y="394.5"
     fill="#00AFE5"
     stroke="#00AFE5"
     stroke-miterlimit="10"
     width="36"
     height="36"
     id="rect175" /><rect
     x="1411.5"
     y="358.5"
     fill="#00AFE5"
     stroke="#00AFE5"
     stroke-miterlimit="10"
     width="36"
     height="36"
     id="rect177" /><rect
     x="1230.5"
     y="358.5"
     fill="#00AFE5"
     stroke="#00AFE5"
     stroke-miterlimit="10"
     width="36"
     height="36"
     id="rect179" /><rect
     x="546.5"
     y="881.5"
     fill="#00AFE5"
     stroke="#00AFE5"
     stroke-miterlimit="10"
     width="36"
     height="36"
     id="rect181" /><rect
     x="1375.5"
     y="394.5"
     fill="#00AFE5"
     stroke="#00AFE5"
     stroke-miterlimit="10"
     width="36"
     height="36"
     id="rect183" /><rect
     x="510.5"
     y="844.5"
     fill="#00AFE5"
     stroke="#00AFE5"
     stroke-miterlimit="10"
     width="36"
     height="36"
     id="rect185" /><rect
     x="974.5"
     y="286.5"
     fill="#00AFE5"
     stroke="#00AFE5"
     stroke-miterlimit="10"
     width="36"
     height="36"
     id="rect187" /><rect
     x="1011.5"
     y="286.5"
     fill="#00AFE5"
     stroke="#00AFE5"
     stroke-miterlimit="10"
     width="36"
     height="36"
     id="rect189" /><rect
     x="1302.5"
     y="394.5"
     fill="#00AFE5"
     stroke="#00AFE5"
     stroke-miterlimit="10"
     width="36"
     height="36"
     id="rect191" /><rect
     x="1157.5"
     y="322.5"
     fill="#00AFE5"
     stroke="#00AFE5"
     stroke-miterlimit="10"
     width="36"
     height="36"
     id="rect193" /><rect
     x="1121.5"
     y="322.5"
     fill="#00AFE5"
     stroke="#00AFE5"
     stroke-miterlimit="10"
     width="36"
     height="36"
     id="rect195" /><rect
     x="1084.5"
     y="286.5"
     fill="#00AFE5"
     stroke="#00AFE5"
     stroke-miterlimit="10"
     width="36"
     height="36"
     id="rect197" /><rect
     x="1048.5"
     y="286.5"
     fill="#00AFE5"
     stroke="#00AFE5"
     stroke-miterlimit="10"
     width="36"
     height="36"
     id="rect199" /><rect
     x="582.5"
     y="881.5"
     fill="#00AFE5"
     stroke="#00AFE5"
     stroke-miterlimit="10"
     width="36"
     height="36"
     id="rect201" /><rect
     x="1194.5"
     y="358.5"
     fill="#00AFE5"
     stroke="#00AFE5"
     stroke-miterlimit="10"
     width="36"
     height="36"
     id="rect203" /><rect
     x="473.5"
     y="735.5"
     fill="#00AFE5"
     stroke="#00AFE5"
     stroke-miterlimit="10"
     width="36"
     height="36"
     id="rect205" /><rect
     x="510.5"
     y="771.5"
     fill="#00AFE5"
     stroke="#00AFE5"
     stroke-miterlimit="10"
     width="36"
     height="36"
     id="rect207" /><rect
     x="690.5"
     y="844.5"
     fill="#00AFE5"
     stroke="#00AFE5"
     stroke-miterlimit="10"
     width="36"
     height="36"
     id="rect209" /><rect
     x="654.5"
     y="917.5"
     fill="#00AFE5"
     stroke="#00AFE5"
     stroke-miterlimit="10"
     width="36"
     height="36"
     id="rect211" /><rect
     x="618.5"
     y="917.5"
     fill="#00AFE5"
     stroke="#00AFE5"
     stroke-miterlimit="10"
     width="36"
     height="36"
     id="rect213" /><rect
     x="582.5"
     y="917.5"
     fill="#00AFE5"
     stroke="#00AFE5"
     stroke-miterlimit="10"
     width="36"
     height="36"
     id="rect215" /><rect
     x="546.5"
     y="844.5"
     fill="#00AFE5"
     stroke="#00AFE5"
     stroke-miterlimit="10"
     width="36"
     height="36"
     id="rect217" /><rect
     x="833.5"
     y="881.5"
     fill="#00AFE5"
     stroke="#00AFE5"
     stroke-miterlimit="10"
     width="36"
     height="36"
     id="rect219" /><rect
     x="797.5"
     y="881.5"
     fill="#00AFE5"
     stroke="#00AFE5"
     stroke-miterlimit="10"
     width="36"
     height="36"
     id="rect221" /><rect
     x="761.5"
     y="881.5"
     fill="#00AFE5"
     stroke="#00AFE5"
     stroke-miterlimit="10"
     width="36"
     height="36"
     id="rect223" /><rect
     x="726.5"
     y="844.5"
     fill="#00AFE5"
     stroke="#00AFE5"
     stroke-miterlimit="10"
     width="36"
     height="36"
     id="rect225" /><rect
     x="690.5"
     y="881.5"
     fill="#00AFE5"
     stroke="#00AFE5"
     stroke-miterlimit="10"
     width="36"
     height="36"
     id="rect227" /><rect
     x="654.5"
     y="881.5"
     fill="#00AFE5"
     stroke="#00AFE5"
     stroke-miterlimit="10"
     width="36"
     height="36"
     id="rect229" /><rect
     x="618.5"
     y="881.5"
     fill="#00AFE5"
     stroke="#00AFE5"
     stroke-miterlimit="10"
     width="36"
     height="36"
     id="rect231" /><rect
     x="906.5"
     y="844.5"
     fill="#00AFE5"
     stroke="#00AFE5"
     stroke-miterlimit="10"
     width="36"
     height="36"
     id="rect233" /><rect
     x="510.5"
     y="808.5"
     fill="#00AFE5"
     stroke="#00AFE5"
     stroke-miterlimit="10"
     width="36"
     height="36"
     id="rect235" /><rect
     x="582.5"
     y="844.5"
     fill="#00AFE5"
     stroke="#00AFE5"
     stroke-miterlimit="10"
     width="36"
     height="36"
     id="rect237" /><rect
     x="870.5"
     y="844.5"
     fill="#00AFE5"
     stroke="#00AFE5"
     stroke-miterlimit="10"
     width="36"
     height="36"
     id="rect239" /><rect
     x="1230.5"
     y="394.5"
     fill="#00AFE5"
     stroke="#00AFE5"
     stroke-miterlimit="10"
     width="36"
     height="36"
     id="rect241" /><rect
     x="1194.5"
     y="394.5"
     fill="#00AFE5"
     stroke="#00AFE5"
     stroke-miterlimit="10"
     width="36"
     height="36"
     id="rect243" /><rect
     x="1471.5"
     y="880.5"
     stroke="#000000"
     stroke-miterlimit="10"
     width="37"
     height="36"
     id="rect245" /><rect
     x="1509.5"
     y="844.5"
     stroke="#000000"
     stroke-miterlimit="10"
     width="37"
     height="36"
     id="rect247" /><rect
     x="1546.5"
     y="807.5"
     stroke="#000000"
     stroke-miterlimit="10"
     width="37"
     height="36"
     id="rect249" /><rect
     x="1546.5"
     y="771.5"
     stroke="#000000"
     stroke-miterlimit="10"
     width="37"
     height="36"
     id="rect251" /><rect
     x="1583.5"
     y="736.5"
     stroke="#000000"
     stroke-miterlimit="10"
     width="37"
     height="36"
     id="rect253" /><rect
     x="1266.5"
     y="394.5"
     fill="#00AFE5"
     stroke="#00AFE5"
     stroke-miterlimit="10"
     width="36"
     height="36"
     id="rect255" /><rect
     x="1248.5"
     y="953.5"
     stroke="#000000"
     stroke-miterlimit="10"
     width="37"
     height="36"
     id="rect257" /><rect
     x="219.5"
     y="446.5"
     stroke="#000000"
     stroke-miterlimit="10"
     width="37"
     height="36"
     id="rect259" /><rect
     x="292.5"
     y="590.5"
     stroke="#000000"
     stroke-miterlimit="10"
     width="37"
     height="36"
     id="rect261" /><rect
     x="292.5"
     y="554.5"
     stroke="#000000"
     stroke-miterlimit="10"
     width="37"
     height="36"
     id="rect263" /><rect
     x="255.5"
     y="518.5"
     stroke="#000000"
     stroke-miterlimit="10"
     width="37"
     height="36"
     id="rect265" /><rect
     x="255.5"
     y="482.5"
     stroke="#000000"
     stroke-miterlimit="10"
     width="37"
     height="36"
     id="rect267" /><rect
     x="513.5"
     y="84.5"
     stroke="#000000"
     stroke-miterlimit="10"
     width="37"
     height="36"
     id="rect269" /><rect
     x="476.5"
     y="84.5"
     stroke="#000000"
     stroke-miterlimit="10"
     width="37"
     height="36"
     id="rect271" /><rect
     x="439.5"
     y="84.5"
     stroke="#000000"
     stroke-miterlimit="10"
     width="37"
     height="36"
     id="rect273" /><rect
     x="329.5"
     y="809.5"
     stroke="#000000"
     stroke-miterlimit="10"
     width="37"
     height="36"
     id="rect275" /><rect
     x="919.5"
     y="954.5"
     stroke="#000000"
     stroke-miterlimit="10"
     width="37"
     height="36"
     id="rect277" /><rect
     x="403.5"
     y="954.5"
     stroke="#000000"
     stroke-miterlimit="10"
     width="37"
     height="36"
     id="rect279" /><rect
     x="403.5"
     y="917.5"
     stroke="#000000"
     stroke-miterlimit="10"
     width="37"
     height="37"
     id="rect281" /><rect
     x="735.5"
     y="157.5"
     stroke="#000000"
     stroke-miterlimit="10"
     width="36"
     height="36"
     id="rect283" /><rect
     x="1375.5"
     y="358.5"
     fill="#00AFE5"
     stroke="#00AFE5"
     stroke-miterlimit="10"
     width="36"
     height="36"
     id="rect285" /><rect
     x="1266.5"
     y="430.5"
     fill="#00AFE5"
     stroke="#00AFE5"
     stroke-miterlimit="10"
     width="36"
     height="36"
     id="rect287" /><path
     style="fill:#ffffff;stroke:#000000;stroke-width:32.19178009;stroke-linecap:butt;stroke-linejoin:round;stroke-miterlimit:4;stroke-opacity:0;stroke-dasharray:none"
     d="m 630.9589,1041.4932 0,-16.0959 -74.04109,0 -74.0411,0 0,-19.3151 c 0,-17.16898 -2.14611,-19.31508 -19.31507,-19.31508 l -19.31506,0 0,-54.72602 0,-54.72603 -19.31507,0 c -17.16896,0 -19.31507,-2.1461 -19.31507,-19.31507 0,-17.16897 -2.14612,-19.31507 -19.31507,-19.31507 l -19.31507,0 0,-54.72603 c 0,-54.08219 -0.18936,-54.72602 -16.09589,-54.72602 -12.87671,0 -16.09589,-3.21918 -16.09589,-16.09589 0,-13.59209 -3.00457,-16.09589 -19.31507,-16.09589 -18.88584,0 -19.31507,-0.71538 -19.31507,-32.19178 0,-31.47641 0.42925,-32.19179 19.31507,-32.19179 l 19.31507,0 0,-41.84931 0,-41.84932 -19.31507,0 c -19.11996,0 -19.31507,-0.35769 -19.31507,-35.41095 0,-35.05327 -0.1951,-35.41096 -19.31506,-35.41096 -16.31051,0 -19.31507,-2.50381 -19.31507,-16.09589 0,-12.87672 -3.21918,-16.09589 -16.09589,-16.09589 -13.59209,0 -16.09589,-3.00457 -16.09589,-19.31507 0,-17.16895 -2.14612,-19.31507 -19.31507,-19.31507 l -19.31507,0 0,-51.50685 0,-51.50685 19.31507,0 c 16.3105,0 19.31507,-2.50381 19.31507,-16.09589 0,-12.87671 3.21917,-16.09589 16.09589,-16.09589 15.21793,0 16.09589,-1.93151 16.09589,-35.41096 0,-35.05327 0.19508,-35.41096 19.31507,-35.41096 17.16895,0 19.31506,-2.14612 19.31506,-19.31507 0,-19.31507 0,-19.31507 38.63014,-19.31507 38.63014,0 38.63014,0 38.63014,-19.31506 l 0,-19.31507 86.91781,0 86.9178,0 0,19.31507 c 0,17.16895 2.14612,19.31506 19.31507,19.31506 16.3105,0 19.31507,2.50381 19.31507,16.09589 0,15.21794 1.93151,16.0959 35.41096,16.0959 35.05327,0 35.41096,0.19508 35.41096,19.31506 l 0,19.31507 41.84931,0 41.84932,0 0,-19.31507 c 0,-16.3105 2.5038,-19.31506 16.09589,-19.31506 12.87671,0 16.09589,-3.21918 16.09589,-16.0959 l 0,-16.09589 109.45205,0 109.45206,0 0,19.31507 0,19.31507 70.82195,0 70.8219,0 0,16.09589 c 0,13.59209 3.0046,16.09589 19.3151,16.09589 17.1689,0 19.315,2.14612 19.315,19.31507 0,17.16895 2.1461,19.31507 19.3151,19.31507 17.2361,0 19.3151,2.11198 19.3151,19.62229 l 0,19.62229 40.2397,-1.91681 c 38.5644,-1.83701 40.3245,-2.65396 42.2769,-19.62229 1.6002,-13.90665 5.399,-17.70548 17.7055,-17.70548 13.1169,0 15.6683,-3.14515 15.6683,-19.31507 l 0,-19.31507 51.5068,0 51.5069,0 0,19.31507 c 0,17.16895 2.1461,19.31507 19.315,19.31507 17.169,0 19.3151,2.14612 19.3151,19.31507 0,17.16895 2.1461,19.31507 19.3151,19.31507 16.3105,0 19.315,2.5038 19.315,16.09589 0,15.38051 1.717,16.09589 38.6302,16.09589 38.6301,0 38.6301,0 38.6301,19.31507 0,16.3105 2.5038,19.31506 16.0959,19.31506 12.8767,0 16.0959,3.21918 16.0959,16.09589 0,15.38052 1.7169,16.09589 38.6301,16.09589 l 38.6302,0 0,38.63014 c 0,38.63014 0,38.63014 19.315,38.63014 16.3105,0 19.3151,2.5038 19.3151,16.09589 0,12.87671 3.2192,16.09589 16.0959,16.09589 15.0228,0 16.0959,2.14612 16.0959,32.19178 0,31.47641 -0.4294,32.19178 -19.3151,32.19178 -17.169,0 -19.315,2.14612 -19.315,19.31507 0,16.3105 -2.5039,19.31507 -16.0959,19.31507 -12.8768,0 -16.0959,3.21918 -16.0959,16.09589 0,15.38052 -1.7169,16.09589 -38.6302,16.09589 -38.6301,0 -38.6301,0 -38.6301,19.31507 0,17.16895 -2.1461,19.31507 -19.3151,19.31507 -19.12,0 -19.315,0.35771 -19.315,35.41095 0,33.47946 -0.878,35.41096 -16.0959,35.41096 -15.218,0 -16.0959,1.93151 -16.0959,35.41096 0,35.05325 -0.1951,35.41096 -19.3151,35.41096 -17.169,0 -19.3151,2.1461 -19.3151,19.31507 0,17.16897 -2.1461,19.31507 -19.315,19.31507 -17.169,0 -19.3151,2.1461 -19.3151,19.31507 0,19.31507 0,19.31507 -38.6301,19.31507 -36.9133,0 -38.6302,0.71536 -38.6302,16.09589 0,12.87671 -3.2191,16.09589 -16.0959,16.09589 -13.592,0 -16.0958,3.00458 -16.0958,19.31506 0,19.11999 -0.358,19.31507 -35.411,19.31507 -35.0533,0 -35.411,-0.19508 -35.411,-19.31507 l 0,-19.31506 -93.3561,0 -93.3562,0 0,19.31506 0,19.31507 -70.8219,0 -70.82193,0 0,-19.31507 c 0,-19.31506 0,-19.31506 -38.63014,-19.31506 -38.63014,0 -38.63014,0 -38.63014,19.31506 0,19.31507 0,19.31507 -38.63013,19.31507 -36.91324,0 -38.63014,0.71537 -38.63014,16.09588 0,15.218 -1.93151,16.0959 -35.41096,16.0959 -35.05327,0 -35.41096,0.1951 -35.41096,19.3151 l 0,19.315 -51.50685,0 c -50.6484,0 -51.50685,-0.2684 -51.50685,-16.0958 z m 64.38357,-103.01375 c 0,-12.87671 3.21917,-16.09589 16.09589,-16.09589 13.59208,0 16.09589,-3.00459 16.09589,-19.31507 0,-16.31048 2.5038,-19.31507 16.09589,-19.31507 13.59208,0 16.09589,3.00459 16.09589,19.31507 l 0,19.31507 57.9452,0 57.94521,0 0,-19.31507 c 0,-19.11998 0.35797,-19.31507 35.41096,-19.31507 l 35.41096,0 0,-22.53424 0,-22.53425 -38.63014,0 c -38.63014,0 -38.63014,0 -38.63014,19.31507 l 0,19.31507 -51.50685,0 -51.50685,0 0,-19.31507 c 0,-19.31507 0,-19.31507 -38.63013,-19.31507 -38.63014,0 -38.63014,0 -38.63014,19.31507 0,18.88582 -0.71537,19.31507 -32.19178,19.31507 -31.47641,0 -32.19178,-0.42944 -32.19178,-19.31507 0,-19.31507 0,-19.31507 -38.63014,-19.31507 l -38.63014,0 0,-35.41096 c 0,-33.47945 -0.87796,-35.41096 -16.09589,-35.41096 -13.59208,0 -16.09589,-3.00458 -16.09589,-19.31506 0,-17.78213 -1.78843,-19.31507 -22.53424,-19.31507 -21.46119,0 -22.53425,1.07306 -22.53425,22.53424 0,20.7458 1.53294,22.53425 19.31507,22.53425 l 19.31507,0 0,54.72603 c 0,54.08219 0.18935,54.72602 16.09589,54.72602 13.59208,0 16.09589,3.00459 16.09589,19.31507 0,17.16897 2.14611,19.31507 19.31507,19.31507 16.3105,0 19.31506,2.50381 19.31506,16.09589 0,15.97665 0.42925,16.09589 57.94521,16.09589 57.51598,0 57.94521,-0.11911 57.94521,-16.09589 z m 611.64383,-486.09589 0,-19.31507 54.726,0 c 54.0822,0 54.7261,-0.18935 54.7261,-16.09589 0,-12.87671 3.2191,-16.09589 16.0958,-16.09589 14.1031,0 16.0959,-2.78995 16.0959,-22.53424 l 0,-22.53425 -38.6301,0 c -36.9132,0 -38.6301,0.71537 -38.6301,16.09589 0,15.82762 -0.8585,16.09589 -51.5069,16.09589 -50.6484,0 -51.5068,-0.26829 -51.5068,-16.09589 0,-15.21793 -1.9315,-16.09589 -35.411,-16.09589 -35.0532,0 -35.411,-0.19508 -35.411,-19.31507 0,-19.11997 -0.3579,-19.31507 -35.4109,-19.31507 -33.4795,0 -35.411,-0.87796 -35.411,-16.09589 l 0,-16.09589 -77.2602,0 -77.26032,0 0,19.31507 0,19.31507 74.04112,0 74.0411,0 0,19.31507 c 0,16.3105 2.5038,19.31507 16.0959,19.31507 13.592,0 16.0959,3.00456 16.0959,19.31506 0,17.16896 2.1461,19.31507 19.315,19.31507 16.3105,0 19.3151,2.50381 19.3151,16.09589 0,15.21793 1.9315,16.09589 35.4109,16.09589 35.0533,0 35.411,0.19509 35.411,19.31507 0,17.78213 1.7885,19.31507 22.5343,19.31507 20.7458,0 22.5342,-1.53294 22.5342,-19.31507 z"
     id="path3270"
     inkscape:connector-curvature="0" /></svg>