<?xml version="1.0" encoding="UTF-8" standalone="no"?>
<!-- Generator: Adobe Illustrator 16.0.0, SVG Export Plug-In . SVG Version: 6.00 Build 0)  -->

<svg
   xmlns:dc="http://purl.org/dc/elements/1.1/"
   xmlns:cc="http://creativecommons.org/ns#"
   xmlns:rdf="http://www.w3.org/1999/02/22-rdf-syntax-ns#"
   xmlns:svg="http://www.w3.org/2000/svg"
   xmlns="http://www.w3.org/2000/svg"
   xmlns:sodipodi="http://sodipodi.sourceforge.net/DTD/sodipodi-0.dtd"
   xmlns:inkscape="http://www.inkscape.org/namespaces/inkscape"
   version="1.1"
   id="Layer_1"
   x="0px"
   y="0px"
   width="2392px"
   height="1388px"
   viewBox="0 0 2392 1388"
   enable-background="new 0 0 2392 1388"
   xml:space="preserve"
   inkscape:version="0.48.4 r9939"
   sodipodi:docname="cloud3.svg"><metadata
     id="metadata375"><rdf:RDF><cc:Work
         rdf:about=""><dc:format>image/svg+xml</dc:format><dc:type
           rdf:resource="http://purl.org/dc/dcmitype/StillImage" /></cc:Work></rdf:RDF></metadata><defs
     id="defs373" /><sodipodi:namedview
     pagecolor="#ffffff"
     bordercolor="#666666"
     borderopacity="1"
     objecttolerance="10"
     gridtolerance="10"
     guidetolerance="10"
     inkscape:pageopacity="0"
     inkscape:pageshadow="2"
     inkscape:window-width="1535"
     inkscape:window-height="876"
     id="namedview371"
     showgrid="false"
     inkscape:zoom="0.12207358"
     inkscape:cx="1196"
     inkscape:cy="694"
     inkscape:window-x="65"
     inkscape:window-y="24"
     inkscape:window-maximized="1"
     inkscape:current-layer="Layer_1" /><rect
     x="819.5"
     y="245.5"
     stroke="#000000"
     stroke-miterlimit="10"
     width="42"
     height="36"
     id="rect3" /><rect
     x="846.5"
     y="245.5"
     stroke="#000000"
     stroke-miterlimit="10"
     width="52"
     height="36"
     id="rect5" /><rect
     x="568.5"
     y="318.5"
     stroke="#000000"
     stroke-miterlimit="10"
     width="36"
     height="36"
     id="rect7" /><rect
     x="309.5"
     y="1041.5"
     stroke="#000000"
     stroke-miterlimit="10"
     width="37"
     height="37"
     id="rect9" /><rect
     x="788.5"
     y="245.5"
     stroke="#000000"
     stroke-miterlimit="10"
     width="37"
     height="36"
     id="rect11" /><rect
     x="493.5"
     y="281.5"
     stroke="#000000"
     stroke-miterlimit="10"
     width="36"
     height="36"
     id="rect13" /><rect
     x="456.5"
     y="245.5"
     stroke="#000000"
     stroke-miterlimit="10"
     width="37"
     height="36"
     id="rect15" /><rect
     x="520.5"
     y="281.5"
     stroke="#000000"
     stroke-miterlimit="10"
     width="48"
     height="36"
     id="rect17" /><rect
     x="297.5"
     y="208.5"
     stroke="#000000"
     stroke-miterlimit="10"
     width="49"
     height="36"
     id="rect19" /><rect
     x="273.5"
     y="208.5"
     stroke="#000000"
     stroke-miterlimit="10"
     width="37"
     height="36"
     id="rect21" /><rect
     x="235.5"
     y="896.5"
     stroke="#000000"
     stroke-miterlimit="10"
     width="37"
     height="36"
     id="rect23" /><rect
     x="604.5"
     y="318.5"
     stroke="#000000"
     stroke-miterlimit="10"
     width="36"
     height="36"
     id="rect25" /><rect
     x="236.5"
     y="244.5"
     stroke="#000000"
     stroke-miterlimit="10"
     width="37"
     height="36"
     id="rect27" /><rect
     x="198.5"
     y="244.5"
     stroke="#000000"
     stroke-miterlimit="10"
     width="37"
     height="36"
     id="rect29" /><rect
     x="162.5"
     y="280.5"
     stroke="#000000"
     stroke-miterlimit="10"
     width="36"
     height="38"
     id="rect31" /><rect
     x="235.5"
     y="859.5"
     stroke="#000000"
     stroke-miterlimit="10"
     width="37"
     height="37"
     id="rect33" /><rect
     x="273.5"
     y="969.5"
     stroke="#000000"
     stroke-miterlimit="10"
     width="36"
     height="37"
     id="rect35" /><rect
     x="863.5"
     y="1114.5"
     stroke="#000000"
     stroke-miterlimit="10"
     width="37"
     height="36"
     id="rect37" /><rect
     x="788.5"
     y="1078.5"
     stroke="#000000"
     stroke-miterlimit="10"
     width="37"
     height="36"
     id="rect39" /><rect
     x="751.5"
     y="1114.5"
     stroke="#000000"
     stroke-miterlimit="10"
     width="37"
     height="36"
     id="rect41" /><rect
     x="714.5"
     y="1114.5"
     stroke="#000000"
     stroke-miterlimit="10"
     width="37"
     height="36"
     id="rect43" /><rect
     x="603.5"
     y="1186.5"
     stroke="#000000"
     stroke-miterlimit="10"
     width="37"
     height="36"
     id="rect45" /><rect
     x="567.5"
     y="1186.5"
     stroke="#000000"
     stroke-miterlimit="10"
     width="37"
     height="36"
     id="rect47" /><rect
     x="531.5"
     y="1186.5"
     stroke="#000000"
     stroke-miterlimit="10"
     width="37"
     height="36"
     id="rect49" /><rect
     x="494.5"
     y="1150.5"
     stroke="#000000"
     stroke-miterlimit="10"
     width="37"
     height="36"
     id="rect51" /><rect
     x="457.5"
     y="1150.5"
     stroke="#000000"
     stroke-miterlimit="10"
     width="37"
     height="36"
     id="rect53" /><rect
     x="420.5"
     y="1150.5"
     stroke="#000000"
     stroke-miterlimit="10"
     width="37"
     height="36"
     id="rect55" /><rect
     x="383.5"
     y="1150.5"
     stroke="#000000"
     stroke-miterlimit="10"
     width="37"
     height="36"
     id="rect57" /><rect
     x="346.5"
     y="1114.5"
     stroke="#000000"
     stroke-miterlimit="10"
     width="37"
     height="36"
     id="rect59" /><rect
     x="125.5"
     y="318.5"
     stroke="#000000"
     stroke-miterlimit="10"
     width="37"
     height="36"
     id="rect61" /><rect
     x="751.5"
     y="245.5"
     stroke="#000000"
     stroke-miterlimit="10"
     width="37"
     height="36"
     id="rect63" /><rect
     x="714.5"
     y="245.5"
     stroke="#000000"
     stroke-miterlimit="10"
     width="37"
     height="36"
     id="rect65" /><rect
     x="677.5"
     y="245.5"
     stroke="#000000"
     stroke-miterlimit="10"
     width="37"
     height="36"
     id="rect67" /><rect
     x="88.5"
     y="534.5"
     stroke="#000000"
     stroke-miterlimit="10"
     width="37"
     height="36"
     id="rect69" /><rect
     x="51.5"
     y="498.5"
     stroke="#000000"
     stroke-miterlimit="10"
     width="37"
     height="36"
     id="rect71" /><rect
     x="51.5"
     y="462.5"
     stroke="#000000"
     stroke-miterlimit="10"
     width="37"
     height="36"
     id="rect73" /><rect
     x="51.5"
     y="426.5"
     stroke="#000000"
     stroke-miterlimit="10"
     width="37"
     height="36"
     id="rect75" /><rect
     x="88.5"
     y="390.5"
     stroke="#000000"
     stroke-miterlimit="10"
     width="37"
     height="36"
     id="rect77" /><rect
     x="125.5"
     y="354.5"
     stroke="#000000"
     stroke-miterlimit="10"
     width="37"
     height="36"
     id="rect79" /><rect
     x="161.5"
     y="750.5"
     stroke="#000000"
     stroke-miterlimit="10"
     width="37"
     height="36"
     id="rect81" /><rect
     x="161.5"
     y="786.5"
     stroke="#000000"
     stroke-miterlimit="10"
     width="37"
     height="36"
     id="rect83" /><rect
     x="198.5"
     y="822.5"
     stroke="#000000"
     stroke-miterlimit="10"
     width="37"
     height="36"
     id="rect85" /><rect
     x="640.5"
     y="1149.5"
     stroke="#000000"
     stroke-miterlimit="10"
     width="37"
     height="36"
     id="rect87" /><rect
     x="677.5"
     y="1149.5"
     stroke="#000000"
     stroke-miterlimit="10"
     width="37"
     height="36"
     id="rect89" /><rect
     x="452.5"
     y="896.5"
     fill="#00AFE5"
     stroke="#00AFE5"
     stroke-miterlimit="10"
     width="79"
     height="36"
     id="rect91" /><rect
     x="416.5"
     y="859.5"
     fill="#00AFE5"
     stroke="#00AFE5"
     stroke-miterlimit="10"
     width="81"
     height="36"
     id="rect93" /><rect
     x="488.5"
     y="896.5"
     fill="#00AFE5"
     stroke="#00AFE5"
     stroke-miterlimit="10"
     width="36"
     height="36"
     id="rect95" /><rect
     x="379.5"
     y="750.5"
     fill="#00AFE5"
     stroke="#00AFE5"
     stroke-miterlimit="10"
     width="36"
     height="36"
     id="rect97" /><rect
     x="416.5"
     y="786.5"
     fill="#00AFE5"
     stroke="#00AFE5"
     stroke-miterlimit="10"
     width="36"
     height="36"
     id="rect99" /><rect
     x="1019.5"
     y="1006.5"
     fill="#00AFE5"
     stroke="#00AFE5"
     stroke-miterlimit="10"
     width="43"
     height="36"
     id="rect101" /><rect
     x="515.5"
     y="932.5"
     fill="#00AFE5"
     stroke="#00AFE5"
     stroke-miterlimit="10"
     width="81"
     height="36"
     id="rect103" /><rect
     x="524.5"
     y="932.5"
     fill="#00AFE5"
     stroke="#00AFE5"
     stroke-miterlimit="10"
     width="36"
     height="36"
     id="rect105" /><rect
     x="488.5"
     y="926.5"
     fill="#00AFE5"
     stroke="#00AFE5"
     stroke-miterlimit="10"
     width="36"
     height="42"
     id="rect107" /><rect
     x="452.5"
     y="859.5"
     fill="#00AFE5"
     stroke="#00AFE5"
     stroke-miterlimit="10"
     width="36"
     height="45"
     id="rect109" /><rect
     x="738.5"
     y="933.5"
     fill="#00AFE5"
     stroke="#00AFE5"
     stroke-miterlimit="10"
     width="36"
     height="36"
     id="rect111" /><rect
     x="702.5"
     y="933.5"
     fill="#00AFE5"
     stroke="#00AFE5"
     stroke-miterlimit="10"
     width="36"
     height="36"
     id="rect113" /><rect
     x="666.5"
     y="933.5"
     fill="#00AFE5"
     stroke="#00AFE5"
     stroke-miterlimit="10"
     width="36"
     height="36"
     id="rect115" /><rect
     x="631.5"
     y="933.5"
     fill="#00AFE5"
     stroke="#00AFE5"
     stroke-miterlimit="10"
     width="36"
     height="36"
     id="rect117" /><rect
     x="587.5"
     y="968.5"
     fill="#00AFE5"
     stroke="#00AFE5"
     stroke-miterlimit="10"
     width="45"
     height="36"
     id="rect119" /><rect
     x="560.5"
     y="952.5"
     fill="#00AFE5"
     stroke="#00AFE5"
     stroke-miterlimit="10"
     width="36"
     height="52"
     id="rect121" /><rect
     x="524.5"
     y="896.5"
     fill="#00AFE5"
     stroke="#00AFE5"
     stroke-miterlimit="10"
     width="36"
     height="48"
     id="rect123" /><rect
     x="639.5"
     y="933.5"
     fill="#00AFE5"
     stroke="#00AFE5"
     stroke-miterlimit="10"
     width="208"
     height="36"
     id="rect125" /><rect
     x="416.5"
     y="810.5"
     fill="#00AFE5"
     stroke="#00AFE5"
     stroke-miterlimit="10"
     width="36"
     height="60"
     id="rect127" /><rect
     x="488.5"
     y="859.5"
     fill="#00AFE5"
     stroke="#00AFE5"
     stroke-miterlimit="10"
     width="36"
     height="45"
     id="rect129" /><rect
     x="775.5"
     y="933.5"
     fill="#00AFE5"
     stroke="#00AFE5"
     stroke-miterlimit="10"
     width="36"
     height="36"
     id="rect131" /><rect
     x="125.5"
     y="570.5"
     stroke="#000000"
     stroke-miterlimit="10"
     width="37"
     height="36"
     id="rect133" /><rect
     x="198.5"
     y="714.5"
     stroke="#000000"
     stroke-miterlimit="10"
     width="37"
     height="36"
     id="rect135" /><rect
     x="198.5"
     y="678.5"
     stroke="#000000"
     stroke-miterlimit="10"
     width="37"
     height="36"
     id="rect137" /><rect
     x="161.5"
     y="642.5"
     stroke="#000000"
     stroke-miterlimit="10"
     width="37"
     height="36"
     id="rect139" /><rect
     x="161.5"
     y="606.5"
     stroke="#000000"
     stroke-miterlimit="10"
     width="37"
     height="36"
     id="rect141" /><rect
     x="419.5"
     y="208.5"
     stroke="#000000"
     stroke-miterlimit="10"
     width="37"
     height="36"
     id="rect143" /><rect
     x="382.5"
     y="208.5"
     stroke="#000000"
     stroke-miterlimit="10"
     width="37"
     height="36"
     id="rect145" /><rect
     x="345.5"
     y="208.5"
     stroke="#000000"
     stroke-miterlimit="10"
     width="37"
     height="36"
     id="rect147" /><rect
     x="235.5"
     y="933.5"
     stroke="#000000"
     stroke-miterlimit="10"
     width="37"
     height="36"
     id="rect149" /><rect
     x="825.5"
     y="1078.5"
     stroke="#000000"
     stroke-miterlimit="10"
     width="37"
     height="36"
     id="rect151" /><rect
     x="309.5"
     y="1078.5"
     stroke="#000000"
     stroke-miterlimit="10"
     width="37"
     height="36"
     id="rect153" /><rect
     x="309.5"
     y="1004.5"
     stroke="#000000"
     stroke-miterlimit="10"
     width="37"
     height="37"
     id="rect155" /><rect
     x="641.5"
     y="281.5"
     stroke="#000000"
     stroke-miterlimit="10"
     width="36"
     height="36"
     id="rect157" /><rect
     x="1820.5"
     y="1000.5"
     stroke="#000000"
     stroke-miterlimit="10"
     width="37"
     height="36"
     id="rect159" /><rect
     x="1783.5"
     y="964.5"
     stroke="#000000"
     stroke-miterlimit="10"
     width="37"
     height="36"
     id="rect161" /><rect
     x="1746.5"
     y="964.5"
     stroke="#000000"
     stroke-miterlimit="10"
     width="37"
     height="36"
     id="rect163" /><rect
     x="2117.5"
     y="496.5"
     stroke="#000000"
     stroke-miterlimit="10"
     width="37"
     height="36"
     id="rect165" /><rect
     x="2080.5"
     y="460.5"
     stroke="#000000"
     stroke-miterlimit="10"
     width="37"
     height="36"
     id="rect167" /><rect
     x="2043.5"
     y="460.5"
     stroke="#000000"
     stroke-miterlimit="10"
     width="37"
     height="36"
     id="rect169" /><rect
     x="2006.5"
     y="460.5"
     stroke="#000000"
     stroke-miterlimit="10"
     width="37"
     height="36"
     id="rect171" /><rect
     x="1970.5"
     y="460.5"
     stroke="#000000"
     stroke-miterlimit="10"
     width="37"
     height="36"
     id="rect173" /><rect
     x="1933.5"
     y="424.5"
     stroke="#000000"
     stroke-miterlimit="10"
     width="37"
     height="36"
     id="rect175" /><rect
     x="1933.5"
     y="388.5"
     stroke="#000000"
     stroke-miterlimit="10"
     width="37"
     height="36"
     id="rect177" /><rect
     x="1896.5"
     y="352.5"
     stroke="#000000"
     stroke-miterlimit="10"
     width="37"
     height="36"
     id="rect179" /><rect
     x="1709.5"
     y="964.5"
     stroke="#000000"
     stroke-miterlimit="10"
     width="37"
     height="36"
     id="rect181" /><rect
     x="1672.5"
     y="1000.5"
     stroke="#000000"
     stroke-miterlimit="10"
     width="37"
     height="36"
     id="rect183" /><rect
     x="1635.5"
     y="1036.5"
     stroke="#000000"
     stroke-miterlimit="10"
     width="37"
     height="36"
     id="rect185" /><rect
     x="1596.5"
     y="1036.5"
     stroke="#000000"
     stroke-miterlimit="10"
     width="39"
     height="36"
     id="rect187" /><rect
     x="2301.5"
     y="676.5"
     stroke="#000000"
     stroke-miterlimit="10"
     width="37"
     height="36"
     id="rect189" /><rect
     x="2265.5"
     y="640.5"
     stroke="#000000"
     stroke-miterlimit="10"
     width="37"
     height="36"
     id="rect191" /><rect
     x="2228.5"
     y="604.5"
     stroke="#000000"
     stroke-miterlimit="10"
     width="37"
     height="36"
     id="rect193" /><rect
     x="2228.5"
     y="568.5"
     stroke="#000000"
     stroke-miterlimit="10"
     width="37"
     height="36"
     id="rect195" /><rect
     x="2191.5"
     y="532.5"
     stroke="#000000"
     stroke-miterlimit="10"
     width="37"
     height="36"
     id="rect197" /><rect
     x="2154.5"
     y="532.5"
     stroke="#000000"
     stroke-miterlimit="10"
     width="37"
     height="36"
     id="rect199" /><rect
     x="2227.5"
     y="784.5"
     stroke="#000000"
     stroke-miterlimit="10"
     width="37"
     height="36"
     id="rect201" /><rect
     x="2190.5"
     y="820.5"
     stroke="#000000"
     stroke-miterlimit="10"
     width="37"
     height="36"
     id="rect203" /><rect
     x="2153.5"
     y="820.5"
     stroke="#000000"
     stroke-miterlimit="10"
     width="37"
     height="36"
     id="rect205" /><rect
     x="2116.5"
     y="856.5"
     stroke="#000000"
     stroke-miterlimit="10"
     width="37"
     height="36"
     id="rect207" /><rect
     x="2079.5"
     y="892.5"
     stroke="#000000"
     stroke-miterlimit="10"
     width="37"
     height="36"
     id="rect209" /><rect
     x="2042.5"
     y="892.5"
     stroke="#000000"
     stroke-miterlimit="10"
     width="37"
     height="36"
     id="rect211" /><rect
     x="2005.5"
     y="928.5"
     stroke="#000000"
     stroke-miterlimit="10"
     width="37"
     height="36"
     id="rect213" /><rect
     x="1968.5"
     y="964.5"
     stroke="#000000"
     stroke-miterlimit="10"
     width="37"
     height="36"
     id="rect215" /><rect
     x="1931.5"
     y="964.5"
     stroke="#000000"
     stroke-miterlimit="10"
     width="37"
     height="36"
     id="rect217" /><rect
     x="1894.5"
     y="964.5"
     stroke="#000000"
     stroke-miterlimit="10"
     width="37"
     height="36"
     id="rect219" /><rect
     x="1857.5"
     y="1000.5"
     stroke="#000000"
     stroke-miterlimit="10"
     width="37"
     height="36"
     id="rect221" /><rect
     x="2301.5"
     y="712.5"
     stroke="#000000"
     stroke-miterlimit="10"
     width="37"
     height="36"
     id="rect223" /><rect
     x="2264.5"
     y="748.5"
     stroke="#000000"
     stroke-miterlimit="10"
     width="37"
     height="36"
     id="rect225" /><rect
     x="1414.5"
     y="100.5"
     stroke="#000000"
     stroke-miterlimit="10"
     width="42"
     height="36"
     id="rect227" /><rect
     x="1441.5"
     y="100.5"
     stroke="#000000"
     stroke-miterlimit="10"
     width="52"
     height="36"
     id="rect229" /><rect
     x="1530.5"
     y="136.5"
     stroke="#000000"
     stroke-miterlimit="10"
     width="37"
     height="37"
     id="rect231" /><rect
     x="1180.5"
     y="26.5"
     stroke="#000000"
     stroke-miterlimit="10"
     width="50"
     height="38"
     id="rect233" /><rect
     x="1157.5"
     y="26.5"
     stroke="#000000"
     stroke-miterlimit="10"
     width="36"
     height="38"
     id="rect235" /><rect
     x="1377.5"
     y="64.5"
     stroke="#000000"
     stroke-miterlimit="10"
     width="37"
     height="36"
     id="rect237" /><rect
     x="1082.5"
     y="64.5"
     stroke="#000000"
     stroke-miterlimit="10"
     width="36"
     height="36"
     id="rect239" /><rect
     x="1045.5"
     y="100.5"
     stroke="#000000"
     stroke-miterlimit="10"
     width="37"
     height="36"
     id="rect241" /><rect
     x="1109.5"
     y="64.5"
     stroke="#000000"
     stroke-miterlimit="10"
     width="48"
     height="36"
     id="rect243" /><rect
     x="996.5"
     y="136.5"
     stroke="#000000"
     stroke-miterlimit="10"
     width="49"
     height="37"
     id="rect245" /><rect
     x="972.5"
     y="136.5"
     stroke="#000000"
     stroke-miterlimit="10"
     width="37"
     height="37"
     id="rect247" /><rect
     x="1493.5"
     y="136.5"
     stroke="#000000"
     stroke-miterlimit="10"
     width="46"
     height="37"
     id="rect249" /><rect
     x="1230.5"
     y="64.5"
     stroke="#000000"
     stroke-miterlimit="10"
     width="36"
     height="36"
     id="rect251" /><rect
     x="935.5"
     y="173.5"
     stroke="#000000"
     stroke-miterlimit="10"
     width="37"
     height="36"
     id="rect253" /><rect
     x="898.5"
     y="209.5"
     stroke="#000000"
     stroke-miterlimit="10"
     width="37"
     height="36"
     id="rect255" /><rect
     x="1548.5"
     y="136.5"
     stroke="#000000"
     stroke-miterlimit="10"
     width="55"
     height="37"
     id="rect257" /><rect
     x="1640.5"
     y="173.5"
     stroke="#000000"
     stroke-miterlimit="10"
     width="36"
     height="36"
     id="rect259" /><rect
     x="1591.5"
     y="136.5"
     stroke="#000000"
     stroke-miterlimit="10"
     width="49"
     height="37"
     id="rect261" /><rect
     x="1340.5"
     y="64.5"
     stroke="#000000"
     stroke-miterlimit="10"
     width="37"
     height="36"
     id="rect263" /><rect
     x="1303.5"
     y="100.5"
     stroke="#000000"
     stroke-miterlimit="10"
     width="37"
     height="36"
     id="rect265" /><rect
     x="1266.5"
     y="100.5"
     stroke="#000000"
     stroke-miterlimit="10"
     width="37"
     height="36"
     id="rect267" /><rect
     x="1522.5"
     y="371.5"
     fill="#00AFE5"
     stroke="#00AFE5"
     stroke-miterlimit="10"
     width="83"
     height="36"
     id="rect269" /><rect
     x="1595.5"
     y="371.5"
     fill="#00AFE5"
     stroke="#00AFE5"
     stroke-miterlimit="10"
     width="36"
     height="36"
     id="rect271" /><rect
     x="1340.5"
     y="262.5"
     fill="#00AFE5"
     stroke="#00AFE5"
     stroke-miterlimit="10"
     width="36"
     height="36"
     id="rect273" /><rect
     x="1376.5"
     y="262.5"
     fill="#00AFE5"
     stroke="#00AFE5"
     stroke-miterlimit="10"
     width="36"
     height="43"
     id="rect275" /><rect
     x="1522.5"
     y="335.5"
     fill="#00AFE5"
     stroke="#00AFE5"
     stroke-miterlimit="10"
     width="36"
     height="50"
     id="rect277" /><rect
     x="1486.5"
     y="335.5"
     fill="#00AFE5"
     stroke="#00AFE5"
     stroke-miterlimit="10"
     width="41"
     height="36"
     id="rect279" /><rect
     x="1449.5"
     y="299.5"
     fill="#00AFE5"
     stroke="#00AFE5"
     stroke-miterlimit="10"
     width="36"
     height="36"
     id="rect281" /><rect
     x="1413.5"
     y="299.5"
     fill="#00AFE5"
     stroke="#00AFE5"
     stroke-miterlimit="10"
     width="36"
     height="36"
     id="rect283" /><rect
     x="1559.5"
     y="371.5"
     fill="#00AFE5"
     stroke="#00AFE5"
     stroke-miterlimit="10"
     width="36"
     height="36"
     id="rect285" /><rect
     x="1713.5"
     y="281.5"
     stroke="#000000"
     stroke-miterlimit="10"
     width="37"
     height="36"
     id="rect287" /><rect
     x="1860.5"
     y="317.5"
     stroke="#000000"
     stroke-miterlimit="10"
     width="37"
     height="36"
     id="rect289" /><rect
     x="1823.5"
     y="317.5"
     stroke="#000000"
     stroke-miterlimit="10"
     width="37"
     height="36"
     id="rect291" /><rect
     x="1786.5"
     y="317.5"
     stroke="#000000"
     stroke-miterlimit="10"
     width="37"
     height="36"
     id="rect293" /><rect
     x="1750.5"
     y="317.5"
     stroke="#000000"
     stroke-miterlimit="10"
     width="37"
     height="36"
     id="rect295" /><rect
     x="1676.5"
     y="209.5"
     stroke="#000000"
     stroke-miterlimit="10"
     width="37"
     height="36"
     id="rect297" /><rect
     x="1713.5"
     y="245.5"
     stroke="#000000"
     stroke-miterlimit="10"
     width="37"
     height="36"
     id="rect299" /><rect
     x="936.5"
     y="1187.5"
     stroke="#000000"
     stroke-miterlimit="10"
     width="37"
     height="37"
     id="rect301" /><rect
     x="900.5"
     y="1150.5"
     stroke="#000000"
     stroke-miterlimit="10"
     width="36"
     height="37"
     id="rect303" /><rect
     x="1378.5"
     y="1224.5"
     stroke="#000000"
     stroke-miterlimit="10"
     width="37"
     height="36"
     id="rect305" /><rect
     x="1341.5"
     y="1260.5"
     stroke="#000000"
     stroke-miterlimit="10"
     width="37"
     height="36"
     id="rect307" /><rect
     x="1304.5"
     y="1260.5"
     stroke="#000000"
     stroke-miterlimit="10"
     width="37"
     height="36"
     id="rect309" /><rect
     x="1267.5"
     y="1296.5"
     stroke="#000000"
     stroke-miterlimit="10"
     width="37"
     height="36"
     id="rect311" /><rect
     x="1230.5"
     y="1296.5"
     stroke="#000000"
     stroke-miterlimit="10"
     width="37"
     height="36"
     id="rect313" /><rect
     x="1194.5"
     y="1296.5"
     stroke="#000000"
     stroke-miterlimit="10"
     width="37"
     height="36"
     id="rect315" /><rect
     x="1158.5"
     y="1296.5"
     stroke="#000000"
     stroke-miterlimit="10"
     width="37"
     height="36"
     id="rect317" /><rect
     x="1121.5"
     y="1260.5"
     stroke="#000000"
     stroke-miterlimit="10"
     width="37"
     height="36"
     id="rect319" /><rect
     x="1084.5"
     y="1260.5"
     stroke="#000000"
     stroke-miterlimit="10"
     width="37"
     height="36"
     id="rect321" /><rect
     x="1047.5"
     y="1260.5"
     stroke="#000000"
     stroke-miterlimit="10"
     width="37"
     height="36"
     id="rect323" /><rect
     x="1010.5"
     y="1260.5"
     stroke="#000000"
     stroke-miterlimit="10"
     width="37"
     height="36"
     id="rect325" /><rect
     x="973.5"
     y="1224.5"
     stroke="#000000"
     stroke-miterlimit="10"
     width="37"
     height="36"
     id="rect327" /><rect
     x="1522.5"
     y="1187.5"
     stroke="#000000"
     stroke-miterlimit="10"
     width="37"
     height="36"
     id="rect329" /><rect
     x="1414.5"
     y="1224.5"
     stroke="#000000"
     stroke-miterlimit="10"
     width="37"
     height="36"
     id="rect331" /><rect
     x="1485.5"
     y="1224.5"
     stroke="#000000"
     stroke-miterlimit="10"
     width="37"
     height="36"
     id="rect333" /><rect
     x="1559.5"
     y="1151.5"
     stroke="#000000"
     stroke-miterlimit="10"
     width="37"
     height="36"
     id="rect335" /><rect
     x="1559.5"
     y="1115.5"
     stroke="#000000"
     stroke-miterlimit="10"
     width="37"
     height="36"
     id="rect337" /><rect
     x="1559.5"
     y="1073.5"
     stroke="#000000"
     stroke-miterlimit="10"
     width="37"
     height="42"
     id="rect339" /><rect
     x="1448.5"
     y="1224.5"
     stroke="#000000"
     stroke-miterlimit="10"
     width="37"
     height="36"
     id="rect341" /><rect
     x="845.5"
     y="898.5"
     fill="#00AFE5"
     stroke="#00AFE5"
     stroke-miterlimit="10"
     width="36"
     height="36"
     id="rect343" /><rect
     x="870.5"
     y="898.5"
     fill="#00AFE5"
     stroke="#00AFE5"
     stroke-miterlimit="10"
     width="47"
     height="36"
     id="rect345" /><rect
     x="909.5"
     y="934.5"
     fill="#00AFE5"
     stroke="#00AFE5"
     stroke-miterlimit="10"
     width="80"
     height="36"
     id="rect347" /><rect
     x="917.5"
     y="934.5"
     fill="#00AFE5"
     stroke="#00AFE5"
     stroke-miterlimit="10"
     width="36"
     height="36"
     id="rect349" /><rect
     x="881.5"
     y="926.5"
     fill="#00AFE5"
     stroke="#00AFE5"
     stroke-miterlimit="10"
     width="36"
     height="44"
     id="rect351" /><rect
     x="953.5"
     y="962.5"
     fill="#00AFE5"
     stroke="#00AFE5"
     stroke-miterlimit="10"
     width="36"
     height="44"
     id="rect353" /><rect
     x="978.5"
     y="970.5"
     fill="#00AFE5"
     stroke="#00AFE5"
     stroke-miterlimit="10"
     width="47"
     height="36"
     id="rect355" /><rect
     x="989.5"
     y="996.5"
     fill="#00AFE5"
     stroke="#00AFE5"
     stroke-miterlimit="10"
     width="36"
     height="46"
     id="rect357" /><rect
     x="1230.5"
     y="227.5"
     fill="#00AFE5"
     stroke="#00AFE5"
     stroke-miterlimit="10"
     width="36"
     height="36"
     id="rect359" /><rect
     x="1486.5"
     y="299.5"
     fill="#00AFE5"
     stroke="#00AFE5"
     stroke-miterlimit="10"
     width="36"
     height="54"
     id="rect361" /><rect
     x="1303.5"
     y="262.5"
     fill="#00AFE5"
     stroke="#00AFE5"
     stroke-miterlimit="10"
     width="36"
     height="36"
     id="rect363" /><rect
     x="1267.5"
     y="262.5"
     fill="#00AFE5"
     stroke="#00AFE5"
     stroke-miterlimit="10"
     width="115"
     height="36"
     id="rect365" /><rect
     x="1361.5"
     y="299.5"
     fill="#00AFE5"
     stroke="#00AFE5"
     stroke-miterlimit="10"
     width="133"
     height="36"
     id="rect367" /><rect
     x="1341.5"
     y="293.5"
     fill="#00AFE5"
     stroke="#00AFE5"
     stroke-miterlimit="10"
     width="36"
     height="42"
     id="rect369" /><path
     style="fill:#ffffff;stroke:#000000;stroke-width:40.95890427;stroke-linecap:butt;stroke-linejoin:round;stroke-miterlimit:4;stroke-opacity:0;stroke-dasharray:none"
     d="m 1163.2329,1273.9781 c 0,-15.17 -5.4612,-16.3836 -73.7261,-16.3836 -73.1798,0 -73.726,-0.1515 -73.726,-20.4794 0,-16.3836 -4.0959,-20.4795 -20.47943,-20.4795 -15.01824,0 -20.47945,-4.3689 -20.47945,-16.3835 0,-10.9224 -5.46122,-16.3836 -16.38356,-16.3836 -12.01464,0 -16.38357,-5.4612 -16.38357,-20.4795 0,-16.3835 -4.09589,-20.4794 -20.47945,-20.4794 -15.01824,0 -20.47945,-4.3689 -20.47945,-16.3836 0,-10.9223 -5.46121,-16.3835 -16.38356,-16.3835 -10.92237,0 -16.38356,-5.4612 -16.38356,-16.3836 0,-14.1991 -5.46119,-16.3836 -40.95891,-16.3836 -35.49771,0 -40.9589,2.1845 -40.9589,16.3836 0,13.9563 -5.46119,16.3836 -36.86301,16.3836 -31.40183,0 -36.86302,2.4272 -36.86302,16.3835 0,13.9564 -5.46119,16.3836 -36.86301,16.3836 -33.85936,0 -36.86302,1.6687 -36.86302,20.4794 0,19.7444 -1.91141,20.4795 -53.24657,20.4795 -51.33516,0 -53.24658,-0.7348 -53.24658,-20.4795 0,-20.3277 -0.54614,-20.4794 -73.72602,-20.4794 -68.26484,0 -73.72603,-1.2136 -73.72603,-16.3836 0,-10.9223 -5.46119,-16.3835 -16.38356,-16.3835 -14.7032,0 -16.38356,-5.4612 -16.38356,-53.2466 0,-51.3352 -0.73514,-53.2466 -20.47946,-53.2466 -16.38356,0 -20.47945,-4.09588 -20.47945,-20.47944 0,-15.01823 -4.36895,-20.47945 -16.38356,-20.47945 -14.7032,0 -16.38356,-5.46121 -16.38356,-53.24657 0,-51.33517 -0.73517,-53.24658 -20.47945,-53.24658 -16.38357,0 -20.47946,-4.09589 -20.47946,-20.47945 0,-15.01826 -4.36894,-20.47945 -16.38356,-20.47945 -13.26288,0 -16.38356,-5.46119 -16.38356,-28.67124 0,-23.21004 3.12068,-28.67123 16.38356,-28.67123 14.19909,0 16.38356,-5.46119 16.38356,-40.9589 0,-35.49772 -2.18447,-40.95891 -16.38356,-40.95891 -13.95637,0 -16.38356,-5.46119 -16.38356,-36.86301 0,-33.85936 -1.6687,-36.86302 -20.47945,-36.86302 -15.01826,0 -20.47945,-4.36894 -20.47945,-16.38356 0,-10.92237 -5.46119,-16.38356 -16.38357,-16.38356 -12.01461,0 -16.38356,-5.46119 -16.38356,-20.47945 0,-16.38356 -4.09589,-20.47945 -20.47945,-20.47945 -19.569253,0 -20.479451,-2.18448 -20.479451,-49.15069 0,-46.9662 0.910198,-49.15068 20.479451,-49.15068 15.01827,0 20.47945,-4.36895 20.47945,-16.38356 0,-10.92238 5.46119,-16.38357 16.38356,-16.38357 13.95637,0 16.38357,-5.46119 16.38357,-36.86301 0,-33.85936 1.66869,-36.86301 20.47945,-36.86301 16.38356,0 20.47945,-4.09589 20.47945,-20.47946 0,-18.81075 3.00366,-20.47945 36.86301,-20.47945 31.40183,0 36.86302,-2.42719 36.86302,-16.38356 0,-15.34334 5.46119,-16.38356 86.0137,-16.38356 80.55251,0 86.0137,1.04022 86.0137,16.38356 0,12.01462 5.46119,16.38356 20.47945,16.38356 16.38356,0 20.47945,4.09589 20.47945,20.47945 0,18.81076 3.00366,20.47946 36.86301,20.47946 31.40183,0 36.86302,2.42719 36.86302,16.38356 0,14.19908 5.46119,16.38356 40.9589,16.38356 35.49771,0 40.9589,-2.18448 40.9589,-16.38356 0,-10.92237 5.46119,-16.38356 16.38357,-16.38356 12.01461,0 16.38356,-5.46119 16.38356,-20.47946 l 0,-20.47945 110.58904,0 c 105.12783,0 110.58904,-0.8091 110.58904,-16.38356 0,-12.01461 5.46121,-16.38356 20.47945,-16.38356 15.01824,0 20.47945,-4.36895 20.47945,-16.38356 0,-10.92237 5.46122,-16.38356 16.38357,-16.38356 12.01464,0 16.38356,-5.46119 16.38356,-20.47946 0,-18.81075 3.00368,-20.47945 36.86298,-20.47945 31.4018,0 36.863,-2.42719 36.863,-16.38356 0,-12.01461 5.4613,-16.38356 20.4795,-16.38356 16.3836,0 20.4794,-4.09589 20.4794,-20.47945 0,-18.81076 3.0037,-20.47946 36.8631,-20.47946 31.4018,0 36.863,-2.42719 36.863,-16.383557 0,-13.652968 5.4612,-16.383562 32.7671,-16.383562 27.3059,0 32.7671,2.730594 32.7671,16.383562 0,10.922374 5.4612,16.383557 16.3836,16.383557 12.0146,0 16.3835,5.46119 16.3835,20.47946 0,19.11415 2.7306,20.47945 40.959,20.47945 38.2283,0 40.9589,-1.3653 40.9589,-20.47945 0,-18.43151 3.2767,-20.47946 32.7671,-20.47946 29.4904,0 32.7671,2.04795 32.7671,20.47946 0,19.11415 2.7306,20.47945 40.9589,20.47945 35.4977,0 40.9589,2.18448 40.9589,16.38356 0,15.16997 5.4612,16.38356 73.726,16.38356 73.1799,0 73.7261,0.15171 73.7261,20.47945 0,15.01827 4.3689,20.47946 16.3835,20.47946 10.9224,0 16.3836,5.46119 16.3836,16.38356 0,12.01461 5.4612,16.38356 20.4794,16.38356 18.8108,0 20.4795,3.00366 20.4795,36.86301 0,31.40183 2.4272,36.86302 16.3836,36.86302 10.9223,0 16.3835,5.46119 16.3835,16.38356 0,15.16996 5.4612,16.38356 73.726,16.38356 68.2649,0 73.7261,1.2136 73.7261,16.38356 0,10.92237 5.4612,16.38356 16.3835,16.38356 13.9564,0 16.3836,5.46119 16.3836,36.86302 0,33.85936 1.6687,36.86301 20.4794,36.86301 16.3836,0 20.4795,4.09589 20.4795,20.47945 0,20.32775 0.5464,20.47945 73.726,20.47945 68.2648,0 73.7261,1.2136 73.7261,16.38357 0,10.92237 5.4612,16.38356 16.3835,16.38356 10.9224,0 16.3836,5.46119 16.3836,16.38356 0,13.95637 5.4612,16.38356 36.863,16.38356 l 36.863,0 0,36.86302 c 0,33.85935 1.6687,36.86301 20.4795,36.86301 16.3835,0 20.4794,4.09589 20.4794,20.47945 0,15.01826 4.3689,20.47945 16.3836,20.47945 13.2629,0 16.3835,5.46119 16.3835,28.67124 0,23.21004 -3.1206,28.67123 -16.3835,28.67123 -12.0147,0 -16.3836,5.46119 -16.3836,20.47945 0,16.38356 -4.0959,20.47945 -20.4794,20.47945 -15.0183,0 -20.4795,4.36895 -20.4795,16.38356 0,13.95637 -5.4612,16.38357 -36.863,16.38357 -31.4018,0 -36.863,2.42719 -36.863,16.38356 0,10.92237 -5.4612,16.38356 -16.3836,16.38356 -12.0146,0 -16.3835,5.46119 -16.3835,20.47945 0,18.81079 -3.0037,20.47945 -36.8631,20.47945 -31.4018,0 -36.863,2.42723 -36.863,16.38357 0,12.01463 -5.4612,16.38356 -20.4794,16.38356 -16.3836,0 -20.4795,4.09589 -20.4795,20.47945 0,19.74432 -1.9114,20.47945 -53.2466,20.47945 -47.7853,0 -53.2465,1.68038 -53.2465,16.38356 0,13.653 -5.4612,16.38356 -32.7672,16.38356 -27.3059,0 -32.7671,-2.73056 -32.7671,-16.38356 0,-14.92722 -5.4612,-16.38356 -61.4383,-16.38356 -55.9772,0 -61.4384,1.45634 -61.4384,16.38356 0,10.92235 -5.4612,16.38356 -16.3836,16.38356 -10.9223,0 -16.3835,5.46117 -16.3835,16.38357 0,14.1991 -5.4612,16.3836 -40.9589,16.3836 -38.2284,0 -40.9589,1.3653 -40.9589,20.4794 0,15.0182 -4.3689,20.4795 -16.3836,20.4795 -14.8232,0 -16.3835,5.4612 -16.3835,57.3424 0,55.7041 -0.5849,57.3425 -20.4795,57.3425 -15.0182,0 -20.4794,4.3689 -20.4794,16.3836 0,15.0986 -5.4613,16.3835 -69.6302,16.3835 -68.8109,0 -69.6301,0.2409 -69.6301,20.4795 0,18.8108 -3.0037,20.4794 -36.863,20.4794 -31.4018,0 -36.863,2.4272 -36.863,16.3836 0,15.0986 -5.4613,16.3835 -69.6302,16.3835 -64.1689,0 -69.6301,-1.2849 -69.6301,-16.3835 z m -98.3014,-249.8493 c 0,-15.0183 -4.3689,-20.4795 -16.3836,-20.4795 -12.0146,0 -16.3835,-5.4612 -16.3835,-20.47944 0,-16.38356 -4.0959,-20.47945 -20.4795,-20.47945 -15.01821,0 -20.47942,-4.36892 -20.47942,-16.38356 0,-13.653 -5.46122,-16.38356 -32.76712,-16.38356 -27.30591,0 -32.76713,-2.73057 -32.76713,-16.38356 0,-14.19906 -5.46121,-16.38357 -40.9589,-16.38357 -35.49772,0 -40.95891,2.18451 -40.95891,16.38357 0,15.54341 -5.46119,16.38356 -106.49315,16.38356 -101.03196,0 -106.49315,0.84015 -106.49315,16.38356 0,10.92235 -5.46119,16.38356 -16.38356,16.38356 -10.92237,0 -16.38356,-5.46121 -16.38356,-16.38356 0,-10.92235 -5.46119,-16.38356 -16.38356,-16.38356 -12.01462,0 -16.38356,-5.46122 -16.38356,-20.47945 0,-15.01824 -4.36895,-20.47946 -16.38356,-20.47946 -10.92238,0 -16.38357,-5.46121 -16.38357,-16.38356 0,-13.95637 -5.46119,-16.38356 -36.86301,-16.38356 l -36.86301,0 0,-36.86301 c 0,-33.85936 -1.6687,-36.86302 -20.47946,-36.86302 -15.01826,0 -20.47945,-4.36894 -20.47945,-16.38356 0,-12.01461 -5.46119,-16.38356 -20.47945,-16.38356 -16.38356,0 -20.47945,4.09589 -20.47945,20.47945 0,15.01826 4.36894,20.47945 16.38356,20.47945 14.7032,0 16.38356,5.46119 16.38356,53.24658 0,51.33519 0.73513,53.24657 20.47945,53.24657 16.38356,0 20.47946,4.09589 20.47946,20.47946 0,15.01823 4.36894,20.47945 16.38356,20.47945 10.92237,0 16.38356,5.46121 16.38356,16.38356 0,13.95634 5.46119,16.38356 36.86301,16.38356 33.85936,0 36.86302,1.66867 36.86302,20.47945 0,19.11416 2.73059,20.47946 40.9589,20.47946 38.22831,0 40.9589,-1.3653 40.9589,-20.47946 l 0,-20.47945 106.49315,0 c 101.03197,0 106.49316,-0.84015 106.49316,-16.38356 0,-22.54935 22.81487,-20.75592 26.05354,2.04795 2.17609,15.32207 8.491,18.85641 37.43276,20.95047 28.14589,2.0364 34.81507,5.56714 34.81507,18.43151 0,10.45134 5.62283,15.91254 16.38356,15.91254 10.92234,0 16.38356,5.4612 16.38356,16.3836 0,14.199 5.46121,16.3835 40.9589,16.3835 38.2283,0 40.9589,-1.3653 40.9589,-20.4794 z m 573.4247,-634.86305 c 0,-23.66514 -1.3654,-24.57534 -36.863,-24.57534 -31.4018,0 -36.8631,-2.42719 -36.8631,-16.38356 0,-12.01462 -5.4612,-16.38356 -20.4794,-16.38356 -16.3836,0 -20.4795,-4.09589 -20.4795,-20.47945 0,-19.74429 -1.9114,-20.47946 -53.2465,-20.47946 -47.7854,0 -53.2466,-1.68036 -53.2466,-16.38356 0,-15.16996 -5.4612,-16.38356 -73.726,-16.38356 -68.2649,0 -73.7261,-1.2136 -73.7261,-16.38356 0,-12.01462 -5.4612,-16.38356 -20.4794,-16.38356 -16.3836,0 -20.4795,4.09589 -20.4795,20.47945 0,15.01826 4.3689,20.47945 16.3836,20.47945 10.9223,0 16.3835,5.46119 16.3835,16.38356 0,13.95637 5.4613,16.38356 36.8631,16.38356 33.8593,0 36.863,1.6687 36.863,20.47946 0,20.32774 0.5464,20.47945 73.726,20.47945 68.2648,0 73.726,1.21359 73.726,16.38356 0,10.92237 5.4612,16.38356 16.3836,16.38356 12.0146,0 16.3836,5.46119 16.3836,20.47945 0,20.02435 1.3653,20.47946 61.4383,20.47946 l 61.4384,0 0,-24.57535 z"
     id="path3352"
     inkscape:connector-curvature="0" /></svg>