<?xml version="1.0" encoding="utf-8"?>
<!-- Generator: Adobe Illustrator 16.0.0, SVG Export Plug-In . SVG Version: 6.00 Build 0)  -->
<!DOCTYPE svg PUBLIC "-//W3C//DTD SVG 1.1//EN" "http://www.w3.org/Graphics/SVG/1.1/DTD/svg11.dtd">
<svg version="1.1" id="Ebene_1" xmlns="http://www.w3.org/2000/svg" xmlns:xlink="http://www.w3.org/1999/xlink" x="0px" y="0px"
	 width="516.897px" height="336.901px" viewBox="0 0 516.897 336.901" enable-background="new 0 0 516.897 336.901"
	 xml:space="preserve">
<g>
	<path fill="#231F20" d="M58.085,272.77l-3.379-11.264c-6.861,2.867-11.776,4.096-15.667,4.096c-7.578,0-9.933-3.686-9.933-7.27
		v-32.256c0-5.426,4.198-9.113,10.546-9.113c3.379,0,8.705,1.639,12.698,4.199l4.607-11.266c-7.065-3.787-13.107-4.709-19.251-4.709
		c-11.571,0-21.81,6.654-21.81,19.66v34.098c0,13.518,10.854,18.021,21.81,18.021C41.497,276.967,49.995,276.149,58.085,272.77
		L58.085,272.77z"/>
	<polygon fill="#231F20" points="107.504,225.668 93.886,225.668 83.852,263.452 83.852,252.393 75.353,225.668 60.607,225.668 
		77.401,275.944 79.038,275.944 73.51,294.375 85.899,294.375 107.504,225.668 	"/>
	<path fill-rule="evenodd" clip-rule="evenodd" fill="#231F20" d="M155.891,239.901c0.103-13.721-11.981-15.564-18.431-15.564
		c-1.947,0-5.633,0.41-9.217,1.844v-13.16v-12.029h-13.106v73.727c9.42,1.945,14.642,2.25,20.582,2.25
		c11.058,0,19.967-4.402,20.07-16.586L155.891,239.901L155.891,239.901z M142.579,241.129v19.354c0,4.301-6.144,6.963-14.335,3.992
		v-26.111C132.954,235.293,142.579,233.245,142.579,241.129L142.579,241.129z"/>
	<path fill-rule="evenodd" clip-rule="evenodd" fill="#231F20" d="M204.299,242.768c0-9.625-3.481-18.33-19.558-18.33
		c-11.673,0-19.147,6.145-19.147,17.92v18.023c0,13.105,9.523,16.586,20.479,16.586c4.812,0,11.161-1.023,17.612-3.891l-3.276-11.16
		c-4.711,2.457-21.811,8.396-21.811-3.994v-3.482h25.701V242.768L204.299,242.768z M191.397,241.026v1.945h-12.8l-0.103-2.25
		c-0.205-3.484,2.151-5.633,6.759-5.633S191.397,237.649,191.397,241.026L191.397,241.026z"/>
	<path fill="#231F20" d="M243.187,226.282c-7.476-2.867-13.62-2.355-18.125,2.15l-2.151-2.867h-7.27l-0.102,50.277h13.106v-36.965
		c2.151-2.355,6.35-2.664,11.776-0.098L243.187,226.282L243.187,226.282z"/>
	<polygon fill="#231F20" points="297.765,206.211 255.681,206.211 255.681,275.842 268.685,275.842 268.685,245.329 
		291.417,245.329 291.417,234.065 268.685,234.065 268.685,219.614 266.125,217.577 296.025,217.577 297.765,206.211 	"/>
	<path fill-rule="evenodd" clip-rule="evenodd" fill="#231F20" d="M341.257,259.969v-18.738c0-12.287-9.729-16.793-20.787-16.793
		c-11.162,0-20.684,4.609-20.684,16.896v18.635c0,12.289,9.521,16.998,20.684,16.998
		C331.63,276.967,341.257,272.258,341.257,259.969L341.257,259.969z M328.048,259.356c0,3.584-3.277,6.143-7.578,6.143
		s-7.475-2.559-7.475-6.143v-16.895c0-3.584,3.174-6.248,7.475-6.248s7.578,2.664,7.578,6.248V259.356L328.048,259.356z"/>
	<path fill="#231F20" d="M379.103,226.282c-7.475-2.867-13.619-2.355-18.123,2.15l-2.152-2.867h-7.27l-0.102,50.277h13.105v-36.965
		c2.152-2.355,6.35-2.664,11.777-0.098L379.103,226.282L379.103,226.282z"/>
	<path fill="#231F20" d="M426.996,275.944v-50.275h-13.107v38.295c-6.248,2.867-13.518,3.379-13.518-3.174l0.104-35.225
		l-13.209,0.104v35.326c0,12.492,8.088,15.973,17.1,15.973c2.969,0,8.09-0.613,12.084-2.867l3.072,1.844H426.996L426.996,275.944z"
		/>
	<path fill="#231F20" d="M503.857,240.823c0-12.801-7.783-16.486-16.793-16.486c-5.223,0-10.65,2.457-13.312,4.916
		c-3.072-3.584-7.885-4.916-13.105-4.916c-3.072,0-8.295,1.332-11.162,3.48l-2.969-2.148h-8.807v50.275h13.105v-36.555
		c1.947-1.74,4.711-3.176,8.092-3.176c2.457,0,5.324,0.82,5.324,5.326l-0.104,34.404h13.107v-36.658
		c1.945-1.74,4.812-3.072,8.191-3.072c2.355,0,5.223,0.82,5.223,5.326l0.102,34.404h13.107V240.823L503.857,240.823z"/>
	<path fill="#00A4E4" d="M140.436,20.845c0,0-7.796,8.722-14.364,22.009c0,0-8.375,2.141-16.066,2.141
		c-7.69,0-6.81-2.588-6.034-3.359C120.134,25.71,140.436,20.845,140.436,20.845L140.436,20.845z"/>
	<path fill="#00A4E4" d="M126.269,42.95c0,0-1.529,2.565-2.679,5.651c0,0,8.069-1.287,18.271-4.304
		c12.588-3.725,34.811-12.629,42.077-24.081c0.055-0.073-2.3-0.726-5.285-1.314c-0.059-0.009-3.866,5.08-15.181,11.155
		C155.397,34.392,143.544,39.28,126.269,42.95L126.269,42.95z"/>
	<path fill="#00A4E4" d="M123.297,48.842c0,0-0.566,1.209-1.41,3.524c-1.137,3.104-2.971,8.69-4.186,15.025
		c-0.004,0.042-3.396,0.621-9.53,0.621c-9.612,0-12.816-1.492-12.816-1.492s0.616-0.475,2.524-1.995
		c0.027-0.027-0.826,0.502-1.611,1.027c-0.621,0.42-1.21,0.858-1.21,0.858s-4.925-1.269-4.925-5.993c0-2.191,0.365-2.081,1.022-3.25
		c0.657-1.168,3.104-4.838,7.522-9.932c0.032-0.032,0.767,2.702,11.575,2.702C117.446,49.938,123.297,48.842,123.297,48.842
		L123.297,48.842z"/>
	<path fill="#00A4E4" d="M117.702,67.565c0,0-0.57,2.625-0.908,5.144c0,0.014,18.261-1.475,41.215-9.699
		c32.365-11.588,49.759-25.82,49.759-33.41c0-0.137-1.611-1.05-4.478-2.228c-0.027-0.009,0.703,7.02-19.174,18.581
		C172.851,52.512,147.999,63.777,117.702,67.565L117.702,67.565z"/>
	<path fill="#00A4E4" d="M116.647,72.887c0,0-1.839,10.904-1.16,21.22c0,0.041-5.623,0.498-10.201,0.498
		c-3.72,0-11.557-0.315-17.216-2.666c-0.082-0.037,0.146,0.082,0.046,0.036c-0.046-0.018,2.396-2.629,5.381-5.139
		c3.555-2.994,7.759-5.975,7.759-5.975s-4.272,2.762-8.01,5.601c-3.263,2.483-6.052,5.089-6.121,5.058
		c-3.268-1.565-5.6-3.917-5.6-7.431c0-6.235,8.959-13.729,8.959-13.729s3.355,3.118,15.965,3.118
		C112.394,73.476,116.647,72.887,116.647,72.887L116.647,72.887z"/>
	<path fill="#00A4E4" d="M90.098,70.057c0,0-2.994-1.716-2.994-6.244c0,0-4.564,8.398-6.573,16.175
		C80.531,79.989,82.758,75.936,90.098,70.057L90.098,70.057z"/>
	<path fill="#00A4E4" d="M82.904,95.982c0,0-4.272-2.447-4.893-5.478c0,0-1.278,7.271-1.278,16.176
		C76.733,106.754,77.464,101.934,82.904,95.982L82.904,95.982z"/>
	<path fill="#00A4E4" d="M84.219,96.712c4.368,1.698,8.015,3.177,20.886,3.177c6.828,0,10.699-0.511,10.699-0.511
		s0.958,11.283,3.943,19.754c0.018,0.046-4.382,0.329-9.202,0.329c-3.669,0-10.543-0.146-16.75-1.684
		c-0.078-0.019,3.183-3.397,6.993-6.51c3.574-2.925,7.923-5.609,7.923-5.609s-4.413,2.305-8.297,5.217
		c-6.673,5.025-7.868,6.481-7.918,6.463c-6.499-1.771-11.636-4.961-11.636-11.46C80.859,101.167,84.132,96.681,84.219,96.712
		L84.219,96.712z"/>
	<path fill="#00A4E4" d="M115.657,94.238c0,0,0.073,2.228,0.26,4.934c0.004,0.019,10.502-0.712,26.783-4.573
		c18.512-4.382,31.539-9.339,46.906-16.646c30.996-14.748,38.522-29.011,38.522-31.458c0-0.255-1.191-1.684-3.907-3.984
		c-0.132-0.109-2.054,13.83-35.204,30.366C166.169,84.28,137.369,92.559,115.657,94.238L115.657,94.238z"/>
	<path fill="#00A4E4" d="M119.893,119.315c0,0,0.872,3.017,1.826,5.477c0.004,0.009,13.227-1.032,32.104-5.701
		c15.335-3.789,32.62-9.804,47.91-17.285c20.064-9.818,36.696-22.054,40.991-34.049c0.004-0.046-1.027-2.2-2.971-5.87
		c-0.005-0.009-0.603,1.474-2.031,4.071c-1.675,3.054-8.526,18.001-46.368,34.524C168.579,110.424,142.608,117.731,119.893,119.315
		L119.893,119.315z"/>
	<path fill="#00A4E4" d="M77.317,114.13c0,0,0.876,11.977,4.674,20.594c0,0,0.105-5.541,5.916-12.269
		C88.025,122.323,79.655,120.264,77.317,114.13L77.317,114.13z"/>
	<path fill="#00A4E4" d="M130.847,144.122c0,0-5.473-8.389-9.105-19.088c-0.023-0.059-7.691,0.438-11.78,0.438
		s-13.136-0.151-20.096-2.392c-0.046-0.014-3.228,4.149-3.228,8.481c0,7.093,7.12,10.689,16.089,12.277
		c0.105,0.019,2.433-2.615,5.294-5.139c3.332-2.953,6.801-5.372,6.801-5.372s-3.437,2.78-6.322,5.637
		c-2.497,2.474-4.505,5.085-4.391,5.103c3.943,0.593,8.175,0.831,12.278,0.831C124.904,144.897,130.892,144.172,130.847,144.122
		L130.847,144.122z"/>
	<path fill="#00A4E4" d="M134.498,149.439c0,0-1.538-2.136-3.433-5.258c-0.009-0.014,14.236-1.191,31.256-5.879
		c35.683-9.854,55.167-21.037,68.166-29.997c12.013-8.275,18.663-18.07,18.663-20.274c0,0,0.712,2.081,1.762,8.631
		c0,0.004-2.921,5.847-16.103,15.477c-12.702,9.289-36.906,22.123-69.713,31.101C155.06,145.988,146.839,147.376,134.498,149.439
		L134.498,149.439z"/>
	<path fill="#00A4E4" d="M148.615,166.026c0,0-8.878-8.385-14.218-16.404c-0.027-0.027-10.461,1.264-19.179,1.264
		c-10.278,0-14.364-1.109-14.364-1.109s-0.73,1.789-0.73,4.03c0,7.544,7.933,13.583,29.649,13.583c1.36,0,2.688-0.022,3.966-0.063
		c0.073,0,1.059-0.991,2.205-1.88c1.278-0.995,2.729-1.903,2.729-1.903s-1.282,1.127-2.405,2.163
		c-0.876,0.812-1.666,1.593-1.597,1.588C142.736,166.984,148.615,166.026,148.615,166.026L148.615,166.026z"/>
	<path fill="#00A4E4" d="M98.391,149.298c0,0-8.54-1.475-12.766-5.61c-0.046-0.041,4.71,9.672,10.255,16.185
		C95.88,159.873,94.68,154.879,98.391,149.298L98.391,149.298z"/>
	<path fill="#00A4E4" d="M148.866,166.067c0,0,2.474,2.168,5.112,4.322c0.004,0.004,10.233-1.524,24.537-5.632
		c20.89-6.002,52.173-18.348,69.613-36.021c0.069-0.073,2.287-7.157,2.287-10.954c0,0-5.855,11.314-27.595,23.442
		C203.965,151.744,178.574,161.785,148.866,166.067L148.866,166.067z"/>
	<path fill="#00A4E4" d="M128.163,172.845c-17.869,0-24.044-4.19-24.044-4.19s7.887,8.521,22.054,15.436
		c0,0-1.269-1.701-1.269-3.797C124.904,176.346,128.163,172.845,128.163,172.845L128.163,172.845z"/>
	<path fill="#00A4E4" d="M130.892,172.794c3.314,0,13.336-0.201,23.127-2.287c0.022-0.005,5.066,5.006,18.015,11.926
		c0.037,0.018-11.493,2.629-22.447,2.629c-5.842,0-19.763-0.689-19.763-8.812C129.824,174.355,130.792,172.794,130.892,172.794
		L130.892,172.794z"/>
	<path fill="#00A4E4" d="M164.293,192.708c-13.291,0-21.611-2.629-21.611-2.629s13.624,1.594,36.701-4.189
		c0.041-0.01,8.038,3.359,9.594,3.359C189.118,189.249,180.943,192.708,164.293,192.708L164.293,192.708z"/>
	<path fill="#00A4E4" d="M172.362,182.485c0,0,3.159,1.533,7.12,3.25c0.032,0.014,26.824-6.436,45.533-17.893
		c0.283-0.173,10.26-10.735,13.619-17.249c0.013-0.025-3.656,6.185-16.244,13.333c-7.713,4.381-17.518,8.987-26.92,12.332
		C186.155,179.577,177.182,181.379,172.362,182.485L172.362,182.485z"/>
	<polygon fill="#231F20" points="29.418,308.334 26.288,308.366 26.288,317.016 19.056,317.016 19.056,308.366 15.926,308.366 
		15.926,329.418 19.025,329.418 19.056,319.776 26.318,319.776 26.349,329.418 29.418,329.418 29.418,308.334 	"/>
	<polygon fill="#231F20" points="42.797,329.418 42.797,326.596 39.758,326.596 39.758,311.063 42.797,311.063 42.797,308.272 
		33.468,308.272 33.468,311.063 36.568,311.063 36.568,326.596 33.499,326.596 33.499,329.418 42.797,329.418 	"/>
	<path fill="#231F20" d="M59.094,329.418v-11.256h-5.803v2.885h2.704v5.457c-1.063,0.309-1.944,0.434-2.521,0.434
		c-2.34,0-3.312-0.898-3.312-2.357v-10.727c0-2.047,1.549-2.947,3.525-2.947c1.094,0,2.583,0.498,3.555,1.055l1.125-2.76
		c-1.732-0.836-3.251-1.209-4.983-1.209c-3.343,0-6.381,1.984-6.381,5.768v11.039c0,3.875,3.16,4.93,6.381,4.93
		c0.912,0,2.552-0.156,4.224-0.744l0.365,0.434H59.094L59.094,329.418z"/>
	<polygon fill="#231F20" points="77.546,308.334 74.416,308.366 74.416,317.016 67.184,317.016 67.184,308.366 64.054,308.366 
		64.054,329.418 67.153,329.418 67.184,319.776 74.446,319.776 74.477,329.418 77.546,329.418 77.546,308.334 	"/>
	<polygon fill="#231F20" points="94.328,311.094 94.298,308.334 80.988,308.334 80.988,311.094 86.063,311.094 86.063,329.418 
		89.224,329.418 89.224,311.094 94.328,311.094 	"/>
	<polygon fill="#231F20" points="109.806,326.596 101.175,326.596 101.175,319.776 107.921,319.776 107.921,317.016 
		101.175,317.016 101.175,311.772 100.355,311.125 109.35,311.125 109.745,308.334 98.076,308.334 98.076,329.418 109.411,329.418 
		109.806,326.596 	"/>
	<path fill="#231F20" d="M125.25,328.581l-0.79-2.82c-1.945,0.93-3.525,1.178-4.406,1.178c-2.339,0-3.312-0.898-3.312-2.357v-10.727
		c0-2.047,1.55-2.947,3.525-2.947c1.094,0,2.583,0.498,3.555,1.055l1.125-2.76c-1.731-0.836-3.251-1.209-4.983-1.209
		c-3.342,0-6.381,1.984-6.381,5.768v11.039c0,3.875,3.16,4.93,6.381,4.93C121.057,329.729,123.215,329.481,125.25,328.581
		L125.25,328.581z"/>
	<polygon fill="#231F20" points="142.853,308.334 139.723,308.366 139.723,317.016 132.491,317.016 132.491,308.366 
		129.361,308.366 129.361,329.418 132.46,329.418 132.491,319.776 139.753,319.776 139.784,329.418 142.853,329.418 
		142.853,308.334 	"/>
	<polygon fill="#231F20" points="150.61,329.418 150.61,326.256 147.511,326.256 147.511,329.418 150.61,329.418 	"/>
	<path fill="#231F20" d="M173.832,308.303h-3.069l-0.031,16.092c0,2.016-2.492,2.48-3.282,2.48s-3.221-0.465-3.221-2.48v-16.123
		h-3.16v16.559c0,3.285,3.312,4.898,6.381,4.898s6.351-1.613,6.351-4.898L173.832,308.303L173.832,308.303z"/>
	<polygon fill="#231F20" points="193.283,308.334 190.213,308.334 190.213,321.977 190.7,324.612 180.854,308.334 178.211,308.334 
		178.181,329.418 181.189,329.418 181.189,315.745 180.642,313.141 190.274,329.418 193.283,329.418 193.283,308.334 	"/>
	<polygon fill="#231F20" points="210.063,311.094 210.033,308.334 196.723,308.334 196.723,311.094 201.798,311.094 
		201.798,329.418 204.958,329.418 204.958,311.094 210.063,311.094 	"/>
	<polygon fill="#231F20" points="225.237,326.596 216.607,326.596 216.607,319.776 223.353,319.776 223.353,317.016 
		216.607,317.016 216.607,311.772 215.787,311.125 224.781,311.125 225.176,308.334 213.508,308.334 213.508,329.418 
		224.842,329.418 225.237,326.596 	"/>
	<path fill-rule="evenodd" clip-rule="evenodd" fill="#231F20" d="M242.657,329.418v-2.326l-4.437-6.572
		c2.461-0.404,3.951-2.42,3.951-4.9v-2.107c0-3.318-2.28-5.24-5.257-5.24h-6.867l0.03,21.146h3.13v-8.65h1.61l5.409,8.65H242.657
		L242.657,329.418z M239.041,315.342c0,1.922-1.094,2.666-2.856,2.635l-2.978-0.031l0.03-6.852h3.19
		c1.429,0,2.613,0.805,2.613,3.008V315.342L239.041,315.342z"/>
	<polygon fill="#231F20" points="262.264,308.334 259.195,308.334 259.195,321.977 259.681,324.612 249.836,308.334 
		247.192,308.334 247.162,329.418 250.17,329.418 250.17,315.745 249.623,313.141 259.255,329.418 262.264,329.418 262.264,308.334 
			"/>
	<polygon fill="#231F20" points="278.345,326.596 269.716,326.596 269.716,319.776 276.46,319.776 276.46,317.016 269.716,317.016 
		269.716,311.772 268.896,311.125 277.89,311.125 278.285,308.334 266.617,308.334 266.617,329.418 277.951,329.418 
		278.345,326.596 	"/>
	<polygon fill="#231F20" points="295.128,308.334 291.998,308.366 291.998,317.016 284.765,317.016 284.765,308.366 
		281.636,308.366 281.636,329.418 284.736,329.418 284.765,319.776 292.029,319.776 292.058,329.418 295.128,329.418 
		295.128,308.334 	"/>
	<polygon fill-rule="evenodd" clip-rule="evenodd" fill="#231F20" points="317.896,308.303 315.406,308.272 308.72,319.434 
		301.974,308.303 299.179,308.303 299.179,329.418 302.126,329.418 302.126,315.559 301.58,313.418 307.656,323.34 309.388,323.34 
		315.253,313.418 314.736,315.434 314.736,329.418 317.896,329.418 317.896,308.303 	"/>
	<polygon fill="#231F20" points="333.976,326.596 325.345,326.596 325.345,319.776 332.091,319.776 332.091,317.016 
		325.345,317.016 325.345,311.772 324.525,311.125 333.519,311.125 333.916,308.334 322.246,308.334 322.246,329.418 
		333.58,329.418 333.976,326.596 	"/>
	<path fill-rule="evenodd" clip-rule="evenodd" fill="#231F20" d="M350.484,329.418v-2.326l-4.436-6.572
		c2.461-0.404,3.949-2.42,3.949-4.9v-2.107c0-3.318-2.279-5.24-5.256-5.24h-6.867l0.029,21.146h3.131v-8.65h1.609l5.408,8.65
		H350.484L350.484,329.418z M346.869,315.342c0,1.922-1.094,2.666-2.857,2.635l-2.977-0.031l0.029-6.852h3.191
		c1.428,0,2.613,0.805,2.613,3.008V315.342L346.869,315.342z"/>
	<polygon fill="#231F20" points="357.482,329.418 357.482,326.256 354.382,326.256 354.382,329.418 357.482,329.418 	"/>
	<polygon fill="#231F20" points="383.65,308.334 380.582,308.334 380.582,321.977 381.068,324.612 371.222,308.334 368.58,308.334 
		368.548,329.418 371.556,329.418 371.556,315.745 371.009,313.141 380.642,329.418 383.65,329.418 383.65,308.334 	"/>
	<polygon fill="#231F20" points="399.429,326.596 390.798,326.596 390.798,319.776 397.544,319.776 397.544,317.016 
		390.798,317.016 390.798,311.772 389.978,311.125 398.972,311.125 399.369,308.334 387.699,308.334 387.699,329.418 
		399.033,329.418 399.429,326.596 	"/>
	<polygon fill="#231F20" points="415.755,311.094 415.724,308.334 402.416,308.334 402.416,311.094 407.49,311.094 407.49,329.418 
		410.65,329.418 410.65,311.094 415.755,311.094 	"/>
	<polygon fill="#231F20" points="431.445,326.596 422.269,326.596 430.199,311.094 430.199,308.334 418.865,308.334 
		418.441,311.094 426.675,311.094 418.744,327.032 418.744,329.418 430.869,329.418 431.445,326.596 	"/>
	<polygon fill="#231F20" points="455.576,308.366 452.353,308.334 448.798,324.743 448.798,321.368 445.669,308.366 
		442.478,308.366 443.208,311.368 440.291,324.743 440.291,321.461 437.312,308.366 433.97,308.366 439.105,329.418 
		442.113,329.418 444.605,318.768 444.605,316.383 447.644,329.418 450.621,329.418 455.576,308.366 	"/>
	<polygon fill="#231F20" points="470.593,326.596 461.962,326.596 461.962,319.776 468.708,319.776 468.708,317.016 
		461.962,317.016 461.962,311.772 461.142,311.125 470.136,311.125 470.533,308.334 458.863,308.334 458.863,329.418 
		470.197,329.418 470.593,326.596 	"/>
	<path fill-rule="evenodd" clip-rule="evenodd" fill="#231F20" d="M487.406,329.418v-2.326l-4.438-6.572
		c2.461-0.404,3.951-2.42,3.951-4.9v-2.107c0-3.318-2.279-5.24-5.258-5.24h-6.867l0.031,21.146h3.129v-8.65h1.611l5.408,8.65
		H487.406L487.406,329.418z M483.789,315.342c0,1.922-1.094,2.666-2.855,2.635l-2.979-0.031l0.031-6.852h3.189
		c1.43,0,2.613,0.805,2.613,3.008V315.342L483.789,315.342z"/>
	<polygon fill="#231F20" points="505.128,329.418 497.683,318.643 504.035,311.43 504.035,308.334 502.515,308.334 494.736,317.374 
		494.736,308.366 491.607,308.334 491.607,329.418 494.736,329.418 494.736,319.85 501.087,329.418 505.128,329.418 	"/>
	<polygon fill="#231F20" points="511.666,329.418 511.666,326.256 508.566,326.256 508.566,329.418 511.666,329.418 	"/>
</g>
</svg>
