<?xml version="1.0" encoding="utf-8"?>
<!-- Generator: Adobe Illustrator 16.0.0, SVG Export Plug-In . SVG Version: 6.00 Build 0)  -->
<!DOCTYPE svg PUBLIC "-//W3C//DTD SVG 1.1//EN" "http://www.w3.org/Graphics/SVG/1.1/DTD/svg11.dtd">
<svg version="1.1" id="Layer_1" xmlns="http://www.w3.org/2000/svg" xmlns:xlink="http://www.w3.org/1999/xlink" x="0px" y="0px"
	 width="113px" height="164px" viewBox="0 0 113 164" enable-background="new 0 0 113 164" xml:space="preserve">
<rect width="113" height="4"/>
<rect y="4" fill="#91DD4E" width="113" height="112"/>
<rect x="52" y="41" fill="#4C8C14" width="10" height="19"/>
<rect x="75" y="46" fill="#4C8C14" width="10" height="14"/>
<rect x="28" y="46" fill="#4C8C14" width="10" height="14"/>
<rect x="35" y="51" fill="#4C8C14" width="43" height="9"/>
<rect x="109" y="11" fill="#4C8C14" width="4" height="9"/>
<rect y="11" fill="#4C8C14" width="4" height="9"/>
<rect y="116" width="113" height="4"/>
<rect x="13" y="107" width="11" height="11"/>
<rect x="13" y="103" fill="#4C8C14" width="9" height="4"/>
<rect x="22" y="98" width="9" height="12"/>
<rect x="29" y="107" width="11" height="10"/>
<rect x="22" y="107" width="9" height="10"/>
<rect x="40" y="103" fill="#4C8C14" width="24" height="13"/>
<rect x="31" y="98" fill="#4C8C14" width="9" height="9"/>
<rect x="22" y="89" fill="#4C8C14" width="9" height="9"/>
<rect y="107" fill="#4C8C14" width="13" height="9"/>
<rect x="63" y="107" fill="#4C8C14" width="10" height="9"/>
<rect x="73" y="107" width="9" height="13"/>
<rect x="82" y="120" width="9" height="9"/>
<rect x="82" y="103" fill="#4C8C14" width="24" height="13"/>
<rect x="73" y="98" fill="#4C8C14" width="9" height="9"/>
<rect x="104" y="112" fill="#4C8C14" width="9" height="4"/>
<rect y="120" fill="#E59739" width="113" height="44"/>
<rect x="43" y="160" width="9" height="4"/>
<rect x="99" y="148" width="9" height="9"/>
<rect x="64" y="126" width="9" height="5"/>
<rect x="8" y="139" width="9" height="9"/>
<rect x="80" y="103" fill="#4C8C14" width="9" height="4"/>
<rect x="36" y="103" fill="#4C8C14" width="9" height="4"/>
</svg>
