<?xml version="1.0" encoding="UTF-8"?>
<!DOCTYPE svg PUBLIC "-//W3C//DTD SVG 1.1//EN" "http://www.w3.org/Graphics/SVG/1.1/DTD/svg11.dtd">
<!-- Creator: CorelDRAW -->
<svg xmlns="http://www.w3.org/2000/svg" xml:space="preserve" width="2426px" height="491px" style="shape-rendering:geometricPrecision; text-rendering:geometricPrecision; image-rendering:optimizeQuality; fill-rule:evenodd; clip-rule:evenodd"
viewBox="0 0 2405.3 487.178"
 xmlns:xlink="http://www.w3.org/1999/xlink">
 <defs>
  <style type="text/css">
   <![CDATA[
    .fil0 {fill:#1F1A17;fill-rule:nonzero}
   ]]>
  </style>
 </defs>
 <g id="Ebene_x0020_1">
  <metadata id="CorelCorpID_0Corel-Layer"/>
  <path class="fil0" d="M838.038 0l487.24 0 0 97.185 -487.24 0 0 -97.185zm0 194.94l487.24 0 0 97.1804 -487.24 0 0 -97.1804zm815.705 79.9059c-19.951,-14.7747 -46.7912,-22.8067 -80.5534,-24.0232l-29.6947 -1.1603 0 140.591c0,46.6296 1.71176,43.6627 4.50654,46.4341 6.49227,6.47588 21.5469,9.97901 45.8264,9.97901 30.8948,0 55.0186,-8.42181 72.532,-25.1495 16.2699,-15.88 24.4751,-37.5826 24.4751,-65.1873 0,-36.4832 -12.4155,-63.5575 -37.092,-81.4842zm-84.156 -236.734l-26.092 0 0 171.587 18.2217 0c31.3467,0 56.3124,-6.84938 75.0645,-20.4088 22.6509,-16.2921 34.0408,-40.7509 34.0408,-73.5693 0,-51.6103 -33.2927,-77.6087 -101.235,-77.6087zm155.327 413.04c-27.3694,24.1075 -67.6847,36.0265 -120.774,36.0265l-188.448 0 0 -36.8356 16.8834 -0.668546c12.4776,-0.391058 20.7214,-0.7868 24.7538,-1.19893 6.415,-0.631079 10.5082,-2.38265 12.6333,-4.50771 2.38265,-2.38148 3.89419,0.318467 3.89419,-48.8764l0 -303.611c0,-48.9385 -1.75157,-46.5348 -4.48546,-48.8612 -3.42469,-2.88845 -14.2444,-4.89643 -36.7958,-5.72186l-16.8834 -0.653325 0 -36.2432 177.526 0c46.9481,0 82.5613,7.06598 106.669,21.3677 29.93,17.6316 44.8219,47.578 44.8219,89.4938 0,27.387 -9.81627,51.5108 -29.4172,72.3095 -16.9607,18.5179 -38.8424,32.2729 -65.5819,41.2637 34.7328,6.15741 62.4757,20.1301 83.1526,41.972 22.0421,22.8629 33.0585,50.8247 33.0585,83.8446 0,43.1101 -13.6379,76.7762 -41.0073,100.9zm-1098.4 -176.305c-19.9569,-14.7747 -46.7748,-22.8067 -80.5592,-24.0232l-29.6959 -1.1603 0 140.591c0,28.6245 1.71293,43.6627 4.50654,46.4341 6.47588,6.47588 21.5469,9.97901 45.8323,9.97901 30.8901,0 55.0128,-8.42181 72.505,-25.1495 16.2921,-15.88 24.4974,-37.5826 24.4974,-65.1873 0,-36.4832 -12.3944,-63.5575 -37.0862,-81.4842zm-84.1619 -236.734l-26.0932 0 0 171.587 18.2229 0c31.3467,0 56.3347,-6.84938 75.0703,-20.4088 22.6673,-16.2921 34.0572,-40.7509 34.0572,-73.5693 0,-51.6103 -33.3102,-77.6087 -101.257,-77.6087zm155.333 413.04c-27.3753,24.1075 -67.6917,36.0265 -120.78,36.0265l-188.442 0 0 -36.8356 16.8998 -0.668546c12.4776,-0.391058 20.6992,-0.7868 24.7315,-1.19893 6.43724,-0.631079 10.5082,-2.38265 12.6555,-4.50771 2.38148,-2.38148 3.87663,0.513996 3.87663,-48.8764l0 -303.611c0,-48.1915 -1.734,-46.5348 -4.4679,-48.8612 -3.42469,-2.88845 -14.2678,-4.89643 -36.7958,-5.72186l-16.8998 -0.653325 0 -36.2432 177.543 0c46.9481,0 82.5449,7.06598 106.645,21.3677 29.9523,17.6316 44.8289,47.578 44.8289,89.4938 0,27.387 -9.82329,51.5108 -29.4172,72.3095 -16.9619,18.5179 -38.826,32.2729 -65.5878,41.2637 34.7316,6.15741 62.4757,20.1301 83.1573,41.972 22.055,22.8629 33.0538,50.8247 33.0538,83.8446 0,43.1101 -13.632,76.7762 -41.0014,100.9zm140.351 -61.2767l487.24 0 0 97.2085 -487.24 0 0 -97.2085zm1544.93 -352.371c-9.5821,0.395742 -16.0966,2.59925 -19.8175,6.31431 -3.77594,3.78062 -10.1734,20.3467 -19.1256,50.4161l-116.033 392.927 -47.0476 0 -73.101 -309.97c-4.40702,-18.2615 -8.28248,-37.5041 -11.6849,-57.7514 -3.8216,19.5951 -8.46161,38.86 -13.9341,57.8076l-90.0008 309.914 -47.0265 0 -91.914 -392.988c-7.74741,-33.0597 -12.316,-49.6644 -13.632,-50.964 -3.28536,-3.2678 -10.3303,-5.19265 -21.6253,-5.72186l-27.1961 -1.2446 0 -36.2432 178.725 0 0 36.2432 -28.4126 1.26099c-15.8016,0.809046 -22.5116,5.41042 -22.5116,12.7504 0,10.3689 2.40372,26.2325 7.26268,47.6166l48.4807 214.558c4.8414,21.1558 8.36678,38.3132 10.548,51.4371 2.5372,-10.9824 7.16199,-28.1386 13.8322,-51.5155l89.8463 -312.35 47.3427 0 74.184 312.412c2.98914,12.6719 6.80488,29.985 11.507,51.9452 2.22458,-10.5258 6.49696,-27.8834 12.8733,-51.985l63.0225 -215.17c6.47471,-22.2166 9.66055,-38.2301 9.66055,-48.147 0,-2.91186 -1.08302,-5.43267 -3.28536,-7.65257 -2.04779,-2.04779 -8.18296,-3.50313 -19.2263,-3.89888l-28.3915 -1.26099 0 -36.2432 149.014 0 0 36.2268 -22.3337 1.27738zm-2254.42 351.529c0,50.724 1.33826,48.325 3.75955,51.3153 2.39787,2.9505 17.2347,3.87546 44.0187,3.87546l46.6694 0c35.4622,0 54.5433,-2.31942 58.5429,-6.31313 4.04991,-4.05577 6.92197,-19.0097 8.14315,-45.8885l0.653325 -14.4621 41.7098 0 0 109.618 -332.046 0 0 -36.8356 16.8834 -0.668546c12.494,-0.391058 14.6413,-0.546779 24.7713,-1.19893 5.21489,-0.312613 10.2518,-1.9307 12.6169,-4.50771 2.91069,-3.14603 3.91527,-20.1688 3.91527,-54.9179l0 -297.57c0,-48.6821 -1.65673,-46.0056 -4.50654,-48.8612 -3.01255,-3.00553 -14.2455,-4.91867 -36.797,-5.74411l-16.8834 -0.631079 0 -36.2432 186.658 0 0.0562 36.2432 -16.901 0.631079c-22.528,0.825438 -33.7668,2.73858 -36.7794,5.74411 -2.84981,2.85566 -4.50068,0.179138 -4.50068,48.8612l0.0163917 297.553z"/>
 </g>
</svg>
