<?xml version="1.0" encoding="UTF-8" standalone="no"?>
<!-- Generator: Adobe Illustrator 16.0.0, SVG Export Plug-In . SVG Version: 6.00 Build 0)  -->

<svg
   xmlns:dc="http://purl.org/dc/elements/1.1/"
   xmlns:cc="http://creativecommons.org/ns#"
   xmlns:rdf="http://www.w3.org/1999/02/22-rdf-syntax-ns#"
   xmlns:svg="http://www.w3.org/2000/svg"
   xmlns="http://www.w3.org/2000/svg"
   xmlns:sodipodi="http://sodipodi.sourceforge.net/DTD/sodipodi-0.dtd"
   xmlns:inkscape="http://www.inkscape.org/namespaces/inkscape"
   version="1.1"
   id="Layer_1"
   x="0px"
   y="0px"
   width="6046.79px"
   height="2069.124px"
   viewBox="0 0 6046.79 2069.124"
   enable-background="new 0 0 6046.79 2069.124"
   xml:space="preserve"
   inkscape:version="0.48.4 r9939"
   sodipodi:docname="hackathon_logo(1).svg"><metadata
     id="metadata265"><rdf:RDF><cc:Work
         rdf:about=""><dc:format>image/svg+xml</dc:format><dc:type
           rdf:resource="http://purl.org/dc/dcmitype/StillImage" /><dc:title></dc:title></cc:Work></rdf:RDF></metadata><defs
     id="defs263" /><sodipodi:namedview
     pagecolor="#ffffff"
     bordercolor="#666666"
     borderopacity="1"
     objecttolerance="10"
     gridtolerance="10"
     guidetolerance="10"
     inkscape:pageopacity="0"
     inkscape:pageshadow="2"
     inkscape:window-width="1855"
     inkscape:window-height="1176"
     id="namedview261"
     showgrid="false"
     inkscape:zoom="0.38632067"
     inkscape:cx="2841.8432"
     inkscape:cy="736.2079"
     inkscape:window-x="65"
     inkscape:window-y="24"
     inkscape:window-maximized="1"
     inkscape:current-layer="Layer_1" /><rect
     x="1405.034"
     y="258.432"
     fill="#FFFFFF"
     width="185"
     height="180"
     id="rect3" /><rect
     x="1590.034"
     y="258.432"
     fill="#FFFFFF"
     width="185"
     height="180"
     id="rect5" /><rect
     x="1405.034"
     y="258.432"
     fill="#FFFFFF"
     width="185"
     height="180"
     id="rect7" /><g
     id="g9"><path
       d="M3590.034,1984.432c0,16.568-13.432,30-30,30h-1564c-16.568,0-30-13.432-30-30v-1080c0-16.568,13.432-30,30-30h1564   c16.568,0,30,13.432,30,30V1984.432z"
       id="path11" /></g><g
     id="g13"><path
       d="M366.229,1361.764v-648h-73.156v81h-80.844v567h-170v-980h170v324h73.281v-81h169.719v81.031h81v655.969H366.229z"
       id="path15" /><path
       d="M1095.51,1361.764v-81h-73.281v81H771.292v-81h-81.062v-251h81v-81h243v-235h-154v162h-170v-170h81.047v-81h331.906v81   h81.047v656H1095.51z M1014.229,1037.764h-154v235.281h154V1037.764z"
       id="path17" /><path
       d="M1751.182,1280.764v81h-331.906v-81h-81.047v-575h81.047v-81h331.906v81h81.047v170h-170V713.482h-154v559.563h154   v-162.281h170v170H1751.182z"
       id="path19" /></g><rect
     x="1480.034"
     y="185.432"
     fill="#F99D0B"
     width="184"
     height="72"
     id="rect21" /><rect
     x="1405.034"
     y="438.432"
     fill="#F99D0B"
     width="296"
     height="216"
     id="rect23" /><rect
     x="1368.034"
     y="474.432"
     fill="#F99D0B"
     width="407"
     height="144"
     id="rect25" /><rect
     x="1516.534"
     y="77.932"
     stroke="#000000"
     stroke-miterlimit="10"
     width="37"
     height="36"
     id="rect27" /><rect
     x="1553.534"
     y="257.932"
     stroke="#000000"
     stroke-miterlimit="10"
     width="37"
     height="36"
     id="rect29" /><rect
     x="1590.534"
     y="293.932"
     stroke="#000000"
     stroke-miterlimit="10"
     width="37"
     height="36"
     id="rect31" /><rect
     x="1627.534"
     y="257.932"
     stroke="#000000"
     stroke-miterlimit="10"
     width="37"
     height="36"
     id="rect33" /><rect
     x="1738.534"
     y="257.932"
     stroke="#000000"
     stroke-miterlimit="10"
     width="37"
     height="36"
     id="rect35" /><rect
     x="1701.534"
     y="221.932"
     stroke="#000000"
     stroke-miterlimit="10"
     width="37"
     height="36"
     id="rect37" /><rect
     x="1664.534"
     y="221.932"
     stroke="#000000"
     stroke-miterlimit="10"
     width="37"
     height="36"
     id="rect39" /><rect
     x="1516.534"
     y="41.932"
     stroke="#000000"
     stroke-miterlimit="10"
     width="37"
     height="36"
     id="rect41" /><rect
     x="1442.534"
     y="77.932"
     stroke="#000000"
     stroke-miterlimit="10"
     width="37"
     height="36"
     id="rect43" /><rect
     x="1590.534"
     y="77.932"
     stroke="#000000"
     stroke-miterlimit="10"
     width="37"
     height="36"
     id="rect45" /><rect
     x="1479.534"
     y="113.932"
     stroke="#000000"
     stroke-miterlimit="10"
     width="37"
     height="36"
     id="rect47" /><rect
     x="1553.534"
     y="113.932"
     stroke="#000000"
     stroke-miterlimit="10"
     width="37"
     height="36"
     id="rect49" /><rect
     x="1516.534"
     y="113.932"
     stroke="#000000"
     stroke-miterlimit="10"
     width="37"
     height="36"
     id="rect51" /><rect
     x="1368.534"
     y="257.932"
     fill="#B53700"
     stroke="#B53700"
     stroke-miterlimit="10"
     width="37"
     height="36"
     id="rect53" /><rect
     x="1405.534"
     y="221.932"
     fill="#B53700"
     stroke="#B53700"
     stroke-miterlimit="10"
     width="37"
     height="36"
     id="rect55" /><rect
     x="1442.534"
     y="185.932"
     fill="#B53700"
     stroke="#B53700"
     stroke-miterlimit="10"
     width="37"
     height="36"
     id="rect57" /><rect
     x="1630.534"
     y="185.932"
     fill="#B53700"
     stroke="#B53700"
     stroke-miterlimit="10"
     width="71"
     height="36"
     id="rect59" /><rect
     x="1627.534"
     y="185.932"
     fill="#B53700"
     stroke="#B53700"
     stroke-miterlimit="10"
     width="37"
     height="36"
     id="rect61" /><rect
     x="1590.534"
     y="149.932"
     fill="#B53700"
     stroke="#B53700"
     stroke-miterlimit="10"
     width="37"
     height="36"
     id="rect63" /><rect
     x="1553.534"
     y="149.932"
     fill="#B53700"
     stroke="#B53700"
     stroke-miterlimit="10"
     width="37"
     height="36"
     id="rect65" /><rect
     x="1516.534"
     y="149.932"
     fill="#B53700"
     stroke="#B53700"
     stroke-miterlimit="10"
     width="37"
     height="36"
     id="rect67" /><rect
     x="1479.534"
     y="149.932"
     fill="#B53700"
     stroke="#B53700"
     stroke-miterlimit="10"
     width="148"
     height="36"
     id="rect69" /><rect
     x="1553.534"
     y="365.932"
     stroke="#000000"
     stroke-miterlimit="10"
     width="37"
     height="36"
     id="rect71" /><rect
     x="1553.534"
     y="401.932"
     stroke="#000000"
     stroke-miterlimit="10"
     width="37"
     height="36"
     id="rect73" /><rect
     x="1405.534"
     y="401.932"
     stroke="#000000"
     stroke-miterlimit="10"
     width="37"
     height="36"
     id="rect75" /><rect
     x="1368.534"
     y="365.932"
     stroke="#000000"
     stroke-miterlimit="10"
     width="37"
     height="36"
     id="rect77" /><rect
     x="1368.534"
     y="329.932"
     stroke="#000000"
     stroke-miterlimit="10"
     width="37"
     height="36"
     id="rect79" /><rect
     x="1368.534"
     y="293.932"
     stroke="#000000"
     stroke-miterlimit="10"
     width="37"
     height="36"
     id="rect81" /><rect
     x="1405.534"
     y="257.932"
     stroke="#000000"
     stroke-miterlimit="10"
     width="37"
     height="36"
     id="rect83" /><rect
     x="1442.534"
     y="221.932"
     stroke="#000000"
     stroke-miterlimit="10"
     width="37"
     height="36"
     id="rect85" /><rect
     x="1479.534"
     y="221.932"
     stroke="#000000"
     stroke-miterlimit="10"
     width="37"
     height="36"
     id="rect87" /><rect
     x="1516.534"
     y="221.932"
     stroke="#000000"
     stroke-miterlimit="10"
     width="37"
     height="36"
     id="rect89" /><rect
     x="1738.534"
     y="401.932"
     stroke="#000000"
     stroke-miterlimit="10"
     width="37"
     height="36"
     id="rect91" /><rect
     x="1775.534"
     y="365.932"
     stroke="#000000"
     stroke-miterlimit="10"
     width="37"
     height="36"
     id="rect93" /><rect
     x="1775.534"
     y="329.932"
     stroke="#000000"
     stroke-miterlimit="10"
     width="37"
     height="36"
     id="rect95" /><rect
     x="1775.534"
     y="293.932"
     stroke="#000000"
     stroke-miterlimit="10"
     width="37"
     height="36"
     id="rect97" /><rect
     x="1701.534"
     y="437.932"
     stroke="#000000"
     stroke-miterlimit="10"
     width="37"
     height="36"
     id="rect99" /><rect
     x="1664.534"
     y="437.932"
     stroke="#000000"
     stroke-miterlimit="10"
     width="37"
     height="36"
     id="rect101" /><rect
     x="1627.534"
     y="365.932"
     stroke="#000000"
     stroke-miterlimit="10"
     width="37"
     height="72"
     id="rect103" /><rect
     x="1442.534"
     y="437.932"
     stroke="#000000"
     stroke-miterlimit="10"
     width="111"
     height="36"
     id="rect105" /><rect
     x="1775.534"
     y="545.932"
     fill="#B53700"
     stroke="#B53700"
     stroke-miterlimit="10"
     width="37"
     height="36"
     id="rect107" /><rect
     x="1775.534"
     y="509.932"
     fill="#B53700"
     stroke="#B53700"
     stroke-miterlimit="10"
     width="37"
     height="36"
     id="rect109" /><rect
     x="1775.534"
     y="473.932"
     fill="#B53700"
     stroke="#B53700"
     stroke-miterlimit="10"
     width="37"
     height="90"
     id="rect111" /><rect
     x="1331.534"
     y="509.932"
     fill="#B53700"
     stroke="#B53700"
     stroke-miterlimit="10"
     width="37"
     height="36"
     id="rect113" /><rect
     x="1331.534"
     y="473.932"
     fill="#B53700"
     stroke="#B53700"
     stroke-miterlimit="10"
     width="37"
     height="36"
     id="rect115" /><rect
     x="1331.534"
     y="437.932"
     fill="#B53700"
     stroke="#B53700"
     stroke-miterlimit="10"
     width="37"
     height="144"
     id="rect117" /><rect
     x="1368.534"
     y="401.932"
     fill="#B53700"
     stroke="#B53700"
     stroke-miterlimit="10"
     width="37"
     height="72"
     id="rect119" /><rect
     x="1738.534"
     y="437.932"
     fill="#B53700"
     stroke="#B53700"
     stroke-miterlimit="10"
     width="37"
     height="36"
     id="rect121" /><rect
     x="1368.534"
     y="581.932"
     fill="#B53700"
     stroke="#B53700"
     stroke-miterlimit="10"
     width="37"
     height="36"
     id="rect123" /><rect
     x="1331.534"
     y="653.932"
     fill="#B53700"
     stroke="#B53700"
     stroke-miterlimit="10"
     width="111"
     height="36"
     id="rect125" /><rect
     x="1479.534"
     y="653.932"
     fill="#B53700"
     stroke="#B53700"
     stroke-miterlimit="10"
     width="185"
     height="36"
     id="rect127" /><rect
     x="1516.534"
     y="553.932"
     fill="#B53700"
     stroke="#B53700"
     stroke-miterlimit="10"
     width="37"
     height="36"
     id="rect129" /><rect
     x="1553.534"
     y="589.932"
     fill="#B53700"
     stroke="#B53700"
     stroke-miterlimit="10"
     width="37"
     height="36"
     id="rect131" /><rect
     x="1590.534"
     y="589.932"
     fill="#B53700"
     stroke="#B53700"
     stroke-miterlimit="10"
     width="37"
     height="36"
     id="rect133" /><rect
     x="1664.534"
     y="689.932"
     fill="#B53700"
     stroke="#B53700"
     stroke-miterlimit="10"
     width="37"
     height="72"
     id="rect135" /><rect
     x="1442.534"
     y="689.932"
     fill="#B53700"
     stroke="#B53700"
     stroke-miterlimit="10"
     width="37"
     height="72"
     id="rect137" /><rect
     x="1442.534"
     y="689.932"
     fill="#B53700"
     stroke="#B53700"
     stroke-miterlimit="10"
     width="37"
     height="36"
     id="rect139" /><rect
     x="1405.534"
     y="617.932"
     fill="#B53700"
     stroke="#B53700"
     stroke-miterlimit="10"
     width="37"
     height="36"
     id="rect141" /><rect
     x="1701.534"
     y="653.932"
     fill="#B53700"
     stroke="#B53700"
     stroke-miterlimit="10"
     width="111"
     height="36"
     id="rect143" /><rect
     x="1701.534"
     y="617.932"
     fill="#B53700"
     stroke="#B53700"
     stroke-miterlimit="10"
     width="37"
     height="36"
     id="rect145" /><rect
     x="1738.534"
     y="581.932"
     fill="#B53700"
     stroke="#B53700"
     stroke-miterlimit="10"
     width="37"
     height="36"
     id="rect147" /><rect
     x="1331.534"
     y="545.932"
     fill="#B53700"
     stroke="#B53700"
     stroke-miterlimit="10"
     width="37"
     height="36"
     id="rect149" /><rect
     x="1627.534"
     y="473.932"
     fill="#B53700"
     stroke="#B53700"
     stroke-miterlimit="10"
     width="37"
     height="36"
     id="rect151" /><rect
     x="1442.534"
     y="653.932"
     stroke="#000000"
     stroke-miterlimit="10"
     width="37"
     height="36"
     id="rect153" /><rect
     x="1664.534"
     y="653.932"
     stroke="#000000"
     stroke-miterlimit="10"
     width="37"
     height="36"
     id="rect155" /><rect
     x="2071.034"
     y="156.432"
     fill="#AAAAAA"
     width="149"
     height="74"
     id="rect157" /><rect
     x="1960.034"
     y="228.432"
     fill="#AAAAAA"
     width="148"
     height="66"
     id="rect159" /><rect
     x="1886.034"
     y="334.432"
     fill="#AAAAAA"
     width="41"
     height="104"
     id="rect161" /><rect
     x="1923.034"
     y="290.432"
     fill="#AAAAAA"
     width="74"
     height="75"
     id="rect163" /><rect
     x="1812.034"
     y="507.432"
     fill="#AAAAAA"
     width="41"
     height="146"
     id="rect165" /><rect
     x="1849.034"
     y="401.432"
     fill="#AAAAAA"
     width="42"
     height="146"
     id="rect167" /><rect
     x="1997.534"
     y="191.932"
     stroke="#000000"
     stroke-miterlimit="10"
     width="37"
     height="36"
     id="rect169" /><rect
     x="1960.534"
     y="227.932"
     stroke="#000000"
     stroke-miterlimit="10"
     width="37"
     height="36"
     id="rect171" /><rect
     x="1923.534"
     y="263.932"
     stroke="#000000"
     stroke-miterlimit="10"
     width="37"
     height="36"
     id="rect173" /><rect
     x="1886.534"
     y="299.932"
     stroke="#000000"
     stroke-miterlimit="10"
     width="37"
     height="36"
     id="rect175" /><rect
     x="1849.534"
     y="335.932"
     stroke="#000000"
     stroke-miterlimit="10"
     width="37"
     height="36"
     id="rect177" /><rect
     x="1812.534"
     y="407.932"
     stroke="#000000"
     stroke-miterlimit="10"
     width="37"
     height="99"
     id="rect179" /><rect
     x="1849.534"
     y="371.932"
     stroke="#000000"
     stroke-miterlimit="10"
     width="37"
     height="36"
     id="rect181" /><rect
     x="1849.534"
     y="545.932"
     stroke="#000000"
     stroke-miterlimit="10"
     width="37"
     height="144"
     id="rect183" /><rect
     x="1812.534"
     y="653.932"
     stroke="#000000"
     stroke-miterlimit="10"
     width="37"
     height="36"
     id="rect185" /><rect
     x="1775.534"
     y="581.932"
     stroke="#000000"
     stroke-miterlimit="10"
     width="37"
     height="72"
     id="rect187" /><rect
     x="1886.534"
     y="437.932"
     stroke="#000000"
     stroke-miterlimit="10"
     width="37"
     height="36"
     id="rect189" /><rect
     x="1886.534"
     y="473.932"
     stroke="#000000"
     stroke-miterlimit="10"
     width="37"
     height="36"
     id="rect191" /><rect
     x="1886.534"
     y="509.932"
     stroke="#000000"
     stroke-miterlimit="10"
     width="37"
     height="36"
     id="rect193" /><rect
     x="2145.534"
     y="119.932"
     stroke="#000000"
     stroke-miterlimit="10"
     width="589"
     height="36"
     id="rect195" /><rect
     x="2108.534"
     y="155.932"
     stroke="#000000"
     stroke-miterlimit="10"
     width="37"
     height="36"
     id="rect197" /><rect
     x="2071.534"
     y="155.932"
     stroke="#000000"
     stroke-miterlimit="10"
     width="37"
     height="36"
     id="rect199" /><rect
     x="2034.534"
     y="191.932"
     stroke="#000000"
     stroke-miterlimit="10"
     width="37"
     height="36"
     id="rect201" /><rect
     x="2108.534"
     y="230.932"
     stroke="#000000"
     stroke-miterlimit="10"
     width="37"
     height="36"
     id="rect203" /><rect
     x="2071.534"
     y="257.932"
     stroke="#000000"
     stroke-miterlimit="10"
     width="37"
     height="36"
     id="rect205" /><rect
     x="2034.534"
     y="257.932"
     stroke="#000000"
     stroke-miterlimit="10"
     width="37"
     height="36"
     id="rect207" /><rect
     x="1997.534"
     y="293.932"
     stroke="#000000"
     stroke-miterlimit="10"
     width="37"
     height="36"
     id="rect209" /><rect
     x="1960.534"
     y="329.932"
     stroke="#000000"
     stroke-miterlimit="10"
     width="37"
     height="36"
     id="rect211" /><rect
     x="1923.534"
     y="365.932"
     stroke="#000000"
     stroke-miterlimit="10"
     width="37"
     height="36"
     id="rect213" /><rect
     x="1923.534"
     y="401.932"
     stroke="#000000"
     stroke-miterlimit="10"
     width="37"
     height="36"
     id="rect215" /><rect
     x="2257.534"
     y="155.932"
     stroke="#000000"
     stroke-miterlimit="10"
     width="37"
     height="38"
     id="rect217" /><rect
     x="2220.534"
     y="155.932"
     stroke="#000000"
     stroke-miterlimit="10"
     width="37"
     height="38"
     id="rect219" /><rect
     x="2183.534"
     y="193.932"
     stroke="#000000"
     stroke-miterlimit="10"
     width="37"
     height="36"
     id="rect221" /><rect
     x="2146.534"
     y="193.932"
     stroke="#000000"
     stroke-miterlimit="10"
     width="37"
     height="36"
     id="rect223" /><rect
     x="1702.034"
     y="690.432"
     fill="#F99D0B"
     width="110"
     height="72"
     id="rect225" /><rect
     x="1332.034"
     y="690.432"
     fill="#F99D0B"
     width="110"
     height="72"
     id="rect227" /><rect
     x="1479.534"
     y="689.932"
     stroke="#000000"
     stroke-miterlimit="10"
     width="185"
     height="36"
     id="rect229" /><rect
     x="1591.034"
     y="240.432"
     fill="#F99D0B"
     width="36"
     height="54"
     id="rect231" /><rect
     x="1627.534"
     y="329.932"
     fill="#67BDF9"
     stroke="#67BDF9"
     stroke-miterlimit="10"
     width="37"
     height="36"
     id="rect233" /><rect
     x="1553.534"
     y="328.932"
     fill="#67BDF9"
     stroke="#67BDF9"
     stroke-miterlimit="10"
     width="37"
     height="36"
     id="rect235" /><rect
     x="1590.534"
     y="365.932"
     fill="#67BDF9"
     stroke="#67BDF9"
     stroke-miterlimit="10"
     width="37"
     height="72"
     id="rect237" /><rect
     x="1664.534"
     y="365.932"
     fill="#67BDF9"
     stroke="#67BDF9"
     stroke-miterlimit="10"
     width="37"
     height="72"
     id="rect239" /><rect
     x="1516.534"
     y="365.932"
     fill="#67BDF9"
     stroke="#67BDF9"
     stroke-miterlimit="10"
     width="37"
     height="72"
     id="rect241" /><g
     id="g243"><path
       d="M4054.971,1282.764v81h-250.875v-81h-81.062v-567h-81v-89h81v-162h170v162h162v89h-162v559h73v-162h170v170H4054.971z"
       id="path245" /><path
       d="M4533.034,1363.764v-648h-73.156v81h-80.844v567h-170v-980h170v324h73.281v-81h169.719v81.031h81v655.969H4533.034z"
       id="path247" /><path
       d="M5269.987,1282.764v81h-331.906v-81h-81.047v-575h81.047v-81h331.906v81h81.047v575H5269.987z M5181.034,715.482h-154   v559.563h154V715.482z"
       id="path249" /><path
       d="M5829.034,1363.764v-648h-73.156v81h-80.844v567h-170v-737h88.766v81h154.375v-81h169.812v81.031h81.047v655.969H5829.034z   "
       id="path251" /></g><g
     id="g253"><path
       fill="#FFFFFF"
       d="M2534.229,1879.734v-405h-235v405h-170v-899h170v405h235v-405h170v331.937h-81v81.062h-81v73h162v324.219   h81v88.781H2534.229z"
       id="path255" /><path
       fill="#FFFFFF"
       d="M3263.229,1879.734v-405h-235v405h-170v-818h81.047v-81h412.906v81h81.047v818H3263.229z    M3263.229,1069.453h-235v316.281h235V1069.453z"
       id="path257" /></g><rect
     x="2700.034"
     y="156.432"
     fill="#AAAAAA"
     width="25"
     height="718"
     id="rect259" /><path
     style="fill:#000000;stroke:#000000;stroke-width:12.94261551;stroke-linecap:butt;stroke-linejoin:round;stroke-miterlimit:4;stroke-opacity:0;stroke-dasharray:none"
     d="m 2702.0629,515.71937 0,-358.51045 10.3541,0 10.3541,0 0,358.51045 0,358.51046 -10.3541,0 -10.3541,0 0,-358.51046 z"
     id="path3242"
     inkscape:connector-curvature="0" /><path
     style="fill:#000000;stroke:#000000;stroke-width:12.94261551;stroke-linecap:butt;stroke-linejoin:round;stroke-miterlimit:4;stroke-opacity:0;stroke-dasharray:none"
     d="m 2702.0629,515.71937 0,-358.51045 10.3541,0 10.3541,0 0,358.51045 0,358.51046 -10.3541,0 -10.3541,0 0,-358.51046 z"
     id="path3244"
     inkscape:connector-curvature="0" /><path
     style="fill:#000000;stroke:#000000;stroke-width:12.94261551;stroke-linecap:butt;stroke-linejoin:round;stroke-miterlimit:4;stroke-opacity:0;stroke-dasharray:none"
     d="m 1983.7038,2009.2071 c -16.7526,-8.2696 -15.4145,37.7185 -16.2285,-557.7366 -0.4077,-298.2626 -0.026,-546.28064 0.8476,-551.15122 0.9034,-5.03558 4.9702,-12.01437 9.4277,-16.17827 l 7.8389,-7.32266 792.9095,0 792.9095,0 7.5989,7.59896 c 4.541,4.54101 8.2555,11.57225 9.2305,17.47253 0.8973,5.43046 1.5785,250.99446 1.5139,545.69786 -0.09,408.1486 -0.8538,537.9617 -3.2072,544.7945 -1.7653,5.1253 -6.8596,11.505 -11.885,14.884 l -8.7956,5.9138 -787.1753,-0.059 c -691.8901,-0.052 -788.1207,-0.5256 -794.9849,-3.914 z m 317.138,-331.2408 0,-203.1991 116.4836,0 116.4835,0 0,203.1991 0,203.199 126.8377,0 126.8376,0 0,-45.2991 0,-45.2992 -41.4164,0 -41.4164,0 0,-163.0769 0,-163.077 -80.2442,0 -80.2442,0 0,-34.9451 0,-34.945 40.1221,0 40.1221,0 0,-40.1221 0,-40.1221 40.1221,0 40.1221,0 0,-166.9598 0,-166.95973 -85.4212,0 -85.4213,0 0,201.90483 0,201.9048 -116.4835,0 -116.4836,0 0,-201.9048 0,-201.90483 -86.7155,0 -86.7155,0 0,450.40303 0,450.403 86.7155,0 86.7155,0 0,-203.199 z m 727.375,0 0,-203.1991 116.4836,0 116.4835,0 0,203.1991 0,203.199 86.7155,0 86.7156,0 0,-410.2809 0,-410.2809 -40.1221,0 -40.1221,0 0,-40.1221 0,-40.12213 -208.3762,0 -208.3761,0 0,40.12213 0,40.1221 -40.1221,0 -40.1221,0 0,410.2809 0,410.2809 85.4213,0 85.4212,0 0,-203.199 z"
     id="path3246"
     inkscape:connector-curvature="0" /></svg>