<?xml version="1.0" encoding="UTF-8" standalone="no"?>
<!-- Created with Inkscape (http://www.inkscape.org/) -->

<svg
   xmlns:dc="http://purl.org/dc/elements/1.1/"
   xmlns:cc="http://creativecommons.org/ns#"
   xmlns:rdf="http://www.w3.org/1999/02/22-rdf-syntax-ns#"
   xmlns:svg="http://www.w3.org/2000/svg"
   xmlns="http://www.w3.org/2000/svg"
   xmlns:sodipodi="http://sodipodi.sourceforge.net/DTD/sodipodi-0.dtd"
   xmlns:inkscape="http://www.inkscape.org/namespaces/inkscape"
   id="svg2"
   version="1.1"
   inkscape:version="0.48.4 r9939"
   width="492.325"
   height="105.125"
   xml:space="preserve"
   sodipodi:docname="MSFT_logo_eps.eps"><metadata
     id="metadata8"><rdf:RDF><cc:Work
         rdf:about=""><dc:format>image/svg+xml</dc:format><dc:type
           rdf:resource="http://purl.org/dc/dcmitype/StillImage" /><dc:title></dc:title></cc:Work></rdf:RDF></metadata><defs
     id="defs6" /><sodipodi:namedview
     pagecolor="#ffffff"
     bordercolor="#666666"
     borderopacity="1"
     objecttolerance="10"
     gridtolerance="10"
     guidetolerance="10"
     inkscape:pageopacity="0"
     inkscape:pageshadow="2"
     inkscape:window-width="1535"
     inkscape:window-height="876"
     id="namedview4"
     showgrid="false"
     inkscape:zoom="0.73325545"
     inkscape:cx="246.16251"
     inkscape:cy="52.5625"
     inkscape:window-x="65"
     inkscape:window-y="24"
     inkscape:window-maximized="1"
     inkscape:current-layer="g10" /><g
     id="g10"
     inkscape:groupmode="layer"
     inkscape:label="ink_ext_XXXXXX"
     transform="matrix(1.25,0,0,-1.25,0,105.125)"><g
       id="g12"
       transform="scale(0.1,0.1)"><path
         d="m 1390.21,356.41 -23.6,-66.074 -1.35,0 c -4.22,15.488 -11.29,37.441 -22.36,65.352 l -126.35,316.953 -123.52,0 0,-503.914 81.47,0 0,309.773 c 0,19.121 -0.41,42.227 -1.22,68.672 -0.42,13.379 -1.93,24.101 -2.31,32.266 l 1.79,0 c 4.14,-18.985 8.45,-33.446 11.56,-43.125 l 151.5,-367.586 57,0 150.37,370.906 c 3.42,8.457 7.03,24.961 10.35,39.805 l 1.79,0 c -1.96,-36.708 -3.63,-70.254 -3.86,-90.497 l 0,-320.214 86.92,0 0,503.914 -118.63,0 -129.55,-316.231"
         style="fill:#706d6e;fill-opacity:1;fill-rule:nonzero;stroke:none"
         id="path14" /><path
         d="m 1720.21,168.727 84.9609,0 0,361.121 -84.9609,0 0,-361.121 z"
         style="fill:#706d6e;fill-opacity:1;fill-rule:nonzero;stroke:none"
         id="path16" /><path
         d="m 1763.56,683.316 c -13.99,0 -26.17,-4.777 -36.19,-14.191 -10.06,-9.453 -15.16,-21.375 -15.16,-35.43 0,-13.828 5.05,-25.507 15,-34.726 9.9,-9.18 22.13,-13.836 36.35,-13.836 14.22,0 26.51,4.656 36.52,13.828 10.08,9.227 15.19,20.906 15.19,34.734 0,13.567 -4.97,25.352 -14.77,35.039 -9.81,9.68 -22.23,14.582 -36.94,14.582"
         style="fill:#706d6e;fill-opacity:1;fill-rule:nonzero;stroke:none"
         id="path18" /><path
         d="m 2105.9,533.461 c -16.34,3.379 -32.31,5.09 -47.47,5.09 -38.99,0 -73.74,-8.352 -103.31,-24.836 -29.62,-16.504 -52.55,-40.078 -68.12,-70.059 -15.54,-29.902 -23.42,-64.812 -23.42,-103.769 0,-34.121 7.66,-65.418 22.74,-93.028 15.12,-27.656 36.5,-49.277 63.57,-64.277 27.05,-14.969 58.29,-22.566 92.86,-22.566 40.38,0 74.86,8.066 102.47,23.984 l 1.13,0.652 0,77.813 -3.57,-2.606 c -12.54,-9.121 -26.52,-16.398 -41.56,-21.632 -15.02,-5.235 -28.71,-7.891 -40.7,-7.891 -33.33,0 -60.08,10.43 -79.51,30.996 -19.47,20.586 -29.34,49.473 -29.34,85.859 0,36.622 10.28,66.282 30.57,88.157 20.23,21.816 47.04,32.879 79.66,32.879 27.94,0 55.15,-9.454 80.88,-28.125 l 3.57,-2.586 0,82 -1.14,0.644 c -9.69,5.422 -22.92,9.895 -39.31,13.301"
         style="fill:#706d6e;fill-opacity:1;fill-rule:nonzero;stroke:none"
         id="path20" /><path
         d="m 2385.79,536.117 c -21.33,0 -40.44,-6.855 -56.81,-20.371 -14.36,-11.855 -24.73,-28.125 -32.68,-48.426 l -0.9,0 0,62.528 -84.94,0 0,-361.121 84.94,0 0,184.734 c 0,31.418 7.13,57.219 21.17,76.699 13.88,19.258 32.37,29.016 54.94,29.016 7.66,0 16.25,-1.262 25.55,-3.75 9.2,-2.481 15.87,-5.176 19.81,-8.008 l 3.57,-2.578 0,85.633 -1.38,0.586 c -7.9,3.359 -19.1,5.058 -33.27,5.058"
         style="fill:#706d6e;fill-opacity:1;fill-rule:nonzero;stroke:none"
         id="path22" /><path
         d="m 2684.05,260.492 c -15.95,-20.019 -39.97,-30.156 -71.37,-30.156 -31.21,0 -55.82,10.332 -73.16,30.723 -17.44,20.5 -26.29,49.707 -26.29,86.836 0,38.281 8.85,68.261 26.29,89.101 17.36,20.723 41.73,31.231 72.46,31.231 29.82,0 53.56,-10.039 70.56,-29.864 17.09,-19.91 25.75,-49.648 25.75,-88.379 0,-39.226 -8.15,-69.336 -24.24,-89.492 z m -67.54,278.059 c -59.56,0 -106.85,-17.453 -140.56,-51.867 -33.71,-34.403 -50.79,-82.039 -50.79,-141.582 0,-56.543 16.68,-102.012 49.58,-135.145 32.9,-33.137 77.67,-49.941 133.06,-49.941 57.72,0 104.08,17.683 137.8,52.578 33.69,34.863 50.78,82.019 50.78,140.176 0,57.449 -16.04,103.261 -47.65,136.16 -31.63,32.929 -76.12,49.621 -132.22,49.621"
         style="fill:#706d6e;fill-opacity:1;fill-rule:nonzero;stroke:none"
         id="path24" /><path
         d="m 2984.77,380.629 c -26.78,10.762 -43.94,19.68 -50.99,26.516 -6.83,6.609 -10.29,15.964 -10.29,27.812 0,10.508 4.27,18.926 13.06,25.731 8.83,6.855 21.15,10.332 36.58,10.332 14.35,0 29.01,-2.254 43.58,-6.7 14.55,-4.433 27.35,-10.371 38.05,-17.636 l 3.51,-2.391 0,78.523 -1.37,0.586 c -9.84,4.219 -22.83,7.832 -38.61,10.762 -15.73,2.91 -29.99,4.387 -42.37,4.387 -40.51,0 -74.02,-10.363 -99.62,-30.793 -25.74,-20.547 -38.8,-47.5 -38.8,-80.117 0,-16.953 2.81,-32.012 8.37,-44.766 5.57,-12.82 14.22,-24.121 25.7,-33.582 11.37,-9.387 28.97,-19.219 52.27,-29.238 19.57,-8.059 34.18,-14.875 43.46,-20.254 9.08,-5.266 15.51,-10.559 19.14,-15.715 3.54,-5.047 5.34,-11.934 5.34,-20.469 0,-24.277 -18.18,-36.062 -55.56,-36.062 -13.88,0 -29.69,2.89 -47.01,8.593 -17.34,5.704 -33.55,13.915 -48.15,24.415 l -3.56,2.566 0,-82.801 1.3,-0.605 c 12.18,-5.618 27.51,-10.352 45.59,-14.082 18.08,-3.743 34.47,-5.625 48.69,-5.625 43.97,0 79.35,10.418 105.18,30.957 25.99,20.672 39.16,48.269 39.16,82.039 0,24.336 -7.08,45.215 -21.06,62.043 -13.89,16.699 -37.97,32.031 -71.59,45.574"
         style="fill:#706d6e;fill-opacity:1;fill-rule:nonzero;stroke:none"
         id="path26" /><path
         d="m 3373.39,260.492 c -15.96,-20.019 -39.98,-30.156 -71.38,-30.156 -31.2,0 -55.82,10.332 -73.16,30.723 -17.44,20.5 -26.28,49.707 -26.28,86.836 0,38.281 8.85,68.261 26.29,89.101 17.34,20.723 41.72,31.231 72.46,31.231 29.8,0 53.55,-10.039 70.56,-29.864 17.08,-19.91 25.75,-49.648 25.75,-88.379 0,-39.226 -8.17,-69.336 -24.24,-89.492 z m -67.55,278.059 c -59.56,0 -106.85,-17.453 -140.57,-51.867 -33.7,-34.403 -50.79,-82.039 -50.79,-141.582 0,-56.543 16.68,-102.012 49.59,-135.145 32.9,-33.137 77.67,-49.941 133.07,-49.941 57.7,0 104.07,17.683 137.78,52.578 33.7,34.863 50.79,82.019 50.79,140.176 0,57.449 -16.03,103.261 -47.65,136.16 -31.63,32.929 -76.13,49.621 -132.22,49.621"
         style="fill:#706d6e;fill-opacity:1;fill-rule:nonzero;stroke:none"
         id="path28" /><path
         d="m 3938.64,460.57 0,69.278 -86.02,0 0,107.715 -2.9,-0.887 -80.8,-24.738 -1.6,-0.489 0,-81.601 -127.46,0 0,45.461 c 0,21.16 4.74,37.363 14.09,48.152 9.26,10.703 22.51,16.125 39.38,16.125 12.15,0 24.74,-2.871 37.4,-8.527 l 3.17,-1.407 0,72.969 -1.49,0.527 c -11.79,4.25 -27.87,6.407 -47.78,6.407 -25.1,0 -47.9,-5.489 -67.76,-16.289 -19.91,-10.848 -35.56,-26.317 -46.52,-45.985 -10.94,-19.64 -16.47,-42.324 -16.47,-67.441 l 0,-49.992 -59.91,0 0,-69.278 59.91,0 0,-291.843 85.98,0 0,291.843 127.46,0 0,-185.468 c 0,-76.368 36.03,-115.086 107.08,-115.086 11.68,0 23.98,1.367 36.52,4.05 12.78,2.754 21.47,5.508 26.59,8.438 l 1.13,0.644 0,69.954 -3.49,-2.336 c -4.66,-3.114 -10.48,-5.653 -17.3,-7.547 -6.84,-1.914 -12.56,-2.883 -16.98,-2.883 -16.65,0 -28.97,4.484 -36.61,13.332 -7.73,8.934 -11.64,24.539 -11.64,46.414 l 0,170.488 86.02,0"
         style="fill:#706d6e;fill-opacity:1;fill-rule:nonzero;stroke:none"
         id="path30" /><path
         d="m 0,441.359 399.609,0 0,399.609 -399.609,0 0,-399.609 z"
         style="fill:#f1511b;fill-opacity:1;fill-rule:nonzero;stroke:none"
         id="path32" /><path
         d="m 441.211,441.367 399.602,0 0,399.602 -399.602,0 0,-399.602 z"
         style="fill:#80cc28;fill-opacity:1;fill-rule:nonzero;stroke:none"
         id="path34" /><path
         d="m 0,0 399.602,0 0,399.602 L 0,399.602 0,0 z"
         style="fill:#00adef;fill-opacity:1;fill-rule:nonzero;stroke:none"
         id="path36" /><path
         d="m 441.211,0 399.602,0 0,399.602 -399.602,0 0,-399.602 z"
         style="fill:#fbbc09;fill-opacity:1;fill-rule:nonzero;stroke:none"
         id="path38" /></g></g></svg>