<?xml version="1.0" encoding="utf-8"?>
<!-- Generator: Adobe Illustrator 16.0.0, SVG Export Plug-In . SVG Version: 6.00 Build 0)  -->
<!DOCTYPE svg PUBLIC "-//W3C//DTD SVG 1.1//EN" "http://www.w3.org/Graphics/SVG/1.1/DTD/svg11.dtd">
<svg version="1.1" id="Layer_1" xmlns="http://www.w3.org/2000/svg" xmlns:xlink="http://www.w3.org/1999/xlink" x="0px" y="0px"
	 width="564px" height="288px" viewBox="0 0 564 288" enable-background="new 0 0 564 288" xml:space="preserve">
<g>
	<rect x="37" y="144" fill="#91DD4E" stroke="#91DD4E" stroke-miterlimit="10" width="74" height="109"/>
	<rect x="453" y="72" fill="#91DD4E" stroke="#91DD4E" stroke-miterlimit="10" width="74" height="109"/>
	<rect x="222" fill="#91DD4E" stroke="#91DD4E" stroke-miterlimit="10" width="120" height="288"/>
	<rect x="185" y="180" stroke="#000000" stroke-miterlimit="10" width="37" height="36"/>
	<rect x="342" y="216" stroke="#000000" stroke-miterlimit="10" width="37" height="36"/>
	<rect x="342" y="180" stroke="#000000" stroke-miterlimit="10" width="37" height="36"/>
	<rect x="222" y="216" stroke="#000000" stroke-miterlimit="10" width="37" height="36"/>
	<rect x="305" stroke="#000000" stroke-miterlimit="10" width="37" height="36"/>
	<rect x="305" y="144" stroke="#000000" stroke-miterlimit="10" width="37" height="36"/>
	<rect x="222" y="72" stroke="#000000" stroke-miterlimit="10" width="37" height="36"/>
	<rect x="185" y="108" stroke="#000000" stroke-miterlimit="10" width="37" height="36"/>
	<rect x="185" y="144" stroke="#000000" stroke-miterlimit="10" width="37" height="36"/>
	<rect x="185" y="36" stroke="#000000" stroke-miterlimit="10" width="37" height="36"/>
	<rect x="185" stroke="#000000" stroke-miterlimit="10" width="37" height="36"/>
	<rect x="342" y="108" stroke="#000000" stroke-miterlimit="10" width="37" height="36"/>
	<rect x="342" y="36" stroke="#000000" stroke-miterlimit="10" width="37" height="36"/>
	<rect x="342" y="72" stroke="#000000" stroke-miterlimit="10" width="37" height="36"/>
	<rect x="416" y="108" stroke="#000000" stroke-miterlimit="10" width="37" height="36"/>
	<rect x="453" y="144" stroke="#000000" stroke-miterlimit="10" width="37" height="36"/>
	<rect x="490" y="180" stroke="#000000" stroke-miterlimit="10" width="37" height="36"/>
	<rect x="416" y="36" stroke="#000000" stroke-miterlimit="10" width="37" height="36"/>
	<rect x="453" y="36" stroke="#000000" stroke-miterlimit="10" width="37" height="36"/>
	<rect x="490" y="72" stroke="#000000" stroke-miterlimit="10" width="37" height="36"/>
	<rect x="527" y="108" stroke="#000000" stroke-miterlimit="10" width="37" height="36"/>
	<rect x="527" y="144" stroke="#000000" stroke-miterlimit="10" width="37" height="36"/>
	<rect x="379" y="36" stroke="#000000" stroke-miterlimit="10" width="37" height="36"/>
	<rect x="416" y="72" stroke="#000000" stroke-miterlimit="10" width="37" height="36"/>
	<rect x="111" y="180" stroke="#000000" stroke-miterlimit="10" width="37" height="36"/>
	<rect x="74" y="216" stroke="#000000" stroke-miterlimit="10" width="37" height="36"/>
	<rect x="37" y="252" stroke="#000000" stroke-miterlimit="10" width="37" height="36"/>
	<rect x="111" y="108" stroke="#000000" stroke-miterlimit="10" width="37" height="36"/>
	<rect x="74" y="108" stroke="#000000" stroke-miterlimit="10" width="37" height="36"/>
	<rect x="37" y="144" stroke="#000000" stroke-miterlimit="10" width="37" height="36"/>
	<rect y="180" stroke="#000000" stroke-miterlimit="10" width="37" height="36"/>
	<rect y="216" stroke="#000000" stroke-miterlimit="10" width="37" height="36"/>
	<rect x="148" y="108" stroke="#000000" stroke-miterlimit="10" width="37" height="36"/>
	<rect x="111" y="144" stroke="#000000" stroke-miterlimit="10" width="37" height="36"/>
	<rect x="185" y="252" stroke="#000000" stroke-miterlimit="10" width="37" height="36"/>
	<rect x="342" y="252" stroke="#000000" stroke-miterlimit="10" width="37" height="36"/>
</g>
</svg>
