<?xml version="1.0" encoding="utf-8"?>
<!-- Generator: Adobe Illustrator 16.0.0, SVG Export Plug-In . SVG Version: 6.00 Build 0)  -->
<!DOCTYPE svg PUBLIC "-//W3C//DTD SVG 1.1//EN" "http://www.w3.org/Graphics/SVG/1.1/DTD/svg11.dtd">
<svg version="1.1" id="Layer_1" xmlns="http://www.w3.org/2000/svg" xmlns:xlink="http://www.w3.org/1999/xlink" x="0px" y="0px"
	 width="519px" height="613px" viewBox="0 0 519 613" enable-background="new 0 0 519 613" xml:space="preserve">
<g>
	<rect x="37" y="108.5" fill="#CC8D00" stroke="#000000" stroke-miterlimit="10" width="445" height="445"/>
	<rect x="37" y="72.5" stroke="#000000" stroke-miterlimit="10" width="37" height="36"/>
	<rect y="180.5" stroke="#000000" stroke-miterlimit="10" width="37" height="36"/>
	<rect y="144.5" stroke="#000000" stroke-miterlimit="10" width="37" height="36"/>
	<rect x="222" y="72.5" stroke="#000000" stroke-miterlimit="10" width="37" height="36"/>
	<rect x="74" y="144.5" stroke="#000000" stroke-miterlimit="10" width="37" height="36"/>
	<rect x="185" y="72.5" stroke="#000000" stroke-miterlimit="10" width="37" height="36"/>
	<rect x="148" y="72.5" stroke="#000000" stroke-miterlimit="10" width="37" height="36"/>
	<rect x="111" y="72.5" stroke="#000000" stroke-miterlimit="10" width="37" height="36"/>
	<rect x="74" y="72.5" stroke="#000000" stroke-miterlimit="10" width="37" height="36"/>
	<rect y="108.5" stroke="#000000" stroke-miterlimit="10" width="37" height="36"/>
	<rect x="408" y="481.5" stroke="#000000" stroke-miterlimit="10" width="37" height="36"/>
	<rect x="74" y="481.5" stroke="#000000" stroke-miterlimit="10" width="37" height="36"/>
	<rect y="360.5" stroke="#000000" stroke-miterlimit="10" width="37" height="193"/>
	<rect y="324.5" stroke="#000000" stroke-miterlimit="10" width="37" height="36"/>
	<rect y="288.5" stroke="#000000" stroke-miterlimit="10" width="37" height="36"/>
	<rect y="252.5" stroke="#000000" stroke-miterlimit="10" width="37" height="36"/>
	<rect y="216.5" stroke="#000000" stroke-miterlimit="10" width="37" height="36"/>
	<rect x="407" y="145.5" stroke="#000000" stroke-miterlimit="10" width="37" height="36"/>
	<rect x="445" y="72.5" stroke="#000000" stroke-miterlimit="10" width="37" height="36"/>
	<rect x="408" y="72.5" stroke="#000000" stroke-miterlimit="10" width="37" height="36"/>
	<rect x="371" y="72.5" stroke="#000000" stroke-miterlimit="10" width="37" height="36"/>
	<rect x="334" y="72.5" stroke="#000000" stroke-miterlimit="10" width="37" height="36"/>
	<rect x="297" y="72.5" stroke="#000000" stroke-miterlimit="10" width="37" height="36"/>
	<rect x="259" y="72.5" stroke="#000000" stroke-miterlimit="10" width="37" height="36"/>
	<rect x="483" y="108.5" stroke="#000000" stroke-miterlimit="10" width="36" height="37"/>
	<rect x="483" y="293.5" stroke="#000000" stroke-miterlimit="10" width="36" height="37"/>
	<rect x="483" y="256.5" stroke="#000000" stroke-miterlimit="10" width="36" height="37"/>
	<rect x="483" y="219.5" stroke="#000000" stroke-miterlimit="10" width="36" height="37"/>
	<rect x="483" y="182.5" stroke="#000000" stroke-miterlimit="10" width="36" height="37"/>
	<rect x="483" y="145.5" stroke="#000000" stroke-miterlimit="10" width="36" height="37"/>
	<rect x="483" y="516.5" stroke="#000000" stroke-miterlimit="10" width="36" height="37"/>
	<rect x="483" y="479.5" stroke="#000000" stroke-miterlimit="10" width="36" height="37"/>
	<rect x="483" y="442.5" stroke="#000000" stroke-miterlimit="10" width="36" height="37"/>
	<rect x="483" y="405.5" stroke="#000000" stroke-miterlimit="10" width="36" height="37"/>
	<rect x="483" y="368.5" stroke="#000000" stroke-miterlimit="10" width="36" height="37"/>
	<rect x="483" y="330.5" stroke="#000000" stroke-miterlimit="10" width="36" height="37"/>
	<rect x="37" y="553.5" stroke="#000000" stroke-miterlimit="10" width="37" height="36"/>
	<rect x="221" y="553.5" stroke="#000000" stroke-miterlimit="10" width="37" height="36"/>
	<rect x="184" y="553.5" stroke="#000000" stroke-miterlimit="10" width="37" height="36"/>
	<rect x="147" y="553.5" stroke="#000000" stroke-miterlimit="10" width="37" height="36"/>
	<rect x="110" y="553.5" stroke="#000000" stroke-miterlimit="10" width="37" height="36"/>
	<rect x="73" y="553.5" stroke="#000000" stroke-miterlimit="10" width="37" height="36"/>
	<rect x="445" y="553.5" stroke="#000000" stroke-miterlimit="10" width="37" height="36"/>
	<rect x="407" y="553.5" stroke="#000000" stroke-miterlimit="10" width="37" height="36"/>
	<rect x="370" y="553.5" stroke="#000000" stroke-miterlimit="10" width="37" height="36"/>
	<rect x="333" y="553.5" stroke="#000000" stroke-miterlimit="10" width="37" height="36"/>
	<rect x="296" y="553.5" stroke="#000000" stroke-miterlimit="10" width="37" height="36"/>
	<rect x="258" y="553.5" stroke="#000000" stroke-miterlimit="10" width="37" height="36"/>
</g>
<rect x="174" y="40.5" stroke="#000000" stroke-miterlimit="10" width="37" height="36"/>
<rect x="174" y="0.5" stroke="#000000" stroke-miterlimit="10" width="37" height="40"/>
<rect x="294" y="36.5" stroke="#000000" stroke-miterlimit="10" width="37" height="36"/>
<rect x="294" y="0.5" stroke="#000000" stroke-miterlimit="10" width="37" height="36"/>
<rect x="211" y="0.5" fill="#91DD4E" stroke="#91DD4E" stroke-miterlimit="10" width="83" height="72"/>
</svg>
