<?xml version="1.0" encoding="utf-8"?>
<!-- Generator: Adobe Illustrator 16.0.0, SVG Export Plug-In . SVG Version: 6.00 Build 0)  -->
<!DOCTYPE svg PUBLIC "-//W3C//DTD SVG 1.1//EN" "http://www.w3.org/Graphics/SVG/1.1/DTD/svg11.dtd">
<svg version="1.1" id="Layer_1" xmlns="http://www.w3.org/2000/svg" xmlns:xlink="http://www.w3.org/1999/xlink" x="0px" y="0px"
	 width="519px" height="517px" viewBox="0 0 519 517" enable-background="new 0 0 519 517" xml:space="preserve">
<g>
	<rect x="37" y="36" fill="#CC8D00" stroke="#000000" stroke-miterlimit="10" width="445" height="445"/>
	<rect x="37" stroke="#000000" stroke-miterlimit="10" width="37" height="36"/>
	<rect y="108" stroke="#000000" stroke-miterlimit="10" width="37" height="36"/>
	<rect y="72" stroke="#000000" stroke-miterlimit="10" width="37" height="36"/>
	<rect x="222" stroke="#000000" stroke-miterlimit="10" width="37" height="36"/>
	<rect x="74" y="72" stroke="#000000" stroke-miterlimit="10" width="37" height="36"/>
	<rect x="185" stroke="#000000" stroke-miterlimit="10" width="37" height="36"/>
	<rect x="148" stroke="#000000" stroke-miterlimit="10" width="37" height="36"/>
	<rect x="111" stroke="#000000" stroke-miterlimit="10" width="37" height="36"/>
	<rect x="74" stroke="#000000" stroke-miterlimit="10" width="37" height="36"/>
	<rect y="36" stroke="#000000" stroke-miterlimit="10" width="37" height="36"/>
	<rect x="408" y="409" stroke="#000000" stroke-miterlimit="10" width="37" height="36"/>
	<rect x="74" y="409" stroke="#000000" stroke-miterlimit="10" width="37" height="36"/>
	<rect y="288" stroke="#000000" stroke-miterlimit="10" width="37" height="193"/>
	<rect y="252" stroke="#000000" stroke-miterlimit="10" width="37" height="36"/>
	<rect y="216" stroke="#000000" stroke-miterlimit="10" width="37" height="36"/>
	<rect y="180" stroke="#000000" stroke-miterlimit="10" width="37" height="36"/>
	<rect y="144" stroke="#000000" stroke-miterlimit="10" width="37" height="36"/>
	<rect x="407" y="73" stroke="#000000" stroke-miterlimit="10" width="37" height="36"/>
	<rect x="445" stroke="#000000" stroke-miterlimit="10" width="37" height="36"/>
	<rect x="408" stroke="#000000" stroke-miterlimit="10" width="37" height="36"/>
	<rect x="371" stroke="#000000" stroke-miterlimit="10" width="37" height="36"/>
	<rect x="334" stroke="#000000" stroke-miterlimit="10" width="37" height="36"/>
	<rect x="297" stroke="#000000" stroke-miterlimit="10" width="37" height="36"/>
	<rect x="259" stroke="#000000" stroke-miterlimit="10" width="37" height="36"/>
	<rect x="483" y="36" stroke="#000000" stroke-miterlimit="10" width="36" height="37"/>
	<rect x="483" y="221" stroke="#000000" stroke-miterlimit="10" width="36" height="37"/>
	<rect x="483" y="184" stroke="#000000" stroke-miterlimit="10" width="36" height="37"/>
	<rect x="483" y="147" stroke="#000000" stroke-miterlimit="10" width="36" height="37"/>
	<rect x="483" y="110" stroke="#000000" stroke-miterlimit="10" width="36" height="37"/>
	<rect x="483" y="73" stroke="#000000" stroke-miterlimit="10" width="36" height="37"/>
	<rect x="483" y="444" stroke="#000000" stroke-miterlimit="10" width="36" height="37"/>
	<rect x="483" y="407" stroke="#000000" stroke-miterlimit="10" width="36" height="37"/>
	<rect x="483" y="370" stroke="#000000" stroke-miterlimit="10" width="36" height="37"/>
	<rect x="483" y="333" stroke="#000000" stroke-miterlimit="10" width="36" height="37"/>
	<rect x="483" y="296" stroke="#000000" stroke-miterlimit="10" width="36" height="37"/>
	<rect x="483" y="258" stroke="#000000" stroke-miterlimit="10" width="36" height="37"/>
	<rect x="37" y="481" stroke="#000000" stroke-miterlimit="10" width="37" height="36"/>
	<rect x="221" y="481" stroke="#000000" stroke-miterlimit="10" width="37" height="36"/>
	<rect x="184" y="481" stroke="#000000" stroke-miterlimit="10" width="37" height="36"/>
	<rect x="147" y="481" stroke="#000000" stroke-miterlimit="10" width="37" height="36"/>
	<rect x="110" y="481" stroke="#000000" stroke-miterlimit="10" width="37" height="36"/>
	<rect x="73" y="481" stroke="#000000" stroke-miterlimit="10" width="37" height="36"/>
	<rect x="445" y="481" stroke="#000000" stroke-miterlimit="10" width="37" height="36"/>
	<rect x="407" y="481" stroke="#000000" stroke-miterlimit="10" width="37" height="36"/>
	<rect x="370" y="481" stroke="#000000" stroke-miterlimit="10" width="37" height="36"/>
	<rect x="333" y="481" stroke="#000000" stroke-miterlimit="10" width="37" height="36"/>
	<rect x="296" y="481" stroke="#000000" stroke-miterlimit="10" width="37" height="36"/>
	<rect x="258" y="481" stroke="#000000" stroke-miterlimit="10" width="37" height="36"/>
</g>
</svg>
